<?xml version="1.0" encoding="UTF-8" standalone="no"?>
<!-- Created with Inkscape (http://www.inkscape.org/) -->

<svg
   xmlns:dc="http://purl.org/dc/elements/1.1/"
   xmlns:cc="http://creativecommons.org/ns#"
   xmlns:rdf="http://www.w3.org/1999/02/22-rdf-syntax-ns#"
   xmlns:svg="http://www.w3.org/2000/svg"
   xmlns="http://www.w3.org/2000/svg"
   xmlns:sodipodi="http://sodipodi.sourceforge.net/DTD/sodipodi-0.dtd"
   xmlns:inkscape="http://www.inkscape.org/namespaces/inkscape"
   width="641.28589"
   height="587.00903"
   id="svg2"
   version="1.1"
   inkscape:version="0.47 r22583"
   sodipodi:docname="plain.svg">
  <defs
     id="defs4">
    <inkscape:perspective
       sodipodi:type="inkscape:persp3d"
       inkscape:vp_x="0 : 526.18109 : 1"
       inkscape:vp_y="0 : 1000 : 0"
       inkscape:vp_z="744.09448 : 526.18109 : 1"
       inkscape:persp3d-origin="372.04724 : 350.78739 : 1"
       id="perspective10" />
    <inkscape:perspective
       id="perspective2956"
       inkscape:persp3d-origin="0.5 : 0.33333333 : 1"
       inkscape:vp_z="1 : 0.5 : 1"
       inkscape:vp_y="0 : 1000 : 0"
       inkscape:vp_x="0 : 0.5 : 1"
       sodipodi:type="inkscape:persp3d" />
  </defs>
  <sodipodi:namedview
     id="base"
     pagecolor="#ffffff"
     bordercolor="#666666"
     borderopacity="1.0"
     inkscape:pageopacity="0.0"
     inkscape:pageshadow="2"
     inkscape:zoom="1.2636604"
     inkscape:cx="277.05955"
     inkscape:cy="270.17471"
     inkscape:document-units="px"
     inkscape:current-layer="layer1"
     showgrid="false"
     inkscape:snap-bbox="true"
     inkscape:window-width="1863"
     inkscape:window-height="1156"
     inkscape:window-x="128"
     inkscape:window-y="166"
     inkscape:window-maximized="0" />
  <metadata
     id="metadata7">
    <rdf:RDF>
      <cc:Work
         rdf:about="">
        <dc:format>image/svg+xml</dc:format>
        <dc:type
           rdf:resource="http://purl.org/dc/dcmitype/StillImage" />
        <dc:title></dc:title>
      </cc:Work>
    </rdf:RDF>
  </metadata>
  <g
     inkscape:label="Layer 1"
     inkscape:groupmode="layer"
     id="layer1"
     transform="translate(-57.52282,-136.95493)">
    <rect
       style="color:#000000;fill:#ffffff;fill-opacity:1;stroke:none;stroke-width:1;marker:none;visibility:visible;display:inline;overflow:visible;enable-background:accumulate"
       id="rect5459"
       width="204.96013"
       height="129.78171"
       x="87.840057"
       y="177.12703"
       class="ttt-cell 00" />
    <rect
       style="color:#000000;fill:#ffffff;fill-opacity:1;stroke:none;stroke-width:1;marker:none;visibility:visible;display:inline;overflow:visible;enable-background:accumulate"
       id="rect5461"
       width="166.97523"
       height="155.89632"
       x="309.41858"
       y="186.62326"
       class="ttt-cell 01" />
    <rect
       style="color:#000000;fill:#ffffff;fill-opacity:1;stroke:none;stroke-width:1.56133997;marker:none;visibility:visible;display:inline;overflow:visible;enable-background:accumulate"
       id="rect5463"
       width="139.50793"
       height="137.92525"
       x="505.9545"
       y="182.15582"
       class="ttt-cell 02" />
    <rect
       style="color:#000000;fill:#ffffff;fill-opacity:1;stroke:none;stroke-width:1.23824883;marker:none;visibility:visible;display:inline;overflow:visible;enable-background:accumulate"
       id="rect5465"
       width="183.35539"
       height="202.34784"
       x="465.43402"
       y="357.67438"
       class="ttt-cell 12" />
    <rect
       style="color:#000000;fill:#ffffff;fill-opacity:1;stroke:none;stroke-width:1.13819575;marker:none;visibility:visible;display:inline;overflow:visible;enable-background:accumulate"
       id="rect5467"
       width="148.63596"
       height="232.51924"
       x="288.91254"
       y="359.20706"
       class="ttt-cell 11" />
    <rect
       style="color:#000000;fill:#ffffff;fill-opacity:1;stroke:none;stroke-width:1;marker:none;visibility:visible;display:inline;overflow:visible;enable-background:accumulate"
       id="rect5469"
       width="202.58607"
       height="190.71579"
       x="94.170868"
       y="341.72821"
       class="ttt-cell 10" />
    <rect
       style="color:#000000;fill:#ffffff;fill-opacity:1;stroke:none;stroke-width:1.10737848;marker:none;visibility:visible;display:inline;overflow:visible;enable-background:accumulate"
       id="rect5471"
       width="153.41487"
       height="170.03326"
       x="81.562935"
       y="545.1593"
       class="ttt-cell 20" />
    <rect
       style="color:#000000;fill:#ffffff;fill-opacity:1;stroke:none;stroke-width:1;marker:none;visibility:visible;display:inline;overflow:visible;enable-background:accumulate"
       id="rect5473"
       width="142.44333"
       height="118.70278"
       x="268.26828"
       y="599.70892"
       class="ttt-cell 21" />
    <rect
       style="color:#000000;fill:#ffffff;fill-opacity:1;stroke:none;stroke-width:1.04916108;marker:none;visibility:visible;display:inline;overflow:visible;enable-background:accumulate"
       id="rect5475"
       width="208.07637"
       height="120.23632"
       x="451.88647"
       y="587.86322"
       class="ttt-cell 22" />
    <path
       style="fill:#000000;fill-opacity:1;fill-rule:nonzero;stroke:none"
       d="m 528.99028,200.95497 c -18.90809,31.66528 -24.63434,69.2814 -36.72385,103.82837 -30.95945,113.20556 -55.67791,229.86391 -53.15152,347.80359 1.5032,19.7282 6.97068,49.74016 14.32305,60.92789 -12.50946,5.02499 -33.23459,1.80263 -10.61557,1.55488 30.32749,-0.0794 -25.19434,19.06195 -16.82354,-10.98053 -17.11033,-63.54654 -3.3636,-129.35334 2.61836,-193.422 11.13582,-89.47385 34.42951,-176.96832 58.72847,-263.62491 9.27526,-14.32504 6.21018,-51.30268 29.16435,-46.91345 4.16007,0.27537 8.32024,0.55085 12.48025,0.82616 z M 229.85614,723.908 c -3.14509,-39.1534 4.30671,-78.59355 11.09381,-117.10906 18.62394,-83.8134 45.01189,-166.19457 55.78542,-251.57337 4.92848,-47.84322 6.95238,-99.65239 -19.68673,-142.0384 -6.04193,-13.875 -33.84067,-41.45293 -0.41043,-35.93633 16.30712,3.506 0.41826,14.67513 -11.82164,10.56624 -23.96504,-13.98703 27.55261,-18.64938 23.7029,4.86734 23.07681,35.95129 36.41815,78.8866 30.68851,121.8149 -2.85925,53.64187 -11.25666,106.80392 -26.21266,158.44617 -19.77812,80.29814 -44.80366,161.54588 -40.61484,245.13556 3.83719,10.23149 -16.09574,3.48896 -22.52434,5.82695 z M 89.182933,549.34811 c 24.793577,-23.56823 61.964117,-21.03695 93.270187,-17.05707 40.75955,15.13776 71.9132,50.39903 115.9174,58.32258 53.0758,12.4366 107.84264,1.54798 160.80691,-6.32437 55.12535,-10.71424 110.85037,-22.85754 162.3573,-45.48668 6.29724,-8.12524 46.68864,-4.25874 12.1817,-5.31373 -12.01705,3.9917 8.93682,2.85909 16.1333,0.47319 18.42754,4.99928 -46.5028,3.72608 -23.80347,1.87853 16.35871,-6.71492 31.4591,2.6964 8.77782,10.25224 -107.48446,35.74543 -221.38866,61.00834 -335.20248,51.30666 -38.90739,-4.18728 -73.03893,-24.13285 -104.69409,-45.77106 -6.41498,-10.32651 -39.77972,-12.76955 -36.63106,-18.67153 27.85481,0.35607 -24.63199,-0.95689 -29.71908,7.19138 -11.16475,11.97674 -24.47558,11.55352 -39.394437,9.20028 l 0,-4.2e-4 z M 85.33934,352.91796 c 24.8836,-35.89613 72.60427,-46.50729 114.04048,-43.87211 59.5056,5.10629 113.74251,34.30738 172.71876,42.8131 28.73491,4.12359 59.14157,9.03681 86.72049,3.30868 18.02697,0.37103 44.63524,-6.01454 66.16595,-12.23017 25.41842,-8.64897 53.94891,-19.35421 67.79498,-43.96184 4.8614,3.72328 24.73944,-6.38454 22.98301,2.58153 -23.95082,34.24392 -68.06209,44.35696 -106.52248,53.05833 -77.9412,13.01141 -159.0407,6.93413 -233.66905,-19.45949 -29.3266,-9.03977 -59.2638,-18.89072 -89.41807,-22.70365 20.16588,-0.5592 -23.23746,1.47715 -31.42667,8.02766 -26.4708,1.39398 -35.22424,37.33593 -60.009359,32.83036 -3.125994,-0.13079 -6.252177,-0.26168 -9.378041,-0.3924 z"
       id="path3389"
       class="ttt-board" />
    <path
       style="fill:#000000;fill-opacity:1;fill-rule:nonzero;stroke:none"
       d="m 149.19426,278.72807 c 10.24156,-18.419 25.67436,-33.12431 40.10855,-48.22168 6.9874,-6.96865 13.71589,-14.23026 20.84882,-21.02964 5.42029,-1.91288 11.21156,1.43902 16.82921,1.53124 3.58602,0.46327 8.92947,0.84516 2.85633,0.7282 -6.6708,0.007 -13.3416,0.0143 -20.0124,0.0214 7.87591,0.0909 15.75221,0.15119 23.62775,0.27263 -4.27168,2.3698 -7.60373,6.6149 -11.3854,9.85906 -16.54015,15.93243 -33.39137,32.01243 -45.8746,51.44476 -1.97476,3.27119 -2.86959,7.89351 -7.5037,6.2986 -6.49817,-0.30153 -12.99645,-0.60296 -19.49456,-0.90455 z m -14.65468,-56.57659 c 4.94199,-5.46549 11.6918,-9.18138 19.07551,-9.88965 10.07879,-2.13957 21.63505,-0.53745 28.95612,7.30519 13.14016,14.35563 22.28965,32.29565 37.71919,44.5703 15.1221,11.85565 34.47418,17.30747 53.4788,18.04993 -6.32694,0.2199 -12.67923,-0.0606 -19.01577,-0.0721 4.01817,-0.8769 3.64115,-0.36737 7.86307,-0.72316 6.43081,-0.41876 12.86162,-0.83752 19.29243,-1.25628 2.48578,6.94942 -7.67752,5.53424 -11.79344,5.58917 -11.87412,0.0439 -23.90268,0.44974 -35.48187,-2.68069 -17.6408,-3.98249 -34.34156,-13.04177 -46.0917,-26.95931 -10.62376,-11.57923 -18.45668,-25.69958 -30.65681,-35.79104 -1.55077,-2.21677 -10.86183,-3.51812 -3.73152,-3.48536 6.08332,-0.22752 12.19324,-0.63278 18.27286,-0.33757 -5.60036,0.25675 -10.59348,3.36471 -14.3566,7.37496 -7.84342,-0.56478 -15.68685,-1.12957 -23.53027,-1.69435 z"
       id="path3393"
       class="ttt-move x" />
    <path
       style="fill:#000000;fill-opacity:1;fill-rule:nonzero;stroke:none"
       d="m 195.46821,214.37533 c -2.82854,-0.19512 -5.66278,-0.29092 -8.49656,-0.37019 8.57384,0.12432 17.14843,0.18776 25.7229,0.25101 -5.49303,0.0211 -11.13107,1.33458 -15.45357,4.88645 -5.1204,3.88449 -8.99605,9.15499 -12.68945,14.35386 -3.99667,6.17147 -7.79145,12.71162 -9.40395,19.95238 -0.98039,2.93224 0.18998,7.41256 3.82413,7.53411 1.3899,0.20304 5.39707,-0.0649 1.76489,-0.22647 -4.90715,-0.37682 -9.82369,-0.61012 -14.73478,-0.92692 9.73814,-2.35335 18.79977,-7.43095 25.94534,-14.44477 4.0027,-4.0216 7.56221,-9.32138 7.18174,-15.22015 -0.57763,-5.44279 -4.55755,-10.75017 -9.96157,-12.08989 -2.05827,-0.22279 -0.53374,-0.3476 0.6526,-0.48165 7.10524,-0.90353 14.21047,-1.80706 21.3157,-2.71059 7.527,2.93418 12.23457,11.78178 10.61199,19.67068 -1.10708,5.07598 -3.94937,9.69309 -7.83409,13.13503 -7.14243,7.00153 -15.93658,12.31617 -25.48373,15.31052 -10.05776,0.31586 -20.12174,1.40878 -30.18407,0.97261 -3.53869,-0.4448 -6.55496,-3.4608 -6.43902,-7.12172 -0.0166,-7.00486 3.27013,-13.49486 6.66398,-19.44063 3.90077,-6.45798 8.59892,-12.39562 13.28361,-18.28816 3.86484,-4.23944 8.97917,-7.50645 14.77652,-8.14619 10.68803,-1.86025 21.58222,-0.90775 32.31747,-0.0376 -7.79335,1.14611 -15.58676,2.29217 -23.38008,3.43831 z"
       id="path3395"
       class="ttt-move o" />
    <path
       style="fill:#000000;fill-opacity:1;fill-rule:nonzero;stroke:none"
       d="m 219.32819,174.5544 c -13.91406,3.59241 -26.33879,11.65225 -37.06399,21.01388 -10.26647,10.74189 -18.30888,23.77587 -23.06708,37.87064 -3.50361,10.45488 -2.25164,21.69625 -1.0906,32.43884 1.75685,7.94389 4.84943,16.79599 12.17808,21.21936 2.27284,1.65446 8.24028,1.52948 9.16756,1.53114 -3.66451,-0.44753 -13.10591,-0.40106 -12.93388,-1.50077 17.67391,-5.2872 30.20221,-20.19973 40.02377,-35.05057 6.76694,-10.54068 11.28182,-22.48408 13.90761,-34.7003 1.66943,-9.78596 2.58872,-21.48316 -4.64685,-29.36887 -4.13732,-4.64586 -11.50526,-5.48412 -16.226,-5.14043 7.28535,-1.0276 14.56951,-2.30418 21.85561,-3.17728 3.08128,0.43074 6.16256,0.86147 9.24384,1.29221 5.25789,3.15253 10.19367,7.43442 11.60375,13.69784 3.36801,13.60365 -0.78134,27.68818 -5.60664,40.41349 -4.98176,13.92584 -13.74371,26.12692 -23.31049,37.25409 -7.35569,8.00328 -16.20845,15.52398 -26.82005,18.43518 -10.74045,0.26911 -21.52303,1.62072 -32.25078,0.66909 -9.89686,-1.65143 -14.57591,-12.00003 -16.77011,-20.71466 -2.15846,-9.51613 -1.76765,-19.40915 -1.37143,-29.09113 2.0379,-17.23716 12.00425,-32.03279 21.76441,-45.87977 9.06286,-10.15975 21.40139,-16.58126 33.37202,-22.66483 2.90576,-1.79897 6.09122,-1.93131 9.30085,-1.16028 6.2468,0.87104 12.4936,1.74209 18.7404,2.61313 z"
       id="path3397"
       class="ttt-move o" />
    <path
       style="fill:#000000;fill-opacity:1;fill-rule:nonzero;stroke:none"
       d="m 199.75014,214.75807 c -4.34536,1.29144 -7.89356,4.37735 -10.30227,8.15341 -3.3556,5.27369 -5.5792,11.17744 -7.75311,17.00816 -2.22154,6.85528 -4.22097,14.0751 -3.56845,21.34378 -0.0227,3.60852 5.1351,2.13688 5.99878,1.50312 -5.80021,-0.87133 -11.80848,0.74493 -17.50079,-0.99369 1.64053,-1.54707 5.50999,-1.20657 7.61596,-2.94928 6.78586,-3.83811 12.50586,-9.48521 16.51868,-16.15186 2.6709,-5.47715 -0.47461,-11.93195 -5.11126,-15.22576 -0.73762,-1.0762 -5.57442,-2.2201 -2.34866,-2.24645 7.21693,-0.74941 14.43385,-1.49882 21.65078,-2.24823 6.85555,3.88115 11.61196,12.59381 8.82687,20.37119 -1.61666,3.43848 -4.25028,6.28464 -6.6025,9.23616 -6.19251,6.527 -13.88059,12.10739 -22.84393,13.94643 -9.23418,2.03281 -18.92575,1.14422 -27.94483,-1.49136 -1.79231,-2.48081 -1.6525,-5.61222 -1.31071,-8.50511 1.27596,-11.10642 5.49844,-21.58862 9.90067,-31.77442 2.41087,-4.97276 5.36035,-10.41774 10.81589,-12.52205 1.22349,-0.50527 2.63506,0.14205 3.94264,0.15213 6.67208,0.79795 13.34416,1.59589 20.01624,2.39383 z"
       id="path3399"
       class="ttt-move o" />
    <path
       style="fill:#000000;fill-opacity:1;fill-rule:nonzero;stroke:none"
       d="m 136.63006,279.88399 c 8.92003,-9.47579 18.86272,-17.90535 28.05477,-27.11221 15.62229,-15.34659 30.12157,-31.82881 43.24862,-49.36051 7.78435,0.59362 15.5687,1.18723 23.35305,1.78085 -7.37871,7.22265 -13.66495,15.48014 -20.71493,23.02164 -10.72536,12.32029 -21.83064,24.31389 -33.7769,35.4658 -5.87317,5.72034 -11.64499,11.5821 -16.69975,18.05116 -7.82162,-0.61558 -15.64324,-1.23115 -23.46486,-1.84673 z m 8.94256,-47.42993 c 11.56902,-5.51399 24.60334,-2.66007 36.87963,-2.48388 7.00197,0.74228 12.75491,5.37785 16.94348,10.77188 10.34438,11.0637 21.99167,21.00356 34.77114,29.1431 2.39683,2.31677 10.94817,3.38396 11.09204,2.64954 -6.83808,-0.16631 -13.67864,-0.16145 -20.51788,-0.24638 2.15162,-1.11479 4.67012,0.0555 6.99235,0.003 5.90204,0.56947 11.80407,1.13893 17.7061,1.7084 -2.41707,2.83008 -6.82802,0.82495 -10.08055,1.64077 -6.35628,0.0633 -12.75676,0.87563 -19.08995,0.30297 -8.7564,-1.98968 -15.26543,-8.75454 -22.14658,-14.05219 -8.74816,-6.94557 -16.29658,-15.20299 -24.54934,-22.68989 -4.22038,-3.79696 -9.8536,-5.70203 -15.48286,-5.79481 8.40374,-0.50274 17.12048,-1.34397 25.3536,-1.47126 -4.93445,0.75512 -10.04541,1.177 -14.65446,3.09937 -7.73891,-0.86032 -15.47781,-1.72065 -23.21672,-2.58098 z"
       id="path3403"
       class="ttt-move x" />
    <path
       style="fill:#000000;fill-opacity:1;fill-rule:nonzero;stroke:none"
       d="m 138.0665,274.55335 c 7.09458,-15.88122 19.34843,-28.53516 31.19974,-40.94804 16.89234,-18.49266 33.97481,-36.98625 53.35569,-52.92122 1.672,-0.81044 3.8217,0.30736 5.67779,0.23998 6.12613,0.72418 12.25226,1.44835 18.37839,2.17253 -5.80421,2.11229 -9.99334,7.17197 -14.8267,10.90128 -15.57847,13.70896 -30.09791,28.60446 -44.06084,43.94297 -9.41752,10.7321 -18.65951,21.93588 -25.01124,34.80614 -0.2094,3.68054 -3.45945,2.50629 -5.99455,2.51895 -6.23943,-0.23753 -12.47885,-0.47506 -18.71828,-0.71259 z m 54.85058,-100.10593 c -0.16093,19.04279 1.82056,38.06888 5.96085,56.65607 4.43658,19.9134 9.22379,40.91397 22.89828,56.76265 4.58569,2.36378 -4.64633,0.56152 -6.79053,0.82365 -5.56244,-0.20082 -11.07749,-1.34144 -16.59041,-1.6976 2.42925,2.90179 6.37261,1.62861 9.66097,2.08576 5.52401,0.19918 11.04801,0.39835 16.57202,0.59752 0.45924,8.40189 -7.9238,2.38848 -12.44303,2.52308 -6.17777,-1.11174 -13.85661,1.1775 -16.29728,-6.47447 -9.18036,-14.05872 -13.45659,-30.47773 -16.72565,-46.75019 -2.47263,-12.92376 -6.03384,-25.63357 -7.26374,-38.77093 -1.08678,-8.55987 -1.9553,-17.14814 -2.56319,-25.75554 7.86057,0 15.72114,0 23.58171,0 z"
       id="path3407"
       class="ttt-move x" />
    <path
       style="fill:#000000;fill-opacity:1;fill-rule:nonzero;stroke:none"
       d="m 190.85971,209.25518 c -1.93097,-0.27903 -5.3118,-0.32574 -6.46001,-0.82153 8.32739,0.0401 16.65034,0.53083 24.96835,0.88648 -10.01751,0.89509 -19.55067,5.79244 -26.16945,13.37001 -4.20808,4.72753 -7.44178,10.4008 -9.26522,16.45156 -1.43522,5.58987 -3.46104,11.82018 -0.98272,17.40668 2.2238,3.83146 6.83165,5.91217 11.19301,5.23374 3.06191,-0.24682 -4.28263,-0.12842 -5.8856,0.0233 -3.63073,1.20685 -8.6276,-4.35416 -2.80485,-5.01133 3.19737,-0.62479 6.58038,-1.01115 9.20579,-3.13977 7.69869,-5.15849 14.85989,-11.8184 18.72756,-20.38137 1.13714,-3.30494 2.17585,-6.72007 1.64663,-10.25449 -0.20853,-6.03069 -4.51662,-11.029 -9.64557,-13.76609 -1.14659,-0.78379 2.09943,-0.44881 2.96157,-0.72099 6.37623,-0.59371 12.75246,-1.18741 19.12869,-1.78112 5.14868,3.27927 9.45415,8.48035 9.98412,14.75608 0.45004,3.58684 0.16467,7.21105 -1.08935,10.60773 -2.23472,7.43463 -7.71817,13.36295 -13.28148,18.54382 -4.8354,4.2607 -10.17765,8.02753 -15.94812,10.89805 -6.03347,1.87322 -12.45416,2.03418 -18.71629,2.55361 -5.22289,0.25832 -10.46475,0.67488 -15.67093,0.90897 -3.65382,-0.29301 -7.58457,-1.00667 -10.01428,-4.05496 -4.43514,-4.66903 -3.91738,-11.69278 -2.50619,-17.4824 1.50339,-7.12779 4.12785,-14.06123 8.31744,-20.06521 6.40081,-9.47655 16.79378,-16.09244 28.13954,-17.67152 9.10939,-1.48985 18.38118,-0.76451 27.51844,0.0505 -7.78369,1.15342 -15.56741,2.30682 -23.35108,3.46025 z"
       id="path3409"
       class="ttt-move o" />
    <path
       style="fill:#000000;fill-opacity:1;fill-rule:nonzero;stroke:none"
       d="m 184.27542,190.75889 c -0.093,13.64827 5.4113,26.48543 10.20699,39.01196 6.53591,15.7153 13.48139,31.50519 23.51261,45.34397 0.55637,2.78178 8.49831,4.51232 2.25428,3.88152 -6.20461,-0.0409 -13.38211,-0.51487 -18.97057,-0.59619 1.39525,-1.33481 3.76695,-0.47549 5.73999,-0.57679 6.28592,0.27078 12.57185,0.54156 18.85777,0.81234 -1.21922,5.78548 -9.18685,3.20933 -13.58707,4.79862 -5.86557,0.6431 -12.97265,-0.12485 -16.30701,-5.70751 -8.59863,-12.64857 -14.52708,-26.88224 -20.53537,-40.88679 -5.11409,-13.399 -12.00664,-26.33764 -14.31008,-40.62535 -1.33791,-4.00288 -0.51221,-6.43569 3.69339,-5.45578 6.48169,0 12.96338,0 19.44507,0 z m -50.87829,59.23216 c 13.5202,-9.13926 29.30065,-13.97264 44.45009,-19.64388 16.0904,-5.53296 32.37883,-10.69869 48.47813,-16.05296 7.72545,0.97643 15.4509,1.95286 23.17635,2.92929 -27.48517,8.52866 -55.361,16.30993 -81.55429,28.39869 -4.83712,1.23256 -8.33804,6.97204 -13.41259,6.33458 -7.0459,-0.65524 -14.09179,-1.31048 -21.13769,-1.96572 z"
       id="path3413"
       class="ttt-move x" />
    <path
       style="fill:#000000;fill-opacity:1;fill-rule:nonzero;stroke:none"
       d="m 211.6599,167.56505 c -4.6695,17.89198 -7.82217,36.15433 -10.82364,54.38732 -3.17157,22.60226 -6.13032,45.28848 -7.27296,68.09406 0.0547,1.98488 -4.35189,0.49579 -6.2256,0.97903 -5.73085,0.032 -11.46171,0.064 -17.19256,0.0959 4.17204,-25.24502 7.27758,-50.66925 11.11022,-75.97342 1.63411,-16.14376 3.95958,-32.20611 7.10054,-48.12773 7.768,0.1816 15.536,0.36321 23.304,0.54481 z m -80.03197,95.05162 c 5.42614,-9.08701 11.84875,-18.05666 20.56235,-24.26099 12.75885,-8.06749 27.63583,-12.11737 42.59234,-13.31554 14.54885,-1.96452 29.35759,-3.46265 43.54633,-7.03256 7.61718,0.697 15.23437,1.394 22.85155,2.091 -5.68563,3.82463 -13.53116,3.4214 -20.16316,4.92253 -14.47725,2.42145 -29.24043,3.18089 -43.55912,6.47483 -9.22798,2.43858 -18.31956,6.12601 -26.07296,11.74841 -6.38385,5.96056 -12.28578,12.69343 -16.1879,20.56855 -7.85648,-0.39874 -15.71295,-0.79749 -23.56943,-1.19623 z"
       id="path3417"
       class="ttt-move x" />
    <path
       style="fill:#000000;fill-opacity:1;fill-rule:nonzero;stroke:none"
       d="m 57.52282,450.28377 c 19.496698,-19.40077 49.65771,-13.49772 74.57295,-14.73017 33.93512,2.55959 67.72442,7.08941 101.70324,9.46087 55.3799,5.24531 109.16981,20.94975 164.77208,24.5963 67.12274,6.43256 134.58769,9.03278 201.94972,10.58555 14.42545,1.75559 7.67487,-4.17177 -3.09638,-0.5222 21.02265,-1.85674 27.52756,-2.58683 47.55906,-2.75345 -7.80699,-1.2295 -15.61397,-2.45899 -23.42096,-3.68849 5.67891,0.67 33.26095,0.86275 27.09675,-1.95128 -2.70931,16.82489 -27.39795,10.15631 -41.58704,11.86241 -73.39106,-0.0791 -146.778,-3.9599 -219.92246,-9.75452 -42.37582,-4.06595 -84.53286,-9.836 -126.1976,-18.64956 -47.38367,-8.39702 -95.60976,-9.87828 -143.33619,-15.36948 -14.26486,-0.55458 24.95139,-0.22521 3.7492,-0.11226 -15.94949,-1.42074 -31.331827,6.16918 -43.918413,12.47659 -6.641316,-0.48343 -13.282658,-0.96689 -19.923957,-1.45031 z"
       id="path3419"
       class="ttt-win-r1" />
    <path
       style="fill:#000000;fill-opacity:1;fill-rule:nonzero;stroke:none"
       d="M 98.577971,241.29854 C 138.4975,223.35192 183.8551,225.81652 226.3805,230.04783 c 45.70437,6.9988 89.4037,24.25881 135.77903,27.48388 74.63025,9.19287 149.65455,17.18775 224.95155,16.45794 7.34806,2.71374 -18.96348,-0.89653 -2.22403,0.0135 13.07866,3.35718 32.45927,-6.24499 33.39367,-14.97521 11.94943,-6.88423 31.86405,2.39211 15.38032,13.5734 -25.34881,8.80789 -52.9799,4.06808 -79.32617,4.92972 -82.86294,-2.01353 -165.60742,-9.76714 -247.55195,-22.03036 -39.99371,-6.49662 -78.24051,-21.65663 -118.9364,-23.95359 -14.75787,-1.58217 14.75775,-0.67764 -5.31786,-0.52245 -24.20738,-1.58103 -46.96738,10.41271 -69.95891,11.6535 -4.66393,-0.45985 -9.32789,-0.91966 -13.991779,-1.37962 z"
       id="path3421"
       class="ttt-win-r0" />
    <path
       style="fill:#000000;fill-opacity:1;fill-rule:nonzero;stroke:none"
       d="M 71.723601,714.0925 C 99.62417,659.20937 150.44937,622.23687 199.7,587.84765 318.63446,496.90846 448.83719,420.47421 559.68641,319.10089 c 35.52666,-36.86684 68.95324,-75.88871 101.10301,-115.72151 4.89877,-19.39261 30.12177,-27.57518 38.01928,-19.91227 -13.3663,0.32281 -36.0523,-3.28205 -8.05645,-7.51776 21.97879,9.34941 -19.1261,34.87318 -25.24892,49.99748 -40.64267,44.56628 -76.7616,94.06886 -125.61163,130.24494 -16.0176,12.31638 -38.66248,30.93197 -58.34929,46.49388 -88.37727,65.72988 -181.14397,125.47209 -267.93195,193.35518 -39.20948,26.89693 -77.48334,56.28602 -104.75014,95.84538 -7.08701,18.43678 -17.426258,26.99716 -36.780252,22.21873 l -0.356467,-0.0124 0,0 z"
       id="path3423"
       class="ttt-win-dllur" />
    <path
       style="fill:#000000;fill-opacity:1;fill-rule:nonzero;stroke:none"
       d="m 184.04643,170.22055 c 31.0264,50.62563 50.75705,107.1325 79.08869,159.25651 37.09987,77.91059 76.7756,155.52506 132.15365,222.29995 34.97843,44.94075 82.35855,79.01904 135.23792,99.87547 31.95927,13.96263 64.96718,26.45444 95.12566,43.91732 -15.04982,10.58976 -38.73561,-6.5051 -11.74768,-3.47075 26.28866,1.66846 -14.4346,15.05433 -22.02116,-0.23773 C 526.69617,658.89932 451.78352,638.0331 401.56656,581.72865 353.62657,528.77899 315.94263,467.49752 280.40944,405.81785 244.77797,335.8347 210.15957,265.31745 175.18767,195.02587 c -8.09714,-12.71944 -22.4191,-28.24571 0.79007,-24.43095 2.68956,-0.12479 5.37913,-0.24958 8.06869,-0.37437 z"
       id="path3425"
       class="ttt-win-dullr" />
    <path
       style="fill:#000000;fill-opacity:1;fill-rule:nonzero;stroke:none"
       id="path3661"
       d="m 318.30204,715.75921 c -0.50988,-2.62945 -1.71154,-8.52888 -1.89697,-10.92551 -0.24044,-3.10757 -0.12281,-6.23271 -0.22805,-9.34779 -0.10986,-3.25169 -0.49385,-4.8261 0.40845,-7.76496 -0.006,-0.92118 -0.0733,-1.8441 -0.0166,-2.76355 1.72455,-27.92826 -0.17258,16.87533 0.0896,-18.99503 0.0315,-4.31167 0.6482,-8.60244 0.7673,-12.91258 0.70657,-25.57171 -0.87634,-1.245 0.48976,-19.83909 0.14567,-1.60105 0.39913,-3.19593 0.43702,-4.80314 0.0201,-0.85069 -0.27104,-1.6882 -0.26391,-2.5391 0.0104,-1.23693 0.21688,-2.46446 0.31615,-3.69745 0.11742,-1.45837 0.22261,-2.9177 0.33391,-4.37655 0.367,-2.82841 0.82592,-5.64641 1.10098,-8.48524 0.39488,-4.07553 0.60539,-8.16681 0.90809,-12.25022 2.84677,-21.69492 3.13208,-21.98111 4.89716,-41.11085 0.20299,-2.20007 0.22193,-4.41587 0.46417,-6.61195 0.71063,-6.44242 0.10076,1.06354 1.52817,-4.19322 0.39691,-1.46168 0.4697,-2.99258 0.70455,-4.48888 3.79095,-10.65424 4.28835,-22.11519 6.57451,-33.0928 1.26383,-6.06864 3.13792,-11.99604 4.52147,-18.03851 3.29793,-14.4032 3.15621,-14.74083 5.00616,-27.1499 0.25547,-1.57003 1.12255,-8.1982 2.07558,-10.42255 0.73616,-1.7182 1.97454,-3.18742 2.74051,-4.89254 2.35003,-5.23134 4.55464,-12.84625 6.1755,-18.10508 1.44427,-4.68586 2.85811,-9.38105 4.28716,-14.07158 2.88024,-7.7066 5.94692,-15.34608 8.64071,-23.11982 12.45859,-35.95307 -3.11607,6.05657 5.55062,-18.23832 6.17826,-17.31923 4.38393,-6.65922 12.89966,-37.70298 2.18662,-7.97123 3.31471,-16.19568 4.97206,-24.29352 1.00535,-5.48541 2.33382,-10.92134 3.01604,-16.45624 0.48798,-3.95896 -0.48859,-8.2366 -0.80656,-12.16411 -0.79407,-9.80817 -0.68266,-19.52224 -0.50433,-29.35049 -0.23441,-18.0904 0.60954,-20.46264 -3.15242,-38.32773 -0.41579,-1.97456 -4.0909,-4.64455 -2.31096,-5.59512 3.23381,-1.72699 7.36025,0.25714 10.95453,0.97907 0.40904,0.0822 -0.18101,1.16583 -0.59331,1.10206 -4.63028,-0.71618 -9.10765,-2.20458 -13.66147,-3.30687 -2.72524,-11.98492 -4.52353,-24.18389 -8.81637,-35.76661 -1.22523,-3.30585 -2.98468,-6.38857 -4.43533,-9.60189 -2.53093,-5.60621 -0.70516,-2.94284 -3.72629,-6.64507 -0.3697,-1.35491 -1.20154,-2.56951 -1.47976,-3.94668 -0.35552,-1.75982 -0.28288,-3.58274 -0.55336,-5.35762 -0.25465,-1.67103 -0.58184,-3.33478 -1.0201,-4.9673 -1.57034,-5.84958 -1.09198,-1.52268 -1.37078,-4.95009 13.72919,0.51471 12.16564,-2.20126 12.25024,5.40169 0,0 -11.80379,0.0348 -11.80379,0.0348 l 0,0 c 0.12871,-0.76489 0.3812,-1.51905 0.38612,-2.29468 0.0354,-5.5745 -7.89002,-0.69858 10.64735,-3.35869 0.31114,1.66866 0.85475,3.29534 1.06464,4.97973 0.20403,1.6373 -0.0114,3.31568 0.26102,4.943 0.54525,3.25759 1.71363,6.02951 3.22124,8.89259 1.99079,3.2785 1.6308,2.37876 3.22004,6.86954 5.02086,14.1876 1.86807,6.09765 6.9314,22.59943 1.4733,4.80162 3.26849,9.50247 4.67567,14.32388 0.80648,2.76322 1.30636,5.60683 1.95954,8.41024 -3.21111,1.0992 -6.26759,2.86025 -9.63332,3.2976 -0.72362,0.094 -0.16744,-2.00929 0.55414,-2.11781 4.06504,-0.61137 8.61742,-1.58303 12.33093,0.17994 1.73817,0.82519 -0.0974,3.86779 0.19954,5.76883 5.03703,32.24552 3.48478,6.17229 4.04239,38.46049 0.10162,3.65569 0.22197,7.31092 0.30487,10.96709 0.0674,2.97245 -0.0239,5.95008 0.14599,8.91844 0.17843,3.11729 0.54165,6.22204 0.89815,9.32401 0.21971,1.91176 0.95881,3.79303 0.82999,5.71306 -0.5347,7.96953 -7.17221,14.9908 -5.8225,23.24418 -1.99793,8.09517 -4.11004,16.163 -5.99377,24.28551 -2.30647,9.94527 -4.26798,19.96846 -6.5758,29.91342 -0.62337,2.68623 -1.23519,5.39319 -2.21559,7.97064 -2.39485,6.29609 -7.04485,11.60226 -8.93512,18.12591 -2.83899,7.57236 -4.91944,15.40782 -7.37916,23.11173 -2.15289,10.08791 -2.99077,15.15851 -5.80198,24.60689 -0.77913,2.61861 -1.65249,5.21202 -2.64012,7.75932 -1.26249,3.25621 -2.77121,5.27784 -3.67483,8.58419 -0.5866,2.14637 -0.91853,4.35434 -1.37779,6.53151 -2.97845,9.70667 -5.27013,16.6246 -7.47899,27.06608 -1.05995,5.0105 -4.78791,29.0024 -5.53659,34.61947 -0.46624,3.49806 -0.64347,7.03069 -1.11268,10.52835 -0.27497,2.04975 -0.74556,4.06846 -1.11834,6.10269 -0.29625,1.34562 -0.75341,4.77206 -1.76732,6.42788 -0.47037,0.76816 -1.3476,1.29359 -1.64496,2.14383 -0.73723,2.10791 -1.01257,4.3523 -1.39641,6.55218 -3.74568,21.46744 -2.57386,15.55923 -3.95301,41.09647 -2.20308,27.86332 -0.41542,-0.78199 -0.64327,20.73326 -0.0526,4.96394 -0.52856,3.6375 -1.4561,8.11701 -0.38997,1.88333 -0.38251,5.7795 -0.42756,7.23334 -2.52938,12.81551 -1.19091,3.27744 -1.38221,19.83789 -0.0496,4.29568 -0.40663,8.585 -0.42347,12.88092 -0.0288,7.34005 0.78619,14.59624 0.84764,21.91838 -0.22019,0.97543 -0.56772,2.3715 -0.62172,3.33291 -0.21813,3.88363 0.20769,10.33703 0.39764,13.48007 0.1234,2.04189 0.0946,4.11007 0.4887,6.11736 0.31969,1.62814 1.09038,3.1342 1.63556,4.7013 0,0 -11.49971,0.25151 -11.49971,0.25151 z"
       class="ttt-win-c1" />
    <path
       style="fill:#000000;fill-opacity:1;fill-rule:nonzero;stroke:none"
       id="path3663"
       d="m 515.17034,702.86002 c -1.70163,-4.32164 -2.47033,-5.65962 -3.27929,-10.39323 -0.74159,-4.33946 -1.20661,-16.05085 -1.31907,-18.73664 -0.41905,-10.00734 -0.37135,-13.28068 -0.46381,-23.1793 0.12264,-4.01445 0.24527,-8.0289 0.3679,-12.04336 -0.34047,-5.18165 -1.0466,-10.35219 -1.02143,-15.54496 0.0276,-5.6917 0.86171,-11.35162 1.17935,-17.03452 0.21693,-3.88107 0.17339,-7.77464 0.42416,-11.65368 0.45511,-7.04022 0.82786,-8.54455 1.85248,-14.72279 2.28009,-14.51225 4.23487,-29.07773 6.62879,-43.57215 0.77442,-4.68884 1.76878,-9.33976 2.5329,-14.0303 3.99965,-24.55178 -0.69562,-0.96793 4.96942,-27.48151 0.81204,-3.63865 1.62408,-7.27731 2.43611,-10.91597 0.32569,-3.31305 0.2775,-6.68447 0.97705,-9.93916 0.79553,-3.70121 2.65713,-7.11542 3.48275,-10.81003 0.86422,-3.86737 0.97026,-7.86695 1.56635,-11.78462 1.75603,-11.54105 3.82868,-23.03171 5.73774,-34.54844 4.10197,-18.75065 5.91272,-25.7681 8.95636,-44.59303 0.72226,-4.46716 0.94129,-9.00848 1.72072,-13.46602 0.68105,-3.8949 1.90009,-7.67977 2.65541,-11.56096 0.87377,-4.48983 1.26194,-9.0693 2.2295,-13.53986 1.88181,-8.69475 4.20875,-17.28716 6.31312,-25.93075 2.44301,-5.85088 0.39114,-12.31277 1.6035,-18.32258 0.16645,-0.82511 0.8315,-1.47044 1.13671,-2.25489 0.9811,-2.52159 2.113,-5.01155 2.71672,-7.64906 1.09915,-4.80189 1.58198,-9.72433 2.37297,-14.58649 1.64403,-6.86069 3.28806,-13.72138 4.93209,-20.58207 3.62692,-12.57691 3.96425,-25.70277 6.35524,-38.48216 3.04041,-16.25034 2.28587,-2.96217 4.68865,-19.10996 0.11703,-0.78645 -0.2152,-1.57558 -0.32281,-2.36338 0.39223,-1.30194 0.78446,-2.60389 1.17669,-3.90584 3.49569,-10.6712 6.65896,-21.46898 9.30581,-32.38424 0.54013,-2.22739 1.25554,-4.44188 1.41778,-6.72807 0.0571,-0.80518 -1.58137,-2.21949 -0.77756,-2.29337 3.68834,-0.33897 7.35281,0.90079 11.02921,1.35119 -0.28067,0.55214 -0.56134,1.10429 -0.842,1.65644 0.11443,0.41907 0.47309,0.84263 0.3433,1.2572 -0.11731,0.37468 -0.65858,0.43234 -0.95342,0.6916 -0.15733,0.13835 -0.26127,0.3276 -0.3919,0.4914 0,0 -11.73555,-1.5804 -11.73555,-1.5804 l 0,0 c 1.60037,0.37736 1.05139,0.27686 1.36829,-1.28576 0.13125,-0.64721 0.33108,-1.2786 0.49661,-1.9179 4.0764,-0.20695 8.1966,-1.25177 12.2292,-0.62086 0.82456,0.129 -0.15931,1.66826 -0.36577,2.47691 -0.57987,2.27121 -1.46254,4.46088 -1.98873,6.74512 -10.39217,45.11321 7.86744,-28.67264 -5.50465,24.56911 -0.65455,2.63374 -1.28686,5.27296 -1.93028,7.90943 -0.44426,1.29467 -0.87185,2.59518 -1.33278,3.884 -0.27374,0.76543 -0.65443,1.49436 -0.87095,2.2779 -3.25156,11.76675 -1.68475,7.16023 -4.22391,19.07853 -8.88895,41.72299 1.18293,-8.46825 -8.05697,38.46081 -1.18091,6.87336 -2.37013,13.7453 -3.54273,20.62009 -0.83102,4.87209 -1.62167,9.75108 -2.46812,14.62052 -0.45577,2.62193 -0.65606,5.30946 -1.43846,7.8531 -0.25364,0.8246 -1.30612,1.22226 -1.60229,2.03255 -2.15299,5.89022 -0.29147,12.92706 -4.57069,18.25045 -9.45425,55.0466 -0.46072,4.50573 -7.28072,39.52081 -0.74798,3.84027 -1.21292,7.73588 -2.06909,11.55349 -4.94574,22.05272 -3.4056,6.61445 -7.95628,35.3896 -1.18653,7.50272 -1.75313,15.09043 -2.62969,22.63565 -1.23326,6.22331 -2.6279,12.41681 -3.6998,18.66994 -3.91393,22.83278 -0.68471,8.33995 -3.76345,27.69219 -2.82095,17.73186 -1.04774,3.94629 -4.57149,20.7708 -0.75566,3.60798 -1.23723,7.26797 -1.85585,10.90196 -1.07563,4.85494 -2.15126,9.70988 -3.22689,14.56481 -0.77639,4.29123 -1.40623,8.61156 -2.32917,12.87367 -1.01816,4.70184 -2.72769,9.254 -3.49101,14.00388 -2.3241,14.46189 -1.30094,29.36344 -4.92915,43.63281 -1.18892,8.74605 -2.96657,17.36261 -3.42606,26.20659 -0.29395,5.65784 -0.36413,11.32812 -0.31908,16.99342 0.0732,9.20521 1.03678,18.39255 0.69629,27.60774 0.84764,15.20651 0.66936,7.50151 0.4963,23.11584 0.22597,4.09651 1.09117,8.13521 1.45944,12.22139 0.18676,2.07223 -0.1999,4.19755 0.20429,6.23854 0.7068,3.56907 3.15732,6.63143 3.88548,10.20018 0,0 -11.39378,0.52865 -11.39378,0.52865 z"
       class="ttt-win-c2" />
    <path
       style="fill:#000000;fill-opacity:1;fill-rule:nonzero;stroke:none"
       id="path3667"
       d="m 152.0871,692.2394 c 0.75437,-4.04897 -0.0629,-8.16877 0.32797,-12.22718 0.31437,-3.26388 1.15884,-6.45968 1.52182,-9.71851 0.15319,-1.37523 -0.0538,-2.76955 0.0231,-4.15115 0.0539,-0.96821 0.27174,-1.92082 0.36851,-2.88569 0.2242,-2.23544 0.39617,-4.47582 0.59426,-6.71372 1.83404,-14.70089 2.04479,-13.4325 2.47928,-27.3933 0.11565,-3.71598 -0.16124,-7.44459 0.10455,-11.15286 0.43848,-6.11773 1.50901,-12.17735 2.00579,-18.29063 4.28123,-52.68379 -3.30947,23.89632 2.34026,-30.95105 0.56474,-6.02946 1.91909,-19.07963 2.18523,-26.07304 0.0952,-2.50225 -0.13902,-5.01051 -0.0284,-7.51213 0.11856,-2.68101 1.24601,-9.36269 1.56267,-11.67695 0.30672,-2.24169 0.5597,-4.49041 0.83955,-6.73562 0.22964,-2.87705 0.26769,-5.77585 0.68893,-8.63115 0.39915,-2.70552 1.23958,-5.32844 1.76645,-8.01202 0.78524,-3.99951 1.44611,-8.02245 2.16917,-12.03367 1.39984,-6.36002 2.86566,-12.70588 4.19952,-19.08007 10.893,-52.05482 -4.29125,16.13449 12.99992,-59.72753 1.11587,-7.17879 2.54041,-14.31635 3.34762,-21.53636 0.3005,-2.68775 -0.0273,-5.40894 -0.0327,-8.11343 -3.4e-4,-0.1726 -0.0112,0.68767 0.0177,0.5175 0.30106,-1.77587 0.53372,-3.56266 0.80058,-5.34398 1.13159,-5.26272 2.41784,-10.49456 3.39478,-15.78817 1.35506,-7.34249 2.39938,-14.73894 3.59907,-22.10841 1.03461,-11.14902 3.35738,-22.1789 3.98509,-33.37274 0.17918,-3.19533 -0.0348,-6.40735 0.20216,-9.59891 0.40706,-5.48377 1.00733,-10.95148 1.51099,-16.42722 0.20479,-6.93794 0.40958,-13.87588 0.61437,-20.81382 0.019,-4.9926 -0.0725,-9.98684 0.0571,-14.9778 0.41837,-16.11782 1.62116,-18.0637 0.0712,-34.08398 -0.11679,-1.20716 -2.43112,-3.12271 -1.25417,-3.41541 3.6646,-0.91137 7.52754,0.61282 11.29131,0.91924 -4.3126,-1.83645 -9.82052,-2.00884 -12.93781,-5.50936 -2.28616,-2.5672 -0.64603,-6.84645 -1.0998,-10.25396 -0.5512,-4.13914 -1.32655,-8.24581 -1.9143,-12.37992 -0.5869,-4.12819 -0.81358,-8.31209 -1.60938,-12.40515 -1.11804,-5.75045 -2.29029,-8.48294 -4.12008,-13.30236 -5.09467,-2.78912 13.36775,-2.78551 10.9227,-0.0876 -5.43244,5.99425 -11.33805,3.69318 -13.59645,-0.49094 -0.81325,-1.5067 -0.72736,-1.04609 -0.30556,-2.35872 12.35425,0.0762 8.99832,-2.74278 13.06273,1.49901 0,0 -11.78641,0.75268 -11.78641,0.75268 l 0,0 c -3.02782,-4.45372 -1.43616,-1.27518 10.37649,-2.46114 -0.76519,1.01593 -0.6275,0.40607 0.6125,1.52299 0.15641,0.14089 0.64558,0.43387 0.4363,0.4566 -3.69942,0.40169 -14.76226,1.563 -11.14118,0.70576 11.39061,-2.69653 9.93556,-4.06238 12.95233,0.17646 0.52421,4.3336 1.08489,9.34647 1.94778,13.41899 0.88503,4.17702 2.42067,8.20795 3.16203,12.41284 0.72043,4.08615 0.6861,8.27263 1.21068,12.3885 0.43577,3.41906 3.31899,7.17854 1.66888,10.20459 -1.76076,3.22895 -6.59674,3.25399 -9.8951,4.88099 3.87757,-0.0888 7.89573,-1.30497 11.63271,-0.26647 1.15389,0.32067 0.26369,2.38358 0.29379,3.58082 0.14137,5.62219 0.12929,11.24723 0.22045,16.87045 0.0932,5.74958 0.45736,11.49882 0.33261,17.2478 -0.25932,11.95056 -2.57658,23.81144 -1.8213,35.81385 0.14822,5.47218 0.25973,10.94548 0.44466,16.41655 0.0527,1.55963 0.35155,3.11558 0.26823,4.67388 -0.0892,1.66892 -0.53999,3.29885 -0.78294,4.9524 -0.26389,1.79601 -0.40189,3.6117 -0.73749,5.3957 -5.96293,31.69732 1.89616,-15.48648 -5.08357,28.06319 -1.06959,7.37547 -2.21583,14.74024 -3.20876,22.12642 -0.7062,5.25321 -1.31445,10.51957 -1.88825,15.78889 -0.14845,1.36323 0.005,2.76278 -0.27802,4.10445 -0.0731,0.34611 -0.637,0.41686 -0.74814,0.7527 -3.20448,9.68341 -3.84165,20.13693 -7.85241,29.5749 -17.16014,108.98614 2.38639,-11.37421 -10.44354,59.76975 -1.14297,6.33798 -1.92848,12.73527 -2.91024,19.10022 -0.61765,4.00431 -1.37477,7.98845 -1.88797,12.00748 -0.33956,2.65919 -0.22739,5.37028 -0.6687,8.01448 -0.48494,2.90567 -1.40101,5.72273 -2.10151,8.58409 -0.15507,10.18038 0.12196,3.2768 -0.70546,13.28206 -0.14118,1.70715 -0.0889,3.43513 -0.36242,5.12613 -0.40854,2.52591 -1.27035,4.96448 -1.6782,7.4905 -0.70697,4.37864 -2.52725,23.96575 -2.73237,26.06393 -1.02245,43.73454 0.59684,-11.25903 -1.67974,30.92907 -0.32894,6.09571 -0.11625,12.21415 -0.49271,18.30711 -0.23088,3.73691 -0.98303,7.42522 -1.32752,11.15338 -1.00973,10.92772 -0.97442,16.14027 -1.31212,27.41115 -0.10746,2.24731 -0.0212,4.5123 -0.32239,6.74193 -0.32266,2.3888 -2.33491,4.39148 -1.81467,7.0001 -0.63451,7.29366 -0.30131,14.66987 -0.75897,21.97514 0,0 -11.29298,-0.11255 -11.29298,-0.11255 z"
       class="ttt-win-c0" />
    <path
       style="fill:#000000;fill-opacity:1;fill-rule:nonzero;stroke:none"
       d="m 90.089998,618.57774 c 33.941512,-16.00913 73.004692,-14.88348 109.646712,-13.18111 48.79173,3.17338 94.30811,23.5155 142.92357,28.04991 78.28388,9.75141 156.96549,18.58846 235.96283,17.82231 11.92145,2.53952 -22.27197,-0.53698 -2.22403,0.0135 12.51038,2.66285 39.12428,-7.29469 30.58722,-14.72563 7.445,-0.43724 15.23915,-2.92474 22.4678,-2.09163 11.32416,20.37906 -27.03193,20.38247 -40.38932,20.58485 -83.84528,0.83689 -167.54769,-6.14828 -250.67859,-16.62005 -39.19092,-3.68483 -77.38139,-13.19221 -115.31618,-23.25265 -12.83265,-3.75506 -49.78699,-6.57171 -49.54782,-7.23066 12.00286,-0.0503 12.29254,-0.003 0.5185,0.35728 -20.95509,0.9647 -42.4473,4.04924 -61.56382,12.48123 -7.46227,-0.73579 -14.924682,-1.47146 -22.386872,-2.20733 z"
       id="path3421-2"
       class="ttt-win-r2" />
  </g>
</svg>
