<?xml version="1.0" encoding="UTF-8" standalone="no"?>
<svg id="svg2" xmlns:rdf="http://www.w3.org/1999/02/22-rdf-syntax-ns#" xmlns="http://www.w3.org/2000/svg" viewBox="0 0 641.29 587.01" version="1.1" xmlns:cc="http://creativecommons.org/ns#" xmlns:dc="http://purl.org/dc/elements/1.1/">
 <defs id="defs4"></defs>
 <metadata id="metadata7">
  <rdf:RDF>
   <cc:Work rdf:about="">
    <dc:format>image/svg+xml</dc:format>
    <dc:type rdf:resource="http://purl.org/dc/dcmitype/StillImage"/>
    <dc:title/>
   </cc:Work>
  </rdf:RDF>
 </metadata>
 <g id="layer1" transform="translate(-57.52282,-136.95493)">
  <rect id="rect5459" style="enable-background:accumulate;color:#000000;" class="ttt-cell 00" height="129.78" width="204.96" y="177.13" x="87.84" fill="#FFF"/>
  <rect id="rect5461" style="enable-background:accumulate;color:#000000;" class="ttt-cell 01" height="155.9" width="166.98" y="186.62" x="309.42" fill="#FFF"/>
  <rect id="rect5463" style="enable-background:accumulate;color:#000000;" class="ttt-cell 02" height="137.93" width="139.51" y="182.16" x="505.95" fill="#FFF"/>
  <rect id="rect5465" style="enable-background:accumulate;color:#000000;" class="ttt-cell 12" height="202.35" width="183.36" y="357.67" x="465.43" fill="#FFF"/>
  <rect id="rect5467" style="enable-background:accumulate;color:#000000;" class="ttt-cell 11" height="232.52" width="148.64" y="359.21" x="288.91" fill="#FFF"/>
  <rect id="rect5469" style="enable-background:accumulate;color:#000000;" class="ttt-cell 10" height="190.72" width="202.59" y="341.73" x="94.171" fill="#FFF"/>
  <rect id="rect5471" style="enable-background:accumulate;color:#000000;" class="ttt-cell 20" height="170.03" width="153.41" y="545.16" x="81.563" fill="#FFF"/>
  <rect id="rect5473" style="enable-background:accumulate;color:#000000;" class="ttt-cell 21" height="118.7" width="142.44" y="599.71" x="268.27" fill="#FFF"/>
  <rect id="rect5475" style="enable-background:accumulate;color:#000000;" class="ttt-cell 22" height="120.24" width="208.08" y="587.86" x="451.89" fill="#FFF"/>
  <path id="path3389" d="m528.99,200.95c-18.908,31.665-24.634,69.281-36.724,103.83-30.959,113.21-55.678,229.86-53.152,347.8,1.5032,19.728,6.9707,49.74,14.323,60.928-12.509,5.025-33.235,1.8026-10.616,1.5549,30.327-0.0794-25.194,19.062-16.824-10.981-17.11-63.547-3.3636-129.35,2.6184-193.42,11.136-89.474,34.43-176.97,58.728-263.62,9.2753-14.325,6.2102-51.303,29.164-46.913,4.1601,0.27537,8.3202,0.55085,12.48,0.82616zm-299.13,522.96c-3.1451-39.153,4.3067-78.594,11.094-117.11,18.624-83.813,45.012-166.19,55.785-251.57,4.9285-47.843,6.9524-99.652-19.687-142.04-6.0419-13.875-33.841-41.453-0.41043-35.936,16.307,3.506,0.41826,14.675-11.822,10.566-23.965-13.987,27.553-18.649,23.703,4.8673,23.077,35.951,36.418,78.887,30.689,121.81-2.8592,53.642-11.257,106.8-26.213,158.45-19.778,80.298-44.804,161.55-40.615,245.14,3.8372,10.231-16.096,3.489-22.524,5.827zm-140.68-174.56c24.794-23.568,61.964-21.037,93.27-17.057,40.76,15.138,71.913,50.399,115.92,58.323,53.076,12.437,107.84,1.548,160.81-6.3244,55.125-10.714,110.85-22.858,162.36-45.487,6.2972-8.1252,46.689-4.2587,12.182-5.3137-12.017,3.9917,8.9368,2.8591,16.133,0.47319,18.428,4.9993-46.503,3.7261-23.803,1.8785,16.359-6.7149,31.459,2.6964,8.7778,10.252-107.48,35.745-221.39,61.008-335.2,51.307-38.907-4.1873-73.039-24.133-104.69-45.771-6.415-10.327-39.78-12.77-36.631-18.672,27.855,0.35607-24.632-0.95689-29.719,7.1914-11.165,11.977-24.476,11.554-39.394,9.2003v-0.00042zm-3.844-196.43c24.884-35.896,72.604-46.507,114.04-43.872,59.506,5.1063,113.74,34.307,172.72,42.813,28.735,4.1236,59.142,9.0368,86.72,3.3087,18.027,0.37103,44.635-6.0145,66.166-12.23,25.418-8.649,53.949-19.354,67.795-43.962,4.8614,3.7233,24.739-6.3845,22.983,2.5815-23.951,34.244-68.062,44.357-106.52,53.058-77.941,13.011-159.04,6.9341-233.67-19.459-29.327-9.0398-59.264-18.891-89.418-22.704,20.166-0.5592-23.237,1.4772-31.427,8.0277-26.471,1.394-35.224,37.336-60.009,32.83-3.126-0.13079-6.2522-0.26168-9.378-0.3924z" fill-rule="nonzero" class="ttt-board" fill="#000"/>
  <path id="path3393" d="m149.19,278.73c10.242-18.419,25.674-33.124,40.109-48.222,6.9874-6.9686,13.716-14.23,20.849-21.03,5.4203-1.9129,11.212,1.439,16.829,1.5312,3.586,0.46327,8.9295,0.84516,2.8563,0.7282-6.6708,0.007-13.342,0.0143-20.012,0.0214,7.8759,0.0909,15.752,0.15119,23.628,0.27263-4.2717,2.3698-7.6037,6.6149-11.385,9.8591-16.54,15.932-33.391,32.012-45.875,51.445-1.9748,3.2712-2.8696,7.8935-7.5037,6.2986-6.4982-0.30153-12.996-0.60296-19.495-0.90455zm-14.655-56.577c4.942-5.4655,11.692-9.1814,19.076-9.8896,10.079-2.1396,21.635-0.53745,28.956,7.3052,13.14,14.356,22.29,32.296,37.719,44.57,15.122,11.856,34.474,17.307,53.479,18.05-6.3269,0.2199-12.679-0.0606-19.016-0.0721,4.0182-0.8769,3.6412-0.36737,7.8631-0.72316,6.4308-0.41876,12.862-0.83752,19.292-1.2563,2.4858,6.9494-7.6775,5.5342-11.793,5.5892-11.874,0.0439-23.903,0.44974-35.482-2.6807-17.641-3.9825-34.342-13.042-46.092-26.959-10.624-11.579-18.457-25.7-30.657-35.791-1.5508-2.2168-10.862-3.5181-3.7315-3.4854,6.0833-0.22752,12.193-0.63278,18.273-0.33757-5.6004,0.25675-10.593,3.3647-14.357,7.375-7.8434-0.56478-15.687-1.1296-23.53-1.6944z" fill-rule="nonzero" class="ttt-move x" fill="#000"/>
  <path id="path3395" d="m195.47,214.38c-2.8285-0.19512-5.6628-0.29092-8.4966-0.37019,8.5738,0.12432,17.148,0.18776,25.723,0.25101-5.493,0.0211-11.131,1.3346-15.454,4.8864-5.1204,3.8845-8.996,9.155-12.689,14.354-3.9967,6.1715-7.7914,12.712-9.404,19.952-0.98039,2.9322,0.18998,7.4126,3.8241,7.5341,1.3899,0.20304,5.3971-0.0649,1.7649-0.22647-4.9072-0.37682-9.8237-0.61012-14.735-0.92692,9.7381-2.3534,18.8-7.431,25.945-14.445,4.0027-4.0216,7.5622-9.3214,7.1817-15.22-0.57763-5.4428-4.5576-10.75-9.9616-12.09-2.0583-0.22279-0.53374-0.3476,0.6526-0.48165,7.1052-0.90353,14.21-1.8071,21.316-2.7106,7.527,2.9342,12.235,11.782,10.612,19.671-1.1071,5.076-3.9494,9.6931-7.8341,13.135-7.1424,7.0015-15.937,12.316-25.484,15.311-10.058,0.31586-20.122,1.4088-30.184,0.97261-3.5387-0.4448-6.555-3.4608-6.439-7.1217-0.0166-7.0049,3.2701-13.495,6.664-19.441,3.9008-6.458,8.5989-12.396,13.284-18.288,3.8648-4.2394,8.9792-7.5064,14.777-8.1462,10.688-1.8602,21.582-0.90775,32.317-0.0376-7.7934,1.1461-15.587,2.2922-23.38,3.4383z" fill-rule="nonzero" class="ttt-move o" fill="#000"/>
  <path id="path3397" d="m219.33,174.55c-13.914,3.5924-26.339,11.652-37.064,21.014-10.266,10.742-18.309,23.776-23.067,37.871-3.5036,10.455-2.2516,21.696-1.0906,32.439,1.7568,7.9439,4.8494,16.796,12.178,21.219,2.2728,1.6545,8.2403,1.5295,9.1676,1.5311-3.6645-0.44753-13.106-0.40106-12.934-1.5008,17.674-5.2872,30.202-20.2,40.024-35.051,6.7669-10.541,11.282-22.484,13.908-34.7,1.6694-9.786,2.5887-21.483-4.6468-29.369-4.1373-4.6459-11.505-5.4841-16.226-5.1404,7.2854-1.0276,14.57-2.3042,21.856-3.1773,3.0813,0.43074,6.1626,0.86147,9.2438,1.2922,5.2579,3.1525,10.194,7.4344,11.604,13.698,3.368,13.604-0.78134,27.688-5.6066,40.413-4.9818,13.926-13.744,26.127-23.31,37.254-7.3557,8.0033-16.208,15.524-26.82,18.435-10.74,0.26911-21.523,1.6207-32.251,0.66909-9.8969-1.6514-14.576-12-16.77-20.715-2.1585-9.5161-1.7676-19.409-1.3714-29.091,2.0379-17.237,12.004-32.033,21.764-45.88,9.0629-10.16,21.401-16.581,33.372-22.665,2.9058-1.799,6.0912-1.9313,9.3008-1.1603,6.2468,0.87104,12.494,1.7421,18.74,2.6131z" fill-rule="nonzero" class="ttt-move o" fill="#000"/>
  <path id="path3399" d="m199.75,214.76c-4.3454,1.2914-7.8936,4.3774-10.302,8.1534-3.3556,5.2737-5.5792,11.177-7.7531,17.008-2.2215,6.8553-4.221,14.075-3.5684,21.344-0.0227,3.6085,5.1351,2.1369,5.9988,1.5031-5.8002-0.87133-11.808,0.74493-17.501-0.99369,1.6405-1.5471,5.51-1.2066,7.616-2.9493,6.7859-3.8381,12.506-9.4852,16.519-16.152,2.6709-5.4772-0.47461-11.932-5.1113-15.226-0.73762-1.0762-5.5744-2.2201-2.3487-2.2464,7.2169-0.74941,14.434-1.4988,21.651-2.2482,6.8556,3.8812,11.612,12.594,8.8269,20.371-1.6167,3.4385-4.2503,6.2846-6.6025,9.2362-6.1925,6.527-13.881,12.107-22.844,13.946-9.2342,2.0328-18.926,1.1442-27.945-1.4914-1.7923-2.4808-1.6525-5.6122-1.3107-8.5051,1.276-11.106,5.4984-21.589,9.9007-31.774,2.4109-4.9728,5.3604-10.418,10.816-12.522,1.2235-0.50527,2.6351,0.14205,3.9426,0.15213,6.6721,0.79795,13.344,1.5959,20.016,2.3938z" fill-rule="nonzero" class="ttt-move o" fill="#000"/>
  <path id="path3403" d="m136.63,279.88c8.92-9.4758,18.863-17.905,28.055-27.112,15.622-15.347,30.122-31.829,43.249-49.361,7.7844,0.59362,15.569,1.1872,23.353,1.7808-7.3787,7.2226-13.665,15.48-20.715,23.022-10.725,12.32-21.831,24.314-33.777,35.466-5.8732,5.7203-11.645,11.582-16.7,18.051-7.8216-0.61558-15.643-1.2312-23.465-1.8467zm8.9426-47.43c11.569-5.514,24.603-2.6601,36.88-2.4839,7.002,0.74228,12.755,5.3778,16.943,10.772,10.344,11.064,21.992,21.004,34.771,29.143,2.3968,2.3168,10.948,3.384,11.092,2.6495-6.8381-0.16631-13.679-0.16145-20.518-0.24638,2.1516-1.1148,4.6701,0.0555,6.9924,0.003,5.902,0.56947,11.804,1.1389,17.706,1.7084-2.4171,2.8301-6.828,0.82495-10.081,1.6408-6.3563,0.0633-12.757,0.87563-19.09,0.30297-8.7564-1.9897-15.265-8.7545-22.147-14.052-8.7482-6.9456-16.297-15.203-24.549-22.69-4.2204-3.797-9.8536-5.702-15.483-5.7948,8.4037-0.50274,17.12-1.344,25.354-1.4713-4.9344,0.75512-10.045,1.177-14.654,3.0994-7.7389-0.86032-15.478-1.7206-23.217-2.581z" fill-rule="nonzero" class="ttt-move x" fill="#000"/>
  <path id="path3407" d="m138.07,274.55c7.0946-15.881,19.348-28.535,31.2-40.948,16.892-18.493,33.975-36.986,53.356-52.921,1.672-0.81044,3.8217,0.30736,5.6778,0.23998,6.1261,0.72418,12.252,1.4484,18.378,2.1725-5.8042,2.1123-9.9933,7.172-14.827,10.901-15.578,13.709-30.098,28.604-44.061,43.943-9.4175,10.732-18.66,21.936-25.011,34.806-0.2094,3.6805-3.4594,2.5063-5.9946,2.519-6.2394-0.23753-12.479-0.47506-18.718-0.71259zm54.851-100.11c-0.16093,19.043,1.8206,38.069,5.9608,56.656,4.4366,19.913,9.2238,40.914,22.898,56.763,4.5857,2.3638-4.6463,0.56152-6.7905,0.82365-5.5624-0.20082-11.077-1.3414-16.59-1.6976,2.4292,2.9018,6.3726,1.6286,9.661,2.0858,5.524,0.19918,11.048,0.39835,16.572,0.59752,0.45924,8.4019-7.9238,2.3885-12.443,2.5231-6.1778-1.1117-13.857,1.1775-16.297-6.4745-9.1804-14.059-13.457-30.478-16.726-46.75-2.4726-12.924-6.0338-25.634-7.2637-38.771-1.0868-8.5599-1.9553-17.148-2.5632-25.756h23.582z" fill-rule="nonzero" class="ttt-move x" fill="#000"/>
  <path id="path3409" d="m190.86,209.26c-1.931-0.27903-5.3118-0.32574-6.46-0.82153,8.3274,0.0401,16.65,0.53083,24.968,0.88648-10.018,0.89509-19.551,5.7924-26.169,13.37-4.2081,4.7275-7.4418,10.401-9.2652,16.452-1.4352,5.5899-3.461,11.82-0.98272,17.407,2.2238,3.8315,6.8316,5.9122,11.193,5.2337,3.0619-0.24682-4.2826-0.12842-5.8856,0.0233-3.6307,1.2068-8.6276-4.3542-2.8048-5.0113,3.1974-0.62479,6.5804-1.0112,9.2058-3.1398,7.6987-5.1585,14.86-11.818,18.728-20.381,1.1371-3.3049,2.1758-6.7201,1.6466-10.254-0.20853-6.0307-4.5166-11.029-9.6456-13.766-1.1466-0.78379,2.0994-0.44881,2.9616-0.72099,6.3762-0.59371,12.752-1.1874,19.129-1.7811,5.1487,3.2793,9.4542,8.4804,9.9841,14.756,0.45004,3.5868,0.16467,7.211-1.0894,10.608-2.2347,7.4346-7.7182,13.363-13.281,18.544-4.8354,4.2607-10.178,8.0275-15.948,10.898-6.0335,1.8732-12.454,2.0342-18.716,2.5536-5.2229,0.25832-10.465,0.67488-15.671,0.90897-3.6538-0.29301-7.5846-1.0067-10.014-4.055-4.4351-4.669-3.9174-11.693-2.5062-17.482,1.5034-7.1278,4.1278-14.061,8.3174-20.065,6.4008-9.4766,16.794-16.092,28.14-17.672,9.1094-1.4898,18.381-0.76451,27.518,0.0505-7.7837,1.1534-15.567,2.3068-23.351,3.4602z" fill-rule="nonzero" class="ttt-move o" fill="#000"/>
  <path id="path3413" d="m184.28,190.76c-0.093,13.648,5.4113,26.485,10.207,39.012,6.5359,15.715,13.481,31.505,23.513,45.344,0.55637,2.7818,8.4983,4.5123,2.2543,3.8815-6.2046-0.0409-13.382-0.51487-18.971-0.59619,1.3952-1.3348,3.767-0.47549,5.74-0.57679,6.2859,0.27078,12.572,0.54156,18.858,0.81234-1.2192,5.7855-9.1868,3.2093-13.587,4.7986-5.8656,0.6431-12.973-0.12485-16.307-5.7075-8.5986-12.649-14.527-26.882-20.535-40.887-5.1141-13.399-12.007-26.338-14.31-40.625-1.3379-4.0029-0.51221-6.4357,3.6934-5.4558h19.445zm-50.878,59.232c13.52-9.1393,29.301-13.973,44.45-19.644,16.09-5.533,32.379-10.699,48.478-16.053,7.7254,0.97643,15.451,1.9529,23.176,2.9293-27.485,8.5287-55.361,16.31-81.554,28.399-4.8371,1.2326-8.338,6.972-13.413,6.3346-7.0459-0.65524-14.092-1.3105-21.138-1.9657z" fill-rule="nonzero" class="ttt-move x" fill="#000"/>
  <path id="path3417" d="m211.66,167.57c-4.6695,17.892-7.8222,36.154-10.824,54.387-3.1716,22.602-6.1303,45.288-7.273,68.094,0.0547,1.9849-4.3519,0.49579-6.2256,0.97903-5.7308,0.032-11.462,0.064-17.193,0.0959,4.172-25.245,7.2776-50.669,11.11-75.973,1.6341-16.144,3.9596-32.206,7.1005-48.128,7.768,0.1816,15.536,0.36321,23.304,0.54481zm-80.032,95.052c5.4261-9.087,11.849-18.057,20.562-24.261,12.759-8.0675,27.636-12.117,42.592-13.316,14.549-1.9645,29.358-3.4626,43.546-7.0326,7.6172,0.697,15.234,1.394,22.852,2.091-5.6856,3.8246-13.531,3.4214-20.163,4.9225-14.477,2.4214-29.24,3.1809-43.559,6.4748-9.228,2.4386-18.32,6.126-26.073,11.748-6.3838,5.9606-12.286,12.693-16.188,20.569-7.8565-0.39874-15.713-0.79749-23.569-1.1962z" fill-rule="nonzero" class="ttt-move x" fill="#000"/>
  <path id="path3419" d="m57.523,450.28c19.497-19.401,49.658-13.498,74.573-14.73,33.935,2.5596,67.724,7.0894,101.7,9.4609,55.38,5.2453,109.17,20.95,164.77,24.596,67.123,6.4326,134.59,9.0328,201.95,10.586,14.425,1.7556,7.6749-4.1718-3.0964-0.5222,21.023-1.8567,27.528-2.5868,47.559-2.7534-7.807-1.2295-15.614-2.459-23.421-3.6885,5.6789,0.67,33.261,0.86275,27.097-1.9513-2.7093,16.825-27.398,10.156-41.587,11.862-73.391-0.0791-146.78-3.9599-219.92-9.7545-42.376-4.066-84.533-9.836-126.2-18.65-47.384-8.397-95.61-9.8783-143.34-15.369-14.265-0.55458,24.951-0.22521,3.7492-0.11226-15.949-1.4207-31.332,6.1692-43.918,12.477-6.6413-0.48343-13.283-0.96689-19.924-1.4503z" fill-rule="nonzero" class="ttt-win-r1" fill="#000"/>
  <path id="path3421" d="M98.578,241.3c39.922-17.95,85.282-15.48,127.8-11.25,45.704,6.9988,89.404,24.259,135.78,27.484,74.63,9.1929,149.65,17.188,224.95,16.458,7.3481,2.7137-18.963-0.89653-2.224,0.0135,13.079,3.3572,32.459-6.245,33.394-14.975,11.949-6.8842,31.864,2.3921,15.38,13.573-25.349,8.8079-52.98,4.0681-79.326,4.9297-82.863-2.0135-165.61-9.7671-247.55-22.03-39.994-6.4966-78.241-21.657-118.94-23.954-14.758-1.5822,14.758-0.67764-5.3179-0.52245-24.207-1.581-46.967,10.413-69.959,11.654-4.6639-0.45985-9.3279-0.91966-13.992-1.3796z" fill-rule="nonzero" class="ttt-win-r0" fill="#000"/>
  <path id="path3423" d="M71.724,714.09c27.9-54.88,78.726-91.85,127.98-126.24,118.93-90.94,249.14-167.38,359.99-268.75,35.527-36.867,68.953-75.889,101.1-115.72,4.8988-19.393,30.122-27.575,38.019-19.912-13.366,0.32281-36.052-3.282-8.0564-7.5178,21.979,9.3494-19.126,34.873-25.249,49.997-40.643,44.566-76.762,94.069-125.61,130.24-16.018,12.316-38.662,30.932-58.349,46.494-88.377,65.73-181.14,125.47-267.93,193.36-39.209,26.897-77.483,56.286-104.75,95.845-7.087,18.437-17.426,26.997-36.78,22.219l-0.35647-0.0124z" fill-rule="nonzero" class="ttt-win-dllur" fill="#000"/>
  <path id="path3425" d="m184.05,170.22c31.026,50.626,50.757,107.13,79.089,159.26,37.1,77.911,76.776,155.53,132.15,222.3,34.978,44.941,82.359,79.019,135.24,99.875,31.959,13.963,64.967,26.454,95.126,43.917-15.05,10.59-38.736-6.5051-11.748-3.4708,26.289,1.6685-14.435,15.054-22.021-0.23773-65.19-32.97-140.11-53.84-190.32-110.14-47.94-52.95-85.63-114.23-121.16-175.91-35.63-69.99-70.25-140.5-105.22-210.79-8.0971-12.719-22.419-28.246,0.79007-24.431,2.6896-0.12479,5.3791-0.24958,8.0687-0.37437z" fill-rule="nonzero" class="ttt-win-dullr" fill="#000"/>
  <path id="path3661" d="m318.3,715.76c-0.50988-2.6294-1.7115-8.5289-1.897-10.926-0.24044-3.1076-0.12281-6.2327-0.22805-9.3478-0.10986-3.2517-0.49385-4.8261,0.40845-7.765-0.006-0.92118-0.0733-1.8441-0.0166-2.7636,1.7246-27.928-0.17258,16.875,0.0896-18.995,0.0315-4.3117,0.6482-8.6024,0.7673-12.913,0.70657-25.572-0.87634-1.245,0.48976-19.839,0.14567-1.601,0.39913-3.1959,0.43702-4.8031,0.0201-0.85069-0.27104-1.6882-0.26391-2.5391,0.0104-1.2369,0.21688-2.4645,0.31615-3.6974,0.11742-1.4584,0.22261-2.9177,0.33391-4.3766,0.367-2.8284,0.82592-5.6464,1.101-8.4852,0.39488-4.0755,0.60539-8.1668,0.90809-12.25,2.8468-21.695,3.1321-21.981,4.8972-41.111,0.20299-2.2001,0.22193-4.4159,0.46417-6.612,0.71063-6.4424,0.10076,1.0635,1.5282-4.1932,0.39691-1.4617,0.4697-2.9926,0.70455-4.4889,3.791-10.654,4.2884-22.115,6.5745-33.093,1.2638-6.0686,3.1379-11.996,4.5215-18.039,3.2979-14.403,3.1562-14.741,5.0062-27.15,0.25547-1.57,1.1226-8.1982,2.0756-10.423,0.73616-1.7182,1.9745-3.1874,2.7405-4.8925,2.35-5.2313,4.5546-12.846,6.1755-18.105,1.4443-4.6859,2.8581-9.381,4.2872-14.072,2.8802-7.7066,5.9469-15.346,8.6407-23.12,12.459-35.953-3.1161,6.0566,5.5506-18.238,6.1783-17.319,4.3839-6.6592,12.9-37.703,2.1866-7.9712,3.3147-16.196,4.9721-24.294,1.0054-5.4854,2.3338-10.921,3.016-16.456,0.48798-3.959-0.48859-8.2366-0.80656-12.164-0.79407-9.8082-0.68266-19.522-0.50433-29.35-0.23441-18.09,0.60954-20.463-3.1524-38.328-0.41579-1.9746-4.0909-4.6446-2.311-5.5951,3.2338-1.727,7.3602,0.25714,10.955,0.97907,0.40904,0.0822-0.18101,1.1658-0.59331,1.1021-4.6303-0.71618-9.1076-2.2046-13.661-3.3069-2.7252-11.985-4.5235-24.184-8.8164-35.767-1.2252-3.3058-2.9847-6.3886-4.4353-9.6019-2.5309-5.6062-0.70516-2.9428-3.7263-6.6451-0.3697-1.3549-1.2015-2.5695-1.4798-3.9467-0.35552-1.7598-0.28288-3.5827-0.55336-5.3576-0.25465-1.671-0.58184-3.3348-1.0201-4.9673-1.5703-5.8496-1.092-1.5227-1.3708-4.9501,13.729,0.51471,12.166-2.2013,12.25,5.4017,0,0-11.804,0.0348-11.804,0.0348,0.12871-0.76489,0.3812-1.519,0.38612-2.2947,0.0354-5.5745-7.89-0.69858,10.647-3.3587,0.31114,1.6687,0.85475,3.2953,1.0646,4.9797,0.20403,1.6373-0.0114,3.3157,0.26102,4.943,0.54525,3.2576,1.7136,6.0295,3.2212,8.8926,1.9908,3.2785,1.6308,2.3788,3.22,6.8695,5.0209,14.188,1.8681,6.0976,6.9314,22.599,1.4733,4.8016,3.2685,9.5025,4.6757,14.324,0.80648,2.7632,1.3064,5.6068,1.9595,8.4102-3.2111,1.0992-6.2676,2.8602-9.6333,3.2976-0.72362,0.094-0.16744-2.0093,0.55414-2.1178,4.065-0.61137,8.6174-1.583,12.331,0.17994,1.7382,0.82519-0.0974,3.8678,0.19954,5.7688,5.037,32.246,3.4848,6.1723,4.0424,38.46,0.10162,3.6557,0.22197,7.3109,0.30487,10.967,0.0674,2.9724-0.0239,5.9501,0.14599,8.9184,0.17843,3.1173,0.54165,6.222,0.89815,9.324,0.21971,1.9118,0.95881,3.793,0.82999,5.7131-0.5347,7.9695-7.1722,14.991-5.8225,23.244-1.9979,8.0952-4.11,16.163-5.9938,24.286-2.3065,9.9453-4.268,19.968-6.5758,29.913-0.62337,2.6862-1.2352,5.3932-2.2156,7.9706-2.3948,6.2961-7.0448,11.602-8.9351,18.126-2.839,7.5724-4.9194,15.408-7.3792,23.112-2.1529,10.088-2.9908,15.159-5.802,24.607-0.77913,2.6186-1.6525,5.212-2.6401,7.7593-1.2625,3.2562-2.7712,5.2778-3.6748,8.5842-0.5866,2.1464-0.91853,4.3543-1.3778,6.5315-2.9784,9.7067-5.2701,16.625-7.479,27.066-1.06,5.0105-4.7879,29.002-5.5366,34.619-0.46624,3.4981-0.64347,7.0307-1.1127,10.528-0.27497,2.0498-0.74556,4.0685-1.1183,6.1027-0.29625,1.3456-0.75341,4.7721-1.7673,6.4279-0.47037,0.76816-1.3476,1.2936-1.645,2.1438-0.73723,2.1079-1.0126,4.3523-1.3964,6.5522-3.7457,21.467-2.5739,15.559-3.953,41.096-2.2031,27.863-0.41542-0.78199-0.64327,20.733-0.0526,4.9639-0.52856,3.6375-1.4561,8.117-0.38997,1.8833-0.38251,5.7795-0.42756,7.2333-2.5294,12.816-1.1909,3.2774-1.3822,19.838-0.0496,4.2957-0.40663,8.585-0.42347,12.881-0.0288,7.34,0.78619,14.596,0.84764,21.918-0.22019,0.97543-0.56772,2.3715-0.62172,3.3329-0.21813,3.8836,0.20769,10.337,0.39764,13.48,0.1234,2.0419,0.0946,4.1101,0.4887,6.1174,0.31969,1.6281,1.0904,3.1342,1.6356,4.7013,0,0-11.5,0.25151-11.5,0.25151z" fill-rule="nonzero" class="ttt-win-c1" fill="#000"/>
  <path id="path3663" d="m515.17,702.86c-1.7016-4.3216-2.4703-5.6596-3.2793-10.393-0.74159-4.3395-1.2066-16.051-1.3191-18.737-0.41905-10.007-0.37135-13.281-0.46381-23.179,0.12264-4.0144,0.24527-8.0289,0.3679-12.043-0.34047-5.1816-1.0466-10.352-1.0214-15.545,0.0276-5.6917,0.86171-11.352,1.1794-17.035,0.21693-3.8811,0.17339-7.7746,0.42416-11.654,0.45511-7.0402,0.82786-8.5446,1.8525-14.723,2.2801-14.512,4.2349-29.078,6.6288-43.572,0.77442-4.6888,1.7688-9.3398,2.5329-14.03,3.9996-24.552-0.69562-0.96793,4.9694-27.482,0.81204-3.6386,1.6241-7.2773,2.4361-10.916,0.32569-3.313,0.2775-6.6845,0.97705-9.9392,0.79553-3.7012,2.6571-7.1154,3.4828-10.81,0.86422-3.8674,0.97026-7.867,1.5664-11.785,1.756-11.541,3.8287-23.032,5.7377-34.548,4.102-18.751,5.9127-25.768,8.9564-44.593,0.72226-4.4672,0.94129-9.0085,1.7207-13.466,0.68105-3.8949,1.9001-7.6798,2.6554-11.561,0.87377-4.4898,1.2619-9.0693,2.2295-13.54,1.8818-8.6948,4.2088-17.287,6.3131-25.931,2.443-5.8509,0.39114-12.313,1.6035-18.323,0.16645-0.82511,0.8315-1.4704,1.1367-2.2549,0.9811-2.5216,2.113-5.0116,2.7167-7.6491,1.0992-4.8019,1.582-9.7243,2.373-14.586,1.644-6.8607,3.2881-13.721,4.9321-20.582,3.6269-12.577,3.9642-25.703,6.3552-38.482,3.0404-16.25,2.2859-2.9622,4.6886-19.11,0.11703-0.78645-0.2152-1.5756-0.32281-2.3634,0.39223-1.3019,0.78446-2.6039,1.1767-3.9058,3.4957-10.671,6.659-21.469,9.3058-32.384,0.54013-2.2274,1.2555-4.4419,1.4178-6.7281,0.0571-0.80518-1.5814-2.2195-0.77756-2.2934,3.6883-0.33897,7.3528,0.90079,11.029,1.3512-0.28067,0.55214-0.56134,1.1043-0.842,1.6564,0.11443,0.41907,0.47309,0.84263,0.3433,1.2572-0.11731,0.37468-0.65858,0.43234-0.95342,0.6916-0.15733,0.13835-0.26127,0.3276-0.3919,0.4914,0,0-11.736-1.5804-11.736-1.5804,1.6004,0.37736,1.0514,0.27686,1.3683-1.2858,0.13125-0.64721,0.33108-1.2786,0.49661-1.9179,4.0764-0.20695,8.1966-1.2518,12.229-0.62086,0.82456,0.129-0.15931,1.6683-0.36577,2.4769-0.57987,2.2712-1.4625,4.4609-1.9887,6.7451-10.392,45.113,7.8674-28.673-5.5046,24.569-0.65455,2.6337-1.2869,5.273-1.9303,7.9094-0.44426,1.2947-0.87185,2.5952-1.3328,3.884-0.27374,0.76543-0.65443,1.4944-0.87095,2.2779-3.2516,11.767-1.6848,7.1602-4.2239,19.079-8.889,41.723,1.1829-8.4682-8.057,38.461-1.1809,6.8734-2.3701,13.745-3.5427,20.62-0.83102,4.8721-1.6217,9.7511-2.4681,14.621-0.45577,2.6219-0.65606,5.3095-1.4385,7.8531-0.25364,0.8246-1.3061,1.2223-1.6023,2.0326-2.153,5.8902-0.29147,12.927-4.5707,18.25-9.4542,55.047-0.46072,4.5057-7.2807,39.521-0.74798,3.8403-1.2129,7.7359-2.0691,11.553-4.9457,22.053-3.4056,6.6144-7.9563,35.39-1.1865,7.5027-1.7531,15.09-2.6297,22.636-1.2333,6.2233-2.6279,12.417-3.6998,18.67-3.9139,22.833-0.68471,8.34-3.7634,27.692-2.821,17.732-1.0477,3.9463-4.5715,20.771-0.75566,3.608-1.2372,7.268-1.8558,10.902-1.0756,4.8549-2.1513,9.7099-3.2269,14.565-0.77639,4.2912-1.4062,8.6116-2.3292,12.874-1.0182,4.7018-2.7277,9.254-3.491,14.004-2.3241,14.462-1.3009,29.363-4.9292,43.633-1.1889,8.746-2.9666,17.363-3.4261,26.207-0.29395,5.6578-0.36413,11.328-0.31908,16.993,0.0732,9.2052,1.0368,18.393,0.69629,27.608,0.84764,15.207,0.66936,7.5015,0.4963,23.116,0.22597,4.0965,1.0912,8.1352,1.4594,12.221,0.18676,2.0722-0.1999,4.1976,0.20429,6.2385,0.7068,3.5691,3.1573,6.6314,3.8855,10.2,0,0-11.394,0.52865-11.394,0.52865z" fill-rule="nonzero" class="ttt-win-c2" fill="#000"/>
  <path id="path3667" d="m152.09,692.24c0.75437-4.049-0.0629-8.1688,0.32797-12.227,0.31437-3.2639,1.1588-6.4597,1.5218-9.7185,0.15319-1.3752-0.0538-2.7696,0.0231-4.1512,0.0539-0.96821,0.27174-1.9208,0.36851-2.8857,0.2242-2.2354,0.39617-4.4758,0.59426-6.7137,1.834-14.701,2.0448-13.432,2.4793-27.393,0.11565-3.716-0.16124-7.4446,0.10455-11.153,0.43848-6.1177,1.509-12.177,2.0058-18.291,4.2812-52.684-3.3095,23.896,2.3403-30.951,0.56474-6.0295,1.9191-19.08,2.1852-26.073,0.0952-2.5022-0.13902-5.0105-0.0284-7.5121,0.11856-2.681,1.246-9.3627,1.5627-11.677,0.30672-2.2417,0.5597-4.4904,0.83955-6.7356,0.22964-2.877,0.26769-5.7758,0.68893-8.6312,0.39915-2.7055,1.2396-5.3284,1.7664-8.012,0.78524-3.9995,1.4461-8.0224,2.1692-12.034,1.3998-6.36,2.8657-12.706,4.1995-19.08,10.893-52.055-4.2912,16.134,13-59.728,1.1159-7.1788,2.5404-14.316,3.3476-21.536,0.3005-2.6878-0.0273-5.4089-0.0327-8.1134-0.00034-0.1726-0.0112,0.68767,0.0177,0.5175,0.30106-1.7759,0.53372-3.5627,0.80058-5.344,1.1316-5.2627,2.4178-10.495,3.3948-15.788,1.3551-7.3425,2.3994-14.739,3.5991-22.108,1.0346-11.149,3.3574-22.179,3.9851-33.373,0.17918-3.1953-0.0348-6.4074,0.20216-9.5989,0.40706-5.4838,1.0073-10.951,1.511-16.427,0.20479-6.9379,0.40958-13.876,0.61437-20.814,0.019-4.9926-0.0725-9.9868,0.0571-14.978,0.41837-16.118,1.6212-18.064,0.0712-34.084-0.11679-1.2072-2.4311-3.1227-1.2542-3.4154,3.6646-0.91137,7.5275,0.61282,11.291,0.91924-4.3126-1.8364-9.8205-2.0088-12.938-5.5094-2.2862-2.5672-0.64603-6.8464-1.0998-10.254-0.5512-4.1391-1.3266-8.2458-1.9143-12.38-0.5869-4.1282-0.81358-8.3121-1.6094-12.405-1.118-5.7504-2.2903-8.4829-4.1201-13.302-5.0947-2.7891,13.368-2.7855,10.923-0.0876-5.4324,5.9942-11.338,3.6932-13.596-0.49094-0.81325-1.5067-0.72736-1.0461-0.30556-2.3587,12.354,0.0762,8.9983-2.7428,13.063,1.499,0,0-11.786,0.75268-11.786,0.75268-3.0278-4.4537-1.4362-1.2752,10.376-2.4611-0.76519,1.0159-0.6275,0.40607,0.6125,1.523,0.15641,0.14089,0.64558,0.43387,0.4363,0.4566-3.6994,0.40169-14.762,1.563-11.141,0.70576,11.391-2.6965,9.9356-4.0624,12.952,0.17646,0.52421,4.3336,1.0849,9.3465,1.9478,13.419,0.88503,4.177,2.4207,8.208,3.162,12.413,0.72043,4.0862,0.6861,8.2726,1.2107,12.388,0.43577,3.4191,3.319,7.1785,1.6689,10.205-1.7608,3.229-6.5967,3.254-9.8951,4.881,3.8776-0.0888,7.8957-1.305,11.633-0.26647,1.1539,0.32067,0.26369,2.3836,0.29379,3.5808,0.14137,5.6222,0.12929,11.247,0.22045,16.87,0.0932,5.7496,0.45736,11.499,0.33261,17.248-0.25932,11.951-2.5766,23.811-1.8213,35.814,0.14822,5.4722,0.25973,10.945,0.44466,16.417,0.0527,1.5596,0.35155,3.1156,0.26823,4.6739-0.0892,1.6689-0.53999,3.2988-0.78294,4.9524-0.26389,1.796-0.40189,3.6117-0.73749,5.3957-5.9629,31.697,1.8962-15.486-5.0836,28.063-1.0696,7.3755-2.2158,14.74-3.2088,22.126-0.7062,5.2532-1.3144,10.52-1.8882,15.789-0.14845,1.3632,0.005,2.7628-0.27802,4.1044-0.0731,0.34611-0.637,0.41686-0.74814,0.7527-3.2045,9.6834-3.8416,20.137-7.8524,29.575-17.16,108.99,2.3864-11.374-10.444,59.77-1.143,6.338-1.9285,12.735-2.9102,19.1-0.61765,4.0043-1.3748,7.9884-1.888,12.007-0.33956,2.6592-0.22739,5.3703-0.6687,8.0145-0.48494,2.9057-1.401,5.7227-2.1015,8.5841-0.15507,10.18,0.12196,3.2768-0.70546,13.282-0.14118,1.7072-0.0889,3.4351-0.36242,5.1261-0.40854,2.5259-1.2704,4.9645-1.6782,7.4905-0.70697,4.3786-2.5272,23.966-2.7324,26.064-1.0224,43.735,0.59684-11.259-1.6797,30.929-0.32894,6.0957-0.11625,12.214-0.49271,18.307-0.23088,3.7369-0.98303,7.4252-1.3275,11.153-1.0097,10.928-0.97442,16.14-1.3121,27.411-0.10746,2.2473-0.0212,4.5123-0.32239,6.7419-0.32266,2.3888-2.3349,4.3915-1.8147,7.0001-0.63451,7.2937-0.30131,14.67-0.75897,21.975,0,0-11.293-0.11255-11.293-0.11255z" fill-rule="nonzero" class="ttt-win-c0" fill="#000"/>
  <path id="path3421-2" d="m90.09,618.58c33.942-16.009,73.005-14.883,109.65-13.181,48.792,3.1734,94.308,23.516,142.92,28.05,78.284,9.7514,156.97,18.588,235.96,17.822,11.921,2.5395-22.272-0.53698-2.224,0.0135,12.51,2.6628,39.124-7.2947,30.587-14.726,7.445-0.43724,15.239-2.9247,22.468-2.0916,11.324,20.379-27.032,20.382-40.389,20.585-83.845,0.83689-167.55-6.1483-250.68-16.62-39.191-3.6848-77.381-13.192-115.32-23.253-12.833-3.7551-49.787-6.5717-49.548-7.2307,12.003-0.0503,12.293-0.003,0.5185,0.35728-20.955,0.9647-42.447,4.0492-61.564,12.481-7.4623-0.73579-14.925-1.4715-22.387-2.2073z" fill-rule="nonzero" class="ttt-win-r2" fill="#000"/>
 </g>
</svg>