<?xml version="1.0" encoding="UTF-8" standalone="no"?>
<!-- Created with Inkscape (http://www.inkscape.org/) -->

<svg
   xmlns:svg="http://www.w3.org/2000/svg"
   xmlns="http://www.w3.org/2000/svg"
   version="1.1"
   width="100%"
   height="100%"
   viewBox="0 0 630 630"
   id="ttt">
  <defs
     id="tttdefs" />
  <g
     transform="translate(-10.525884,-177.79531)"
     id="tttg">
    <path
       d="m 221.42985,213.32727 c -1.21903,0.004 -1.15263,1.0217 -1.0625,4.34375 0.2738,2.6978 0.92368,5.3111 1.78125,7.875 l 2.34375,-0.0937 c 2.85835,5.74519 5.90389,11.36621 9.28125,16.8125 9.518,14.868 16.9809,30.95125 22,47.90625 2.6753,11.621 3.69775,14.29875 4.84375,26.34375 1.72169,18.09685 0.90388,36.29687 -0.375,54.4375 -0.0534,-0.0163 -0.1028,-0.0462 -0.15625,-0.0625 -28.842,-8.7906 -7.5115,-2.56255 -33.0625,-10.40625 -4.7743,-1.4656 -9.55745,-2.8247 -14.34375,-4.25 -10.233,-2.6642 -18.957,-5.1304 -29.375,-7.0625 -18.142,-3.36483 -24.953,-2.59323 -47.125,-2.4375 -3.5931,0.0252 -7.21255,0.30033 -10.78125,0.71875 -3.2833,0.3849 -6.4913,1.13196 -9.75,1.6875 -3.2503,0.8562 -6.5334,1.5877 -9.75,2.5625 -15.187999,4.602 -29.965249,11.39085 -42.656249,20.96875 -6.1943,5.165 -12.29085,10.5161 -16.03125,17.8125 l 23.59375,1 c 3.385,-6.9186 9.33165,-11.95495 15.09375,-16.84375 12.312,-9.541 26.864249,-15.92885 41.781249,-20.21875 3.2097,-0.9231 6.47685,-1.60367 9.71875,-2.40625 6.37506,-0.95443 8.81586,-1.29975 9.6875,-1.4375 -0.55838,0.13845 -0.66885,0.30004 1.90625,0.15625 4.0939,1.63987 8.92016,0.73855 13.3125,1.46875 11.437,1.9014 18.337,3.91965 29.5,6.78125 22.65475,6.62921 45.16605,13.75584 67.8125,20.40625 -0.34012,4.47231 -0.67148,8.95049 -1,13.40625 -1.1471,8.806 -2.1076,17.6568 -3.4375,26.4375 -2.3714,15.657 -4.9548,27.12425 -8.375,42.53125 -0.7536,3.394 -8.62985,37.73125 -9.3125,40.65625 -1.8336,7.856 -3.7053,15.7117 -5.5625,23.5625 -6.373,26.215 -13.1264,52.317 -19.625,78.5 -0.31408,1.26553 -0.64986,2.58917 -0.96875,3.875 -1.73362,-1.05207 -3.45792,-2.09961 -5.1875,-3.15625 -12.697,-7.757 -24.81025,-16.4086 -37.53125,-24.125 -8.728,-4.7404 -10.467,-6.1553 -19.5625,-9.4375 -3.1548,-1.1384 -6.289,-2.59161 -9.625,-2.9375 -2.026,-0.21007 -29.9345,-1.75444 -39.937499,-1.125 -3.2672,0.20562 -6.4951,0.71231 -9.75,1.0625 -3.2912,0.7107 -6.6393,1.19373 -9.875,2.125 -8.075,2.3237 -15.8785,6.4197 -22.8125,11.125 -1.6584,1.1254 -4.3407,3.56115 -6,5.03125 l 23.53125,1.875 c 1.6882,-1.678 3.4325,-3.5038 5.375,-4.875 6.559,-4.6301 14.1003,-8.3842 21.874999,-10.4375 3.1701,-0.8372 6.4664,-1.23133 9.6875,-1.84375 -3.04133,0.28087 1.6477,-0.19115 7.0625,-0.625 -0.39704,0.21161 -0.73633,0.50854 -1.0625,0.875 -2.2403,2.5165 6.548,1.54635 9.75,2.59375 8.386,2.7429 11.7808,4.8638 19.8125,8.9375 13.095,7.494 25.52525,16.0275 38.40625,23.875 8.86256,5.39929 14.67296,9.01778 22.96875,12.75 -2.4403,10.0193 -4.82838,20.23626 -6.8125,29.9375 -1.2173,5.952 -2.18865,11.9613 -3.28125,17.9375 -1.2305,8.904 -3.2931,23.31125 -4.3125,32.28125 -1.4943,13.149 -2.25145,26.37825 -3.71875,39.53125 -0.189,7.271 0.30295,14.5566 1.40625,21.75 l 23.5625,-0.625 c -1.77165,-6.861 -1.8846,-14.04535 -1.9375,-21.09375 0.7429,-18.461 1.4306,-36.9455 3.5625,-55.3125 0.6305,-5.432 1.45964,-10.8304 2.1875,-16.25 2.14998,-13.87537 4.75016,-27.66563 7.59375,-41.40625 1.97848,0.62085 3.97199,1.2498 5.9375,1.90625 6.039,1.5106 11.98055,3.35635 18.09375,4.53125 14.184,2.7262 28.96,3.8568 43.375,3.96875 14.789,0.11484 29.593,-0.11095 44.375,-0.59375 15.14974,-0.49481 28.57539,-1.97432 43.21875,-3.53125 -0.36103,4.47871 -0.71261,8.95499 -1.03125,13.4375 -0.80803,11.366 -1.42065,18.829 -1.40625,30.125 0.006,4.5371 0.27465,9.05885 0.40625,13.59375 1.6558,18.426 4.2687,36.88425 9.0625,54.78125 0.9796,3.17 1.90875,6.3597 3.15625,9.4375 1.099,8.6212 24.1575,6.82865 23.875,-1.84375 -0.0225,0.1672 -0.042,0.33756 -0.0937,0.53125 -0.16802,-0.15918 -0.34975,-0.33323 -0.5,-0.53125 l -8.8125,0.0312 c 3.14987,-1.05535 6.0886,-1.9883 7.8125,-1.875 -0.93884,-2.15791 -1.55636,-4.87521 -2.5,-6.40625 -5.972,-17.468 -9.0898,-35.8325 -10.6875,-54.1875 -0.18496,-4.4983 -0.492,-8.9984 -0.5625,-13.5 -0.13852,-8.847 0.2659,-21.30025 0.65625,-30.03125 0.23874,-5.33967 0.53367,-10.66374 0.84375,-16 23.25381,-3.06553 46.39538,-6.96549 69.3125,-11.96875 16.851,-3.6794 26.092,-6.13555 42.875,-10.34375 27.818,-7.224 55.4555,-15.08795 82.5625,-24.65625 4.2558,-1.6806 10.6532,-3.88435 12.8125,-8.46875 0.0392,-0.14619 0.0748,-0.29163 0.0937,-0.4375 1.87594,0.004 3.7491,-0.009 5.625,0 1.75595,0.3617 1.6609,-3.73245 -0.3125,-3.71875 l -5.875,0.9375 c -0.0444,-0.16244 -0.0371,-0.33089 -0.0625,-0.5 -7.00212,0.60252 -12.00179,1.069 -16.15625,1.46875 0.0194,-0.15172 0.0326,-0.28835 0.0312,-0.4375 -1.17448,0.22556 -2.37737,0.47994 -3.65625,0.78125 -12.20488,1.24123 -9.13972,1.40654 -4,1.4375 -2.79613,3.13891 -7.1067,4.58121 -10.84375,6.1875 -26.021,9.939 -52.7375,17.8106 -79.6875,24.8125 -7.231,1.7912 -14.46815,3.6648 -21.71875,5.375 -23.37268,5.51341 -46.93017,10.16014 -70.65625,13.875 0.83967,-13.33192 1.89295,-26.64574 3.21875,-39.9375 0.8946,-8.16 1.6821,-16.3526 2.6875,-24.5 4.424,-35.853 11.0765,-71.3635 18.5625,-106.6875 4.12518,-19.16747 8.40662,-38.31608 13.03125,-57.375 8.76302,-0.79851 17.49689,-1.88075 26.1875,-3.375 14.675,-2.5231 20.90625,-4.4053 35.15625,-8.0625 16.922,-4.714 33.3965,-11.0787 48.5625,-20 6.3405,-3.7297 7.60035,-4.87985 13.21875,-9.03125 5.8351,-4.725 10.90195,-10.3975 14.71875,-16.875 0.82672,-1.2639 1.0036,-2.3691 0.875,-3.8125 l -23.78125,2.09375 c -0.005,-1.97817 0.0234,-0.48384 -0.625,0.5 -3.355,6.2386 -8.1391,11.5466 -13.625,16 -5.4054,4.092 -6.45035,5.08985 -12.59375,8.78125 -14.676,8.818 -30.71625,14.9768 -47.15625,19.625 -14.711,3.7579 -19.658,5.3365 -34.875,7.875 -2.08315,0.3475 -3.04952,0.50686 -4.71875,0.78125 4.31498,-17.49682 8.93583,-34.90739 14.0625,-52.1875 6.336,-20.32 12.14025,-40.78725 18.71875,-61.03125 2.6835,-8.127 5.28145,-16.34305 8.65625,-24.21875 1.6815,-3.9237 3.84585,-8.7145 6.28125,-12.4375 0.596,-0.9112 1.36077,-1.73575 2.03125,-2.59375 l -23.53125,-1.53125 c -3.3465,4.731 -4.92655,10.3453 -6.96875,15.6875 -1.0214,2.6721 -2.16282,5.28615 -3.15625,7.96875 -1.2983,3.506 -4.3615,12.81095 -5.5625,16.40625 -6.638,20.147 -12.03655,40.64425 -17.40625,61.15625 -4.51886,18.193 -9.18965,36.36363 -13.6875,54.5625 -2.88643,0.33997 -6.78995,0.85806 -12.125,1.59375 -0.32671,0.0451 0.29819,0.95255 -0.0312,0.96875 -6.215,0.30541 -12.4652,-0.0389 -18.6875,-0.0625 -5.742,-0.33974 -11.48395,-0.58403 -17.21875,-1.03125 -22.943,-1.789 -45.74775,-5.4555 -68.09375,-10.9375 -8.45571,-2.19097 -16.87866,-4.4807 -25.28125,-6.84375 0.85516,-8.48879 1.42482,-14.76766 2.1875,-27.96875 0.60941,-10.549 1.133,-21.4815 0.375,-32.0625 -0.8349,-11.654 -2.07595,-15.45875 -4.53125,-26.71875 -4.83,-17.028 -11.7264,-33.34225 -20.5625,-48.65625 -4.5034,-6.968 -8.24915,-14.40255 -11.34375,-22.09375 -0.17321,-0.463 -0.36274,-0.91027 -0.53125,-1.375 -0.0881,-0.2431 -0.37355,-1.15178 -0.46875,-1.5 -0.034,-0.1241 0.0349,-0.378 -0.0937,-0.375 -0.0111,3e-4 -0.0202,-2.9e-4 -0.0312,0 0.0514,-3.5491 -1.0101,-1.71075 -8.78125,-0.15625 -8.5907,-0.57091 -12.33412,-2.22323 -13.90625,-2.21875 z m 371.40625,359.1875 c 6.82679,-1.3111 12.14603,-1.45046 18.9375,-1.46875 7.13627,0.003 -12.7123,0.0407 -19.625,0.0312 0.46201,0.16885 0.68124,0.76238 0.6875,1.4375 z m -0.6875,-1.4375 c -0.13344,-0.0488 -0.29462,-0.0647 -0.46875,-0.0312 -3.10044,0.0188 -2.08925,0.0278 0.46875,0.0312 z m -177.96875,179.6875 c 0.29871,0.68658 0.61323,1.33401 1,1.84375 l 0.59375,0 c 0.16726,-1.24316 -0.45299,-1.76877 -1.59375,-1.84375 z m -135.875,-366.0625 c 1.62711,0.45306 3.24565,0.92953 4.875,1.375 22.471,5.7578 45.5635,9.38805 68.6875,11.21875 5.834,0.46184 11.6585,0.71019 17.5,1.0625 16.61014,0.19637 33.28789,0.24045 49.90625,-0.5 -1.42168,5.80267 -2.82015,11.62153 -4.1875,17.4375 -1.4762,6.279 -7.11545,31.5391 -8.59375,38.125 -1.2754,6.278 -2.59925,12.55915 -3.84375,18.84375 -2.0984,10.596 -5.63825,28.87275 -7.28125,39.46875 -3.7602,24.25 -6.25465,48.72475 -9.09375,73.09375 -1.54235,14.34935 -2.91668,28.71417 -4.125,43.09375 -4.50467,0.59833 -9.01714,1.16137 -13.53125,1.6875 -38.458,3.91204 -9.954,1.3295 -49,4.0625 -2.0542,0.14378 -4.09725,0.5941 -6.15625,0.5625 -20.498,-0.3147 -40.93925,-2.15515 -60.65625,-8.09375 -11.99321,-3.95902 -16.42178,-5.0073 -24.15625,-8.5625 6.60422,-30.55884 14.46927,-60.85127 22.21875,-91.125 6.999,-28.317 14.87365,-56.438 20.28125,-85.125 1.3631,-7.231 2.76914,-14.4532 3.71875,-21.75 1.1473,-8.816 1.70417,-17.714 2.5625,-26.5625 0.33616,-3.35166 0.60772,-5.71484 0.875,-8.3125 z M 129.0861,570.38977 c 2.03413,-0.038 2.89505,0.10032 1.375,0.53125 -2.04571,0.57986 -4.52311,0.0594 -6.84375,-0.25 2.09684,-0.13913 4.08291,-0.25538 5.46875,-0.28125 z m 456.3125,3.40625 c 0.0755,0.0451 0.26273,0.21138 0.34375,0.25 -0.0409,0.0539 -0.0833,0.10327 -0.125,0.15625 -0.12926,0.0349 -0.24447,0.058 -0.375,0.0937 -0.0103,-0.17664 -0.0898,-0.505 0.15625,-0.5 z"
       id="ttt-board" />
    <path
       d="m 304.13659,645.51945 c -2.82001,-0.0578 -3.7065,1.57925 -9.125,7.15625 -4.38822,4.44866 -8.78326,8.87926 -13.15625,13.34375 -0.47399,-0.63011 -0.92886,-1.28229 -1.40625,-1.90625 -3.1822,-3.9081 -4.76695,-6.31635 -8.46875,-9.46875 -9.654,-8.2209 -21.22775,-7.3422 -34.21875,-4 -4.6143,1.8096 -8.5251,4.7234 -11.9375,8.3125 l 23.53125,1.6875 c 0.65524,-0.64855 1.32001,-1.23418 1.96875,-1.8125 2.39182,2.09867 4.50285,4.51127 6.6875,6.875 3.76144,4.42445 7.32306,9.09987 10.90625,13.75 -2.5915,2.72929 -5.20009,5.44995 -7.75,8.21875 -7.583,8.77602 -15.2453,17.51672 -20.6875,27.84372 l 23.5,1.0938 c 4.11775,-8.6565 9.9694,-16.1781 16.09375,-23.46877 3.97783,4.43377 8.2345,8.58387 13.0625,12.15627 3.0384,2.2482 6.422,3.9932 9.625,6 8.706,4.5878 18.03255,7.6222 27.65625,9.5312 2.0164,0.3999 9.348,1.5424 11.875,1.5938 8.868,0.1804 17.72325,0.056 26.59375,0.094 1.6987,-0.3614 4.958,-0.9077 4.9375,-3.4063 -0.006,-0.7534 -0.41527,-1.4638 -0.625,-2.1875 l -18.375,1.2188 c -0.78989,-0.1045 -1.5888,-0.2152 -2.375,-0.3438 -9.739,-1.5925 -19.1929,-4.3194 -28.0625,-8.7187 -3.1775,-1.8928 -6.51695,-3.5131 -9.53125,-5.6563 -9.00564,-6.4033 -16.12828,-14.85488 -22.78125,-23.65622 8.28729,-8.71425 16.98372,-17.0485 25.75,-25.28125 4.45256,-4.16758 1.2508,-1.2694 4.9375,-4.4375 0.42917,-0.36884 0.79842,-0.82982 1.28125,-1.125 0.10017,-0.0612 0.35201,-0.0893 0.53125,-0.0937 -7.82392,-0.11984 -15.64493,-0.19095 -23.46875,-0.28125 l 23.6875,-0.0312 c -13.09445,-1.2121 -17.83624,-2.94222 -20.65625,-3 z"
       id="ttt:x3" />
    <path
       d="m 193.44437,261.16672 c -2.30521,-0.44613 2.64537,-0.22159 3.23494,-0.23437 3.10837,0.2239 6.60268,-0.31662 9.4623,0.33032 -10.44801,2.06206 -18.21365,10.37201 -23.66284,19.03443 -2.69321,4.68557 -5.65528,9.25912 -7.80272,14.23165 -1.47096,3.14136 -1.47123,6.56115 -0.94469,9.89098 1.00561,3.48172 -3.56863,4.7757 -4.68089,1.61343 0.47013,-3.23664 4.99589,-2.40788 7.25423,-3.82996 4.4678,-2.6528 9.09338,-5.27797 12.73402,-9.08812 4.65658,-4.66203 8.28665,-10.94424 8.19803,-17.68742 -0.66468,-4.66031 -5.54695,-6.75364 -7.72514,-10.55302 4.51818,-1.65723 9.38205,-1.99903 14.09426,-2.79173 5.60689,-0.53412 11.74636,2.02754 14.16455,7.35833 4.3189,7.99243 1.82819,18.70871 -5.12076,24.40348 -10.58662,11.03739 -25.9972,17.83267 -41.39589,16.62444 -6.03042,0.007 -12.65484,2.0795 -18.16704,-1.34681 -4.27299,-3.52024 -3.66255,-9.81482 -1.86569,-14.46174 2.96062,-6.94336 7.00886,-13.39712 11.32601,-19.57416 3.56718,-4.70457 7.15458,-9.59378 11.93873,-13.13799 7.39022,-5.00894 16.71668,-5.60844 25.36883,-5.14773 4.3807,0.0593 8.83663,-0.0689 13.11171,1.04642 -4.37838,2.18304 -9.52378,0.96132 -14.08349,2.51872 -1.81223,0.27094 -3.62473,0.54016 -5.43846,0.80085 z"
       id="ttt:o0" />
    <path
       d="m 361.90505,450.88986 c -30.14878,8.21289 -54.89332,34.13241 -61.33366,64.74469 -2.50735,14.36733 -1.07955,30.03621 6.44981,42.73191 2.99863,3.32521 7.15522,6.28764 11.76225,6.47803 -3.19433,1.04978 -11.33513,-2.20083 -3.99557,-3.59643 20.64701,-9.71372 34.22139,-29.67726 42.99609,-50.06492 5.33439,-13.28404 8.85988,-28.57719 4.005,-42.51135 -3.48933,-6.07119 -10.46862,-9.41168 -17.28288,-9.87143 10.17827,-0.78239 21.24796,-5.52706 30.87893,0.0527 9.75676,5.28368 11.82626,17.82768 10.35281,27.89691 -3.97454,28.77839 -19.81145,55.7183 -42.70772,73.52367 -6.45783,4.91003 -14.48888,7.94989 -22.68044,7.25703 -9.79174,0.1143 -20.50237,2.58858 -29.52516,-2.35139 -10.49746,-7.76213 -11.93739,-21.8589 -12.50634,-33.91165 -1.32778,-18.74023 6.28847,-36.881 16.96736,-51.90537 6.93603,-10.35893 16.60417,-18.7592 27.80335,-24.2196 6.70253,-4.00424 14.22827,-8.43114 22.36232,-6.69341 5.50415,0.68342 10.90156,2.13432 16.45385,2.44061 z"
       id="ttt:o3" />
    <path
       d="m 530.17012,281.63574 c -7.1115,2.17211 -11.52292,8.89816 -14.1698,15.45649 -4.07406,9.3098 -7.66903,19.1793 -7.56681,29.48009 -2.60218,2.32124 4.15416,5.20186 3.25223,2.8485 -4.73563,-0.38727 -9.6504,0.88757 -14.24016,-0.78471 4.24925,-2.10926 9.34171,-2.8799 12.63269,-6.59101 5.1008,-4.22672 10.44963,-9.18266 11.9753,-15.88248 0.42133,-5.73454 -3.46637,-11.31594 -8.76542,-13.35084 2.58789,-2.04676 6.08838,-0.68682 9.02778,-1.62781 4.35089,-0.45181 8.70178,-0.90361 13.05267,-1.35542 6.88945,3.71706 11.26742,12.31461 8.95195,20.00568 -7.11698,13.34878 -20.86735,23.6178 -36.21641,24.55434 -6.89089,0.50934 -13.82463,-0.44163 -20.47729,-2.22921 -3.12474,-2.38641 -2.44658,-6.76468 -1.91119,-10.15516 2.21224,-13.46291 6.95371,-26.5841 14.25294,-38.12789 2.17163,-2.9102 5.73668,-5.53291 9.55671,-4.65094 6.90105,0.63142 13.75402,1.68585 20.64481,2.41037 z"
       id="ttt:o2" />
    <path
       d="m 520.16429,633.54992 c -2.707,3.3878 -5.26225,6.89235 -7.96875,10.28125 -4.60821,5.77048 -9.38108,11.41091 -14.28125,16.9375 -1.29327,-0.42112 -2.5989,-0.70273 -4.59375,-0.75 -13.336,-0.3158 -24.15025,-2.7411 -35.53125,2.5625 l 20.1875,2.25 c 0.45837,0.14565 0.91352,0.30451 1.375,0.4375 1.585,0.9029 3.3034,1.60755 4.75,2.71875 1.24279,0.9546 2.62846,2.13784 4.03125,3.4375 -6.54608,6.83671 -7.12685,7.49464 -15.5,15.59375 -2.8987,2.8038 -5.8316,5.5917 -8.75,8.375 -2.6892,2.49728 -5.4226,4.91938 -8.0625,7.46878 -2.3926,2.3106 -4.54465,4.8758 -6.96875,7.1562 l 23.46875,1.8438 c 8.24486,-10.5495 18.32035,-19.42409 27.78125,-28.84378 5.45457,5.06187 11.10882,9.82773 16.9375,14.46875 4.715,3.54943 9.486,7.43203 15.4375,8.59373 0.8418,0.1643 1.70503,0.2695 2.5625,0.25 8.398,-0.1905 16.7921,-0.5817 25.1875,-0.875 l 1.4375,-1.3125 -16.96875,-1.6562 c 2.75462,0.022 5.52705,0.052 8.28125,0.094 -0.21013,-0.042 -0.41714,-0.075 -0.625,-0.125 -4.8884,-1.1884 -8.83965,-4.2272 -12.90625,-7.03128 -6.772,-5.07 -13.2865,-10.26635 -19.4375,-16.09375 -2.3136,-2.1919 -4.5984,-4.42635 -6.8125,-6.71875 -0.53484,-0.55373 -1.05115,-1.14211 -1.5625,-1.71875 7.54798,-8.49791 15.13312,-16.95266 22.625,-25.5 3.0041,-3.4275 5.8394,-7.0291 9.25,-10.0625 l -23.34375,-1.78125 z m 32.8125,69.03123 c 0.84052,0.167 1.70746,0.2808 2.5625,0.3125 0.87162,0.032 3.46575,-0.1961 2.59375,-0.2187 -1.72275,-0.045 -3.43311,-0.068 -5.15625,-0.094 z"
       id="ttt:x4" />
    <path
       d="m 479.77775,457.92204 c 0.9732,13.778 2.6165,27.482 4.75,41.125 0.84326,3.35962 1.58546,6.75974 2.3125,10.15625 -0.15528,0.16774 -0.31362,0.33212 -0.46875,0.5 -2.9912,3.2369 -5.90835,6.55045 -8.90625,9.78125 -3.2887,3.5444 -6.6992,6.9723 -9.9375,10.5625 -2.1332,2.365 -4.10795,4.8737 -6.15625,7.3125 -4.9615,6.44596 -9.551,13.19606 -12.875,20.65626 l 23.59375,0.9062 c 2.8403,-7.312 7.40485,-13.7775 11.96875,-20.0937 1.8401,-2.42791 3.5679,-4.95721 5.5,-7.31251 0.53023,-0.6464 1.08938,-1.26415 1.625,-1.90625 1.71924,7.62699 3.6895,15.17706 6.46875,22.49996 0.848,2.2345 1.92135,4.4023 2.875,6.5938 3.012,5.565 5.7822,11.5178 10.125,16.2187 24.66584,-0.042 22.5572,7.8352 24.4375,-1.7812 l -23.6875,-0.8438 c -6.758,-4.2893 -0.36125,-0.162 22.84375,0.2188 -1.6117,-0.3 -2.59166,-1.8399 -3.5625,-3.0625 -2.9133,-3.6689 -5.43195,-7.5966 -7.65625,-11.7188 -1.0191,-2.1191 -2.15593,-4.2053 -3.0625,-6.375 -5.0388,-12.06 -8.49595,-26.43746 -11.15625,-39.18746 -0.12682,-0.60777 -0.22275,-1.23481 -0.34375,-1.84375 7.50505,-7.86979 15.23842,-15.52506 23,-23.09375 5.376,-5.1012 10.95105,-9.98855 16.65625,-14.71875 2.5579,-2.1209 5.0517,-4.35185 8.0625,-5.78125 0.3136,-0.0575 0.62389,-0.13 0.9375,-0.1875 l -23.53125,-2.78125 -0.78125,0.5625 c -2.5481,1.9439 -4.89165,4.1152 -7.28125,6.25 -5.43,4.85 -10.8282,9.7453 -15.9375,14.9375 -1.48225,1.49998 -2.96273,2.99311 -4.4375,4.5 -0.48782,-3.85516 -0.9262,-7.7329 -1.1875,-11.71875 -0.44425,-6.777 -0.43355,-13.5868 -0.59375,-20.375 l -23.59375,0 z"
       id="ttt:x1" />
    <path
       d="m 362.5347,281.77394 c -11.79038,-1.21678 5.50907,-0.60387 8.89569,-0.38678 4.25889,0.23435 12.75534,0.2583 3.75451,1.38611 -18.37124,4.51758 -31.7899,22.9588 -31.7194,41.60569 -0.49513,5.79398 7.41953,11.24347 10.57681,9.83116 -4.8412,2.4187 -14.80652,-3.55428 -5.1151,-4.93297 12.3981,-4.30203 23.39982,-14.417 27.27666,-27.12879 2.33739,-7.8609 -1.56635,-15.83253 -8.08451,-20.23213 6.26914,-1.43151 15.93452,-3.27116 22.7367,-1.5927 10.56965,7.24002 10.60224,22.77816 3.23494,32.31133 -6.73707,9.64578 -16.36509,17.65155 -27.34924,21.90468 -10.65258,2.45293 -21.73356,2.26592 -32.60457,2.87229 -9.62425,0.73968 -15.21886,-9.84706 -12.82673,-18.2871 2.3602,-18.78545 15.73125,-37.16672 35.13463,-40.55642 9.70352,-1.96365 19.66158,-1.06589 29.4391,-0.25528 -7.78312,1.15394 -15.5666,2.30544 -23.34949,3.46091 z"
       id="ttt:o1" />
    <path
       d="m 107.1562,426.79089 c 0.319,11.75 5.2662,22.77375 9.625,33.46875 1.03661,2.57258 2.10624,5.11946 3.15625,7.6875 -1.55473,0.55692 -3.10714,1.11425 -4.65625,1.6875 -12.131,4.66 -24.631243,8.92689 -35.406243,16.37499 l 23.499993,2.1875 c 6.31549,-4.5267 13.32336,-7.8425 20.5,-10.7812 4.69492,11.0166 9.73609,21.8895 15.78125,32.25 1.3911,2.0403 2.95405,4.553 4.71875,6.375 6.374,6.5817 20.63345,2.1156 26.53125,1.8125 0.4034,-0.021 1.34645,-2.8426 1.46875,-3.1875 l -4.5,-0.1875 c -0.13273,-0.054 -0.26173,-0.098 -0.34375,-0.1563 -0.8901,-0.6284 -1.59813,-1.4584 -2.3125,-2.2812 -1.0029,-1.1552 -1.87753,-2.4455 -2.8125,-3.6563 -7.86486,-12.0135 -14.04442,-24.9644 -19.59375,-38.18749 14.45098,-5.13031 29.13038,-9.57112 43.78125,-14.09375 3.1281,-0.962 6.2395,-1.90607 9.375,-2.84375 l -23.46875,-2.96875 c -2.8551,1.007 -5.6945,1.96782 -8.5625,2.9375 -8.2267,2.76488 -16.50541,5.44317 -24.75,8.15625 -0.25384,-0.63623 -0.498,-1.26953 -0.75,-1.90625 -3.6406,-10.46 -7.97703,-21.4155 -7.6875,-32.6875 l -23.59375,0 z m 40.4375,87.59374 c 0.19815,0.01 0.39561,0.025 0.59375,0.031 -0.23997,0.078 -0.80107,-0.038 -0.59375,-0.031 z"
       id="ttt:x0" />
    <path
       d="m 113.1342,597.83623 c -1.8818,10.256 -3.79175,20.525 -5.09375,30.875 -0.7234,5.751 -1.25488,11.5023 -2,17.25 -0.52578,4.05596 -1.11717,8.11084 -1.71875,12.15625 -6.952288,1.56117 -13.700578,3.81376 -20.093748,7.0625 -2.8341,1.4539 -4.579,2.2684 -7.25,4 -3.7498,2.431 -6.80295,5.6442 -9.71875,9 -3.9896,4.822 -7.87165,9.71155 -10.84375,15.24995 l 23.5625,1.2188 c 2.5958,-5.516 6.46315,-10.2513 10.40625,-14.84375 2.2037,-2.1472 4.2077,-4.61475 6.6875,-6.46875 1.70433,-1.27445 3.543538,-2.33086 5.437498,-3.3125 -2.45942,16.8754 -4.391808,33.8493 -7.468748,50.625 -0.0358,0.4353 -0.0893,0.8459 -0.125,1.2812 l 23.656248,-0.125 c -0.0776,-0.3143 -0.14115,-0.6231 -0.21875,-0.9375 0.0785,-5.494 0.62644,-10.9693 1.125,-16.4375 1.2425,-13.628 2.7597,-27.25445 4.625,-40.81245 0.0878,-0.6052 0.16422,-1.20698 0.25,-1.8125 2.01582,-0.46304 4.04742,-0.8669 6.09375,-1.21875 13.965,-1.8399 27.946,-3.61115 41.875,-5.71875 3.9578,-0.74035 4.6589,-0.81711 8.3125,-1.625 0.9351,-0.2068 3.39818,-0.7022 4.375,-1.3125 0.39399,-0.24619 0.62198,-0.65901 0.9375,-1 l -23.5625,-2.15625 c -4.0468,1.5022 -8.39495,2.01753 -12.59375,2.90625 -8.14533,1.30034 -16.3245,2.378 -24.5,3.4375 0.41265,-2.94636 0.82907,-5.90828 1.3125,-8.84375 0.9483,-5.759 2.1109,-11.48295 3.1875,-17.21875 1.9295,-10.28 3.85675,-20.57025 6.65625,-30.65625 l -23.3125,-0.5625 z"
       id="ttt:x2" />
    <path
       d="m 36.066847,477.84262 c 23.170878,-20.82269 56.404154,-13.76816 84.710973,-13.7922 65.50897,5.63406 131.12276,11.75833 195.55418,25.3278 89.18456,14.28062 179.75252,15.78546 269.84718,18.52224 -18.44741,-1.90885 15.72271,-2.25524 21.47248,-2.92908 15.95867,-0.0813 5.19178,-2.78314 -3.41582,-3.43078 9.45082,-5.12936 34.16772,2.55313 11.73877,7.53879 -48.68873,4.13303 -97.59935,-0.58151 -146.34678,-1.33919 -84.44237,-3.26547 -168.72884,-12.16308 -251.60455,-28.80203 -41.27264,-5.68546 -82.95274,-7.43308 -124.316983,-12.27774 7.578373,-0.35732 -19.146652,3.77185 -25.156757,6.24356 -5.641264,2.35535 -11.061561,4.5501 -16.661812,5.59926 -5.031455,0.9426 -10.208166,0.96049 -15.820881,-0.66063 z"
       id="ttt-h0" />
    <path
       d="m 60.541346,277.39372 c 7.224327,-3.40749 14.680685,-6.0387 22.296339,-8.05332 28.164675,-7.45058 58.508085,-6.4678 87.351265,-5.12779 48.7919,3.17355 94.30847,23.51562 142.9241,28.05014 78.2844,9.75166 156.96657,18.58866 235.96445,17.82255 11.922,2.53947 -22.27137,-0.53695 -2.22346,0.0135 12.51045,2.66301 39.12373,-7.29475 30.58702,-14.72576 7.44528,-0.43954 15.23842,-2.92162 22.46748,-2.0916 11.32438,20.37904 -27.0319,20.38254 -40.38929,20.58491 -83.84551,0.83692 -167.54811,-6.1485 -250.67926,-16.62002 -39.19168,-3.68475 -77.38318,-13.19098 -115.31854,-23.25239 -12.83273,-3.75526 -49.78762,-6.57179 -49.5485,-7.23075 12.00285,-0.0503 12.29316,-0.003 0.5188,0.35728 -20.95525,0.96478 -42.44772,4.04908 -61.564395,12.48119 -7.461098,-0.73615 -14.929382,-1.47088 -22.386009,-2.20792 l 0,-2e-5 z"
       id="ttt-h1" />
    <path
       d="m 10.701938,736.9982 c 3.0185,-6.3636 6.5688,-12.453 10.426,-18.339 4.7311,-7.1392 10.142,-13.773 15.575,-20.38 5.6384,-6.9073 11.298,-13.794 17.176,-20.5 1.4028,-1.4211 2.7456,-2.904 4.2082,-4.2633 2.1214,-1.9715 4.3704,-3.8013 6.5372,-5.7228 4.8405,-4.2924 7.7342,-7.0602 12.669,-11.216 5.9047,-4.9731 8.0363,-6.485 14.258,-11.247 11.801002,-9.048 23.802002,-17.815 35.892002,-26.472 15.093,-10.655 29.695,-21.971 44.276,-33.308 3.1636,-2.3418 6.2931,-4.7305 9.4909,-7.0255 7.0535,-5.0622 17.512,-12.151 24.547,-16.994 14.553,-10.018 29.04,-20.13 43.514,-30.262 30.033,-21.89 60.817,-42.715 91.166,-64.156 27.23998,-19.259 53.84298,-39.387 80.37098,-59.608 23.816,-18.648 47.082,-38.006 69.795,-57.982 21.854,-19.691 40.72,-42.368 59.757,-64.713 14.304,-16.613 29.286,-32.668 42.867,-49.895 2.2348,-2.8348 4.3607,-5.7538 6.541,-8.6307 5.3635,-7.066 10.406,-14.367 15.495,-21.632 0.043,-0.0761 0.086,-0.15188 0.1285,-0.22822 0.1203,-0.21693 -0.3502,0.72089 -0.1026,0.73709 22.379,1.4646 29.442,-3.5882 22.499,1.2107 0,0 -23.633,-1.7918 -23.633,-1.7918 5.313,-7.5178 28.004,-8.2976 24.665,1.6381 -6.025,6.9571 -11.438,14.412 -17.298,21.505 -3.0293,3.8072 -12.084,15.227 -14.901,18.593 -11.351,13.565 -23.518,26.442 -34.85,40.026 -9.576,10.867 -19.302,21.59 -28.966,32.378 -1.7658,1.971 -19.832,22.394 -22.301,24.959 -2.5973,2.6977 -5.4464,5.1411 -8.1696,7.7116 -9.3737,7.9998 -18.805,15.908 -28.405,23.637 -31.175,25.096 7.864,-6.4473 -26.622,21.036 -5.4999,4.3831 -10.935,8.8472 -16.402,13.271 -10.408,8.3404 -17.225,13.927 -27.62,21.828 -17.24,13.104 -35.139,25.317 -52.775,37.874 -15.802,11.207 -31.766,22.175 -47.595,33.345 -14.125,9.968 -15.231,10.946 -29.071,20.784 -4.7417,3.3705 -9.5096,6.704 -14.264,10.056 -14.319,10.126 -28.648,20.236 -42.993,30.325 -8.7498,6.1538 -15.3,10.665 -23.806,16.983 -3.0916,2.2962 -6.1196,4.6767 -9.1795,7.0151 -14.458,11.325 -28.906,22.673 -43.798,33.426 -12.008,8.8929 -24.308,17.382 -36.238,26.382 -12.881,9.9267 -25.524002,20.281 -36.764002,32.069 -5.7973,6.74 -11.529,13.534 -17.145,20.426 -5.2973,6.6052 -10.772,13.081 -15.47,20.141 -3.6795,5.7219 -7.2867,11.546 -9.9329,17.831 0,0 -23.549,-0.82166 -23.549,-0.82166 z"
       id="ttt:dbt" />
    <path
       d="m 159.29855,204.04296 c 2.5752,5.238 6.1097,9.9143 9.154,14.88 6.2238,11.795 12.511,23.576 18.23,35.627 8.9477,20.078 18.044,40.082 27.504,59.924 2.4389,5.0291 4.8451,10.074 7.3167,15.087 5.0443,10.231 10.272,20.37 15.33,30.594 8.2942,16.766 16.448,33.602 24.745,50.367 10.239,20.332 20.282,40.801 31.456,60.645 10.104,17.943 22.583,38.083 33.914,55.14 5.882,8.8543 12.11,17.474 18.165,26.211 20.118,27.614 41.713,54.56 67.435,77.221 12.616,11.115 17.219,13.85 30.781,23.459 22.622,14.463 46.957,25.916 71.71001,36.187 13.739,5.4587 27.127,11.723 40.636,17.714 11.656,4.9601 23.192,10.176 34.389,16.105 3.0994,1.6079 6.1897,3.2352 9.3197,4.7833 8.3302,3.7564 -20.064,7.8966 -24.566,0.76757 -0.5147,-0.68721 -0.8379,-1.3281 -1.1449,-2.1339 0,0 23.671,-1.071 23.671,-1.071 0.3695,0.55951 0.735,1.1234 1.1579,1.6449 6.7139,6.6911 -15.744,7.7336 -22.754,3.3499 -2.8443,-1.6669 -5.7355,-3.2525 -8.6122,-4.8622 -10.873,-5.9553 -22.173,-11.06 -33.528,-16.023 -13.562,-5.9426 -27.127,-11.874 -40.74899,-17.677 -24.08002,-10.64 -47.50902,-22.694 -69.72902,-36.863 -13.566,-9.8318 -17.849,-12.358 -30.346,-23.79 -12.116,-11.083 -20.17,-20.085 -30.859,-32.735 -17.919,-21.207 -17.892,-22.052 -34.65,-45.007 -7.9582,-11.821 -29.467,-43.612 -36.719,-55.066 -5.4977,-8.6833 -10.625,-17.596 -15.916,-26.406 -5.0218,-8.362 -10.21,-16.628 -15.022,-25.112 -3.7705,-6.6465 -14.77,-28.479 -18.363,-35.549 -15.825,-32.112 -31.807,-64.142 -48.094,-96.023 -9.988,-19.82 -19.518,-39.846 -29.05,-59.886 -5.6697,-12.058 -11.76,-23.957 -18.751,-35.308 -3.3103,-4.9647 -6.8014,-9.8265 -9.6107,-15.103 0,0 23.552,-1.0928 23.552,-1.0928 z"
       id="ttt:dtb" />
    <path
       d="m 507.75,211.96875 c 1.00384,1.99448 -2.85218,4.01462 -1.40625,6.90625 2.91174,12.40156 14.44106,22.61497 12.75,35.96875 -2.34912,8.54512 5.54431,15.95269 10.625,21.53125 2.35612,-21.7131 -11.38298,-40.38006 -17.8829,-60.16603 -0.5285,-3.29065 -1.40941,-3.40719 -4.08585,-4.24022 z m 25.34375,76.375 c 2.09445,30.80272 3.7931,61.84995 1.3125,92.65625 -8.68721,50.21276 -31.3009,96.51626 -45.39162,145.17333 -13.91839,58.22285 -26.23131,117.18191 -28.99966,177.16349 -1.83337,27.67887 -3.34712,55.98845 -0.0462,83.38193 6.57654,0.52713 6.71475,-8.47713 6.5,-13.0625 -0.49324,-13.26759 -4.16493,-26.6264 -1.35846,-39.80752 2.26394,-36.624 2.29464,-73.72172 9.50309,-109.7574 8.68438,-35.87378 9.85552,-73.7371 24.5098,-107.94252 6.22826,-27.60447 15.81738,-54.28633 26.38887,-80.44705 5.21464,-31.93828 20.27754,-63.01053 15.7692,-96.01426 -1.15418,-16.34305 2.75084,-33.80145 -3.90625,-49.21875 -1.0797,-1.83716 -2.51562,-3.72753 -4.5,-4.59375 0.0729,0.82292 0.14583,1.64583 0.21875,2.46875 z"
       id="ttt:v2" />
    <path
       d="m 300.65582,772.10758 c -16.86815,-95.52292 9.89753,-191.58296 26.42386,-285.33781 15.70297,-88.69155 34.94191,-176.69835 52.31007,-265.0659 19.43626,-11.89721 -5.09054,-12.43856 12.1463,-13.54107 -0.42131,38.50692 -18.88262,78.11303 -23.56736,117.59214 -17.55306,81.456 -31.9707,163.43567 -46.37214,245.4797 -14.13944,64.93653 -20.89886,132.7102 -12.14122,198.32576 l -2.91135,2.8222 -5.88816,-0.27502 0,0 z"
       id="ttt:v1" />
    <path
       d="m 117.98174,764.9648 c 7.1288,-67.86639 7.52429,-136.49253 18.91742,-203.86513 8.63262,-43.15459 19.61292,-85.89346 24.91677,-129.6433 7.91487,-45.57856 10.37729,-91.91911 10.56618,-138.12122 -2.74076,-6.36588 -0.47199,-20.99757 9.35311,-15.48031 -20.62835,-6.08066 -21.67731,-44.47901 -13.95202,-53.18245 -18.30865,4.78433 0.97682,-6.33671 -6.67098,-2.59561 11.82616,-0.46668 -6.20652,0.78976 6.47446,1.64448 19.5731,15.47594 -0.22263,46.50016 15.9257,64.61932 -4.40625,32.68662 -1.14778,65.87163 -5.02591,98.51722 -5.89223,37.13715 -11.55005,74.3065 -20.50528,110.85509 -8.30414,46.87703 -17.11403,93.78592 -20.14154,141.41208 -3.95124,40.87701 -3.893,82.29469 -9.79909,122.84524 -1.37923,4.44391 -6.57736,4.55103 -10.05882,2.99459 z"
       id="ttt:v0" />
  </g>
</svg>
