<?xml version="1.0" encoding="UTF-8" standalone="no"?>
<!-- Created with Inkscape (http://www.inkscape.org/) -->

<svg
   xmlns:dc="http://purl.org/dc/elements/1.1/"
   xmlns:cc="http://creativecommons.org/ns#"
   xmlns:rdf="http://www.w3.org/1999/02/22-rdf-syntax-ns#"
   xmlns:svg="http://www.w3.org/2000/svg"
   xmlns="http://www.w3.org/2000/svg"
   xmlns:sodipodi="http://sodipodi.sourceforge.net/DTD/sodipodi-0.dtd"
   xmlns:inkscape="http://www.inkscape.org/namespaces/inkscape"
   width="744.09448819"
   height="1052.3622047"
   id="svg2"
   version="1.1"
   inkscape:version="0.47 r22583"
   sodipodi:docname="ttt.svg">
  <defs
     id="defs4">
    <inkscape:perspective
       sodipodi:type="inkscape:persp3d"
       inkscape:vp_x="0 : 526.18109 : 1"
       inkscape:vp_y="0 : 1000 : 0"
       inkscape:vp_z="744.09448 : 526.18109 : 1"
       inkscape:persp3d-origin="372.04724 : 350.78739 : 1"
       id="perspective10" />
  </defs>
  <sodipodi:namedview
     id="base"
     pagecolor="#ffffff"
     bordercolor="#666666"
     borderopacity="1.0"
     inkscape:pageopacity="0.0"
     inkscape:pageshadow="2"
     inkscape:zoom="1.2636604"
     inkscape:cx="334.18669"
     inkscape:cy="600.15561"
     inkscape:document-units="px"
     inkscape:current-layer="layer1"
     showgrid="false"
     inkscape:snap-bbox="true"
     inkscape:window-width="1863"
     inkscape:window-height="1156"
     inkscape:window-x="797"
     inkscape:window-y="95"
     inkscape:window-maximized="0" />
  <metadata
     id="metadata7">
    <rdf:RDF>
      <cc:Work
         rdf:about="">
        <dc:format>image/svg+xml</dc:format>
        <dc:type
           rdf:resource="http://purl.org/dc/dcmitype/StillImage" />
        <dc:title></dc:title>
      </cc:Work>
    </rdf:RDF>
  </metadata>
  <g
     inkscape:label="Layer 1"
     inkscape:groupmode="layer"
     id="layer1">
    <path
       style="fill:#000000;fill-opacity:1;fill-rule:nonzero;stroke:none"
       id="path3383"
       d="m 85.33934,352.91796 c 3.740377,-7.29636 9.837706,-12.67299 16.03168,-17.83775 12.69066,-9.57789 27.45788,-16.35454 42.64577,-20.95722 3.21665,-0.9748 6.50045,-1.71242 9.75067,-2.56863 3.25873,-0.55554 6.49292,-1.28166 9.77617,-1.66661 3.56868,-0.41842 7.16088,-0.71526 10.75392,-0.74049 22.1722,-0.15573 28.99974,-0.92723 47.14231,2.43757 10.41762,1.9321 19.12891,4.39282 29.36177,7.05705 4.78627,1.42532 9.58471,2.81039 14.35881,4.27597 25.55083,7.84374 4.21095,1.61741 33.05298,10.40784 14.68192,4.47473 29.46085,8.52694 44.316,12.37583 22.34563,5.48198 45.15959,9.17304 68.10264,10.96226 5.73478,0.44722 11.48429,0.67956 17.22644,1.01934 6.22234,0.0236 12.45213,0.37601 18.66701,0.0706 0.32944,-0.0162 -0.30031,-0.94408 0.0264,-0.98914 43.20888,-5.95843 -5.15923,2.97057 37.42609,-4.13319 15.21748,-2.53847 20.15163,-4.11957 34.86302,-7.8775 16.43955,-4.64825 32.4744,-10.81366 47.14958,-19.63175 6.14335,-3.69145 7.18562,-4.6856 12.59115,-8.77765 5.48589,-4.45337 10.28156,-9.76039 13.63718,-15.99875 0.64839,-0.98384 0.63461,-2.49691 0.63958,-0.51873 0,0 23.76452,-2.07127 23.76452,-2.07127 l 0,0 c 0.1286,1.44337 -0.0333,2.53752 -0.86002,3.80141 -3.81679,6.47748 -8.91192,12.15158 -14.74658,16.87702 -5.61845,4.15135 -6.87953,5.28859 -13.21997,9.01829 -15.16605,8.92129 -31.62961,15.29726 -48.55205,20.01071 -14.25039,3.65721 -20.46826,5.55054 -35.14255,8.07362 -31.87297,5.4802 -64.34563,5.62581 -96.59046,5.2446 -5.84151,-0.35231 -11.69066,-0.59506 -17.52453,-1.05693 -23.12405,-1.83074 -46.1892,-5.4702 -68.66024,-11.22796 -30.65435,-8.38096 -60.89542,-18.16425 -91.3919,-27.08845 -11.16281,-2.86159 -18.07183,-4.88354 -29.5091,-6.78489 -4.63633,-0.77076 -9.75982,0.30015 -13.99147,-1.74502 -2.84333,-1.37419 12.60759,-0.74087 9.46364,-0.4433 -24.63946,2.33203 2.97035,-1.47946 -20.35318,2.0123 -3.24193,0.80258 -6.51609,1.48465 -9.72579,2.40773 -14.91677,4.28992 -29.48287,10.66401 -41.79509,20.20468 -5.76213,4.88878 -11.70925,9.92743 -15.09386,16.84556 0,0 -23.59057,-0.98719 -23.59057,-0.98719 z" />
    <path
       style="fill:#000000;fill-opacity:1;fill-rule:nonzero;stroke:none"
       id="path3385"
       d="m 89.182933,549.34811 c 1.659323,-1.47011 4.33747,-3.90312 5.995928,-5.02853 6.933989,-4.70532 14.740849,-8.80829 22.816009,-11.13243 3.23571,-0.93127 6.58241,-1.42133 9.87362,-2.132 3.25486,-0.35019 6.49741,-0.84498 9.7646,-1.05057 10.0032,-0.62944 37.91677,0.89673 39.94287,1.10681 3.33602,0.34589 6.46361,1.81527 9.61839,2.9537 9.09547,3.28218 10.843,4.68335 19.57123,9.42379 12.72084,7.71643 24.82734,16.36361 37.52439,24.12054 4.56132,2.78663 9.09095,5.64373 13.8302,8.11569 14.38789,7.50461 17.03649,7.63732 32.82433,12.84885 19.71701,5.93858 40.14656,7.77364 60.64525,8.08831 2.05899,0.0316 4.09643,-0.43384 6.15064,-0.57762 39.0461,-2.73299 10.54698,-0.13866 49.00455,-4.05072 35.10613,-4.09167 69.93654,-10.39246 104.3319,-18.50507 7.25063,-1.71016 14.46206,-3.58239 21.69309,-5.37359 26.94958,-7.00186 53.68949,-14.86068 79.70959,-24.80041 4.01511,-1.72579 8.68773,-3.28173 11.43811,-6.93363 0.0946,0.13137 -0.26228,-0.13289 -0.37132,-0.19808 -0.24604,-0.005 -0.17274,0.30246 -0.16246,0.4791 10.975,-3.00224 17.43104,-3.21712 26.52794,-3.24159 9.77701,0.004 -31.56227,0.0645 -20.08327,-0.005 1.70912,-0.32792 1.42937,3.7337 -0.27296,3.7206 0,0 23.47629,-3.71822 23.47629,-3.71822 l 0,0 c 1.97341,-0.0137 2.06841,4.0829 0.31245,3.72115 -8.96271,-0.0436 -17.9257,-0.0191 -26.88847,-0.004 -8.54791,-0.0304 -18.7465,0.11718 20.62497,-3.27061 0.0481,0.31984 0.11373,0.62965 0.2587,0.92222 0.35352,0.89533 0.55274,1.84683 0.2968,2.80096 -2.15926,4.58443 -8.55617,6.78442 -12.81222,8.46504 -27.10658,9.56831 -54.75419,17.43875 -82.5722,24.66254 -16.78326,4.20822 -26.0139,6.6616 -42.86503,10.34061 -27.59867,6.02545 -55.53084,10.47213 -83.5824,13.75759 -17.08692,1.76973 -31.98766,3.61336 -49.19227,4.1753 -14.78152,0.4828 -29.57513,0.71881 -44.36408,0.60397 -14.4153,-0.11195 -29.17381,-1.26519 -43.35798,-3.99135 -6.11321,-1.17494 -12.07802,-3.02136 -18.11704,-4.53204 -5.99068,-2.0008 -12.10012,-3.67605 -17.97206,-6.00238 -12.04008,-4.77 -18.24519,-8.75571 -29.16054,-15.40585 -12.88071,-7.84753 -25.3358,-16.36473 -38.43101,-23.85863 -8.03171,-4.07366 -11.40903,-6.20364 -19.79456,-8.94652 -3.20195,-1.04735 -12.00953,-0.0715 -9.76972,-2.58798 2.87739,-3.23284 8.78273,0.19911 12.94654,-0.98128 6.08018,-1.72366 -25.8965,1.37391 -18.9452,0.73198 -3.22109,0.61242 -6.49319,1 -9.66329,1.83725 -7.77471,2.05334 -15.34093,5.80694 -21.90004,10.4371 -1.94252,1.37125 -3.67493,3.1898 -5.36313,4.86783 0,0 -23.537137,-1.85241 -23.537137,-1.85241 z" />
    <path
       style="fill:#000000;fill-opacity:1;fill-rule:nonzero;stroke:none"
       id="path3387"
       d="m 229.85614,723.908 c -1.1033,-7.19339 -1.59346,-14.47385 -1.40447,-21.7449 1.46726,-13.15255 2.24668,-26.37654 3.74105,-39.52573 1.01942,-8.96997 3.06947,-23.39732 4.30004,-32.30054 1.09264,-5.97616 2.06062,-11.97646 3.27793,-17.92848 3.02981,-14.81419 7.0351,-30.89648 10.66107,-45.50574 6.49859,-26.18327 13.25597,-52.29383 19.62901,-78.50854 1.85717,-7.85077 3.73792,-15.696 5.5715,-23.55232 0.68265,-2.92495 8.56271,-37.26473 9.31627,-40.65931 3.4202,-15.40703 5.97418,-26.88051 8.34564,-42.5376 1.32994,-8.78067 2.29413,-17.61285 3.44119,-26.41927 1.86558,-25.3026 4.41553,-50.92243 2.00124,-76.29946 -1.14597,-12.04545 -2.15625,-14.72718 -4.8315,-26.3484 -5.01909,-16.95476 -12.472,-33.00894 -21.99021,-47.87707 -4.45417,-7.18275 -8.37013,-14.71588 -11.97661,-22.36098 -0.44864,-0.98904 -0.67023,-1.45491 -1.0638,-2.39043 -0.0863,-0.20507 -0.13627,-0.4275 -0.24935,-0.6191 -0.0248,-0.042 -0.18917,-0.0412 -0.14039,-0.0412 24.0009,-0.0109 24.10639,-7.87286 23.70389,0.80696 0.19104,2.4357 0.80021,4.80052 1.58448,7.10432 0,0 -23.48728,0.7643 -23.48728,0.7643 l 0,0 c -0.85757,-2.56387 -1.52597,-5.18568 -1.79985,-7.88353 -0.24035,-8.85875 -0.3459,-1.30211 23.78963,-1.94919 0.1286,-0.003 0.0468,0.2533 0.0808,0.3774 0.0952,0.34822 0.40312,1.23186 0.49127,1.47497 0.16851,0.46473 0.34641,0.926 0.51962,1.389 3.09455,7.69121 6.85758,15.11227 11.3609,22.07967 8.83609,15.31434 15.72041,31.62577 20.55001,48.65371 2.45533,11.26045 3.70108,15.08373 4.53603,26.73849 0.758,10.5808 0.21508,21.51649 -0.39433,32.06488 -1.1634,20.13736 -1.75498,23.66619 -3.8475,44.52877 -0.85833,8.84852 -1.4277,17.72984 -2.57499,26.54554 -0.94961,7.29676 -2.34861,14.52965 -3.71167,21.76059 -5.4076,28.68701 -13.30042,56.79506 -20.29934,85.11222 -12.00557,46.9022 -24.30919,93.86662 -31.73036,141.76105 -0.72786,5.41962 -1.55309,10.82705 -2.18359,16.25886 -2.13192,18.36695 -2.8225,36.84676 -3.56544,55.30806 0.0529,7.04842 0.14055,14.23453 1.91221,21.09553 0,0 -23.56306,0.62752 -23.56306,0.62752 z" />
    <path
       style="fill:#000000;fill-opacity:1;fill-rule:nonzero;stroke:none"
       id="path3389"
       d="m 528.99028,200.95497 c -0.67048,0.858 -1.41535,1.66276 -2.01145,2.57402 -2.43545,3.72303 -4.61359,8.52231 -6.29513,12.44649 -3.37483,7.87574 -5.97489,16.08245 -8.65843,24.20884 -6.57854,20.24418 -12.37572,40.72406 -18.71165,61.04437 -11.24319,37.89607 -20.12614,76.4442 -28.43912,115.07264 -7.48597,35.32401 -14.13798,70.83681 -18.56216,106.68717 -1.00544,8.14739 -1.78923,16.32059 -2.68385,24.48089 -2.04352,20.48709 -3.48092,41.03511 -4.40046,61.60276 -0.39035,8.73102 -0.80652,21.17266 -0.668,30.01977 0.0705,4.50159 0.36992,8.99668 0.55488,13.49501 1.5977,18.35548 4.733,36.71769 10.70504,54.18613 1.36046,2.20742 2.02633,6.93805 3.98624,8.79483 2.23914,-8.38198 -23.52669,8.64042 -23.62816,-0.47107 0,0 23.73455,-0.0509 23.73455,-0.0509 l 0,0 c 0.2825,8.67238 -22.76853,10.46413 -23.86791,1.84284 -1.24751,-3.07782 -2.19257,-6.26736 -3.17222,-9.43739 -4.79381,-17.89689 -7.40875,-36.36376 -9.06462,-54.78976 -0.1316,-4.5349 -0.38901,-9.0679 -0.39479,-13.60471 -0.0144,-11.29623 0.58867,-18.74862 1.39669,-30.11547 1.46429,-20.59896 3.39743,-41.1557 5.60428,-61.68835 2.83912,-24.36874 5.33701,-48.8327 9.0972,-73.08293 1.64295,-10.59576 5.17631,-28.87552 7.27467,-39.47223 1.24446,-6.28456 2.55074,-12.55672 3.82611,-18.83508 1.47827,-6.58592 7.13666,-31.86682 8.61294,-38.14622 6.05856,-25.77022 12.75918,-51.38254 19.13967,-77.07311 5.36969,-20.51156 10.77713,-41.02611 17.4149,-61.17277 1.20102,-3.59531 4.27366,-12.88659 5.57199,-16.39254 0.99343,-2.68258 2.13807,-5.30705 3.15953,-7.97908 2.0422,-5.34219 3.6128,-10.96993 6.95933,-15.70115 0,0 23.51993,1.55704 23.51993,1.55704 z" />
    <path
       style="fill:#000000;fill-opacity:1;fill-rule:nonzero;stroke:none"
       id="path3391"
       d="m 136.91364,423.15485 c 3.41242,-3.58908 7.30567,-6.50585 11.9199,-8.31543 12.99117,-3.34217 24.57446,-4.19714 34.22798,4.02378 3.70178,3.15244 5.28973,5.53509 8.47187,9.44316 10.50962,13.73696 20.06621,29.11901 34.40742,39.31591 3.01429,2.14323 6.35508,3.78554 9.53262,5.67831 8.86964,4.39932 18.33738,7.11202 28.07561,8.70451 2.31663,0.37884 4.65248,0.63698 6.98843,0.86844 1.80686,0.17903 7.25046,0.32939 5.43506,0.36255 -6.28076,0.11473 -12.56336,-0.0784 -18.84504,-0.1176 2.14437,-0.26194 2.0965,-0.0844 3.77467,-0.7614 0.13305,-0.0537 0.45219,-0.34112 0.36605,-0.22639 -0.16338,0.21761 -0.40427,0.36434 -0.60641,0.54651 0,0 23.62119,-1.53816 23.62119,-1.53816 l 0,0 c 0.20973,0.72367 0.62301,1.41758 0.6292,2.171 0.0205,2.49861 -3.23918,3.06453 -4.93787,3.42594 -8.87048,-0.038 -17.74272,0.0664 -26.61145,-0.11399 -2.52696,-0.0514 -9.85063,-1.19735 -11.86694,-1.59731 -9.62368,-1.90896 -18.95245,-4.91698 -27.65767,-9.50482 -3.20297,-2.00682 -6.57049,-3.77229 -9.60893,-6.02046 -14.32275,-10.59755 -23.75162,-26.20665 -35.12727,-39.58714 -3.75392,-4.06157 -7.31025,-8.30665 -12.39936,-10.76045 -1.01233,-0.48811 -4.29211,-1.04323 -3.17253,-1.14129 6.16535,-0.53998 29.03999,-1.0561 18.56598,-0.18241 -4.91072,1.03384 -8.14362,3.5485 -11.65224,7.02109 0,0 -23.53027,-1.69435 -23.53027,-1.69435 z" />
    <path
       style="fill:#000000;fill-opacity:1;fill-rule:nonzero;stroke:none"
       id="path3393"
       d="m 151.56832,479.73144 c 5.44223,-10.32749 13.10225,-19.06882 20.68522,-27.84494 10.99677,-11.94072 22.43704,-23.46213 33.83495,-35.01703 10.83702,-11.15357 3.60414,-6.55798 29.79329,-4.13383 0,0 -23.68295,0.0253 -23.68295,0.0253 l 0,0 c 7.87591,0.0909 15.75224,0.15119 23.62775,0.27263 0.23478,0.004 -0.49942,-0.0416 -0.69975,0.0809 -0.48283,0.29518 -0.84273,0.75566 -1.27193,1.1245 -3.68668,3.16812 -0.50894,0.28662 -4.96148,4.45425 -11.89592,11.17213 -23.63802,22.52483 -34.44744,34.77091 -7.27879,8.52475 -14.53141,17.15705 -19.38316,27.35745 0,0 -23.4945,-1.0901 -23.4945,-1.0901 z" />
    <path
       style="fill:#000000;fill-opacity:1;fill-rule:nonzero;stroke:none"
       id="path3395"
       d="m 212.0866,209.62722 c -7.98808,-0.56277 -20.41154,-0.38467 17.22634,-0.11918 0.70216,0.005 -1.4041,0.0439 -2.10436,0.0957 -1.77791,0.13164 -2.34057,0.25199 -4.07654,0.51892 -4.87504,0.87638 -8.33179,3.34355 -12.02285,6.49015 -7.96997,8.1585 -13.99381,17.2312 -18.21081,27.80091 -0.67886,2.88305 -2.48535,6.99994 -0.56991,9.89682 0.52199,0.78945 1.31154,1.51236 2.22341,1.76572 1.38931,0.38602 5.76243,0.1737 4.32548,0.0539 -5.41154,-0.45119 -10.8381,-0.69914 -16.25715,-1.04871 2.26857,-0.69609 4.5983,-1.21747 6.80571,-2.08826 8.03132,-3.16825 16.83391,-8.90709 22.18188,-15.80211 1.10714,-1.42741 1.8882,-3.08022 2.83229,-4.62032 0.43092,-1.57365 1.1181,-3.09874 1.29275,-4.72095 0.56192,-5.2192 -2.38844,-10.37759 -6.67547,-13.17817 -0.74658,-0.48772 -1.59902,-0.79004 -2.39854,-1.18506 -0.71924,-0.13175 -1.43847,-0.2635 -2.15771,-0.39525 0,0 23.2529,-2.95693 23.2529,-2.95693 l 0,0 c 0.70854,0.31923 1.41708,0.63846 2.12562,0.95769 0.77344,0.5548 1.6078,1.03328 2.32032,1.66441 4.37944,3.87924 7.07257,9.77126 6.40636,15.69199 -0.20593,1.83013 -0.9352,3.56267 -1.40279,5.344 -0.98401,1.70439 -1.77431,3.53639 -2.95202,5.11316 -1.25085,1.67467 -2.77585,3.13222 -4.28604,4.57738 -7.06512,6.76092 -15.5918,11.8321 -24.91728,14.7676 -9.64766,0.36343 -19.28919,1.20814 -28.94297,1.09028 -1.65424,-0.0202 -3.33729,-0.60933 -4.73054,-1.50139 -4.69303,-3.00483 -2.71577,-10.19164 -1.47423,-14.30932 1.53108,-3.74423 2.02514,-5.2509 4.04172,-8.8803 3.97069,-7.14636 9.12814,-13.4699 14.08976,-19.92776 3.65201,-3.76383 6.72383,-6.34834 11.84161,-7.82582 11.59287,-2.72451 23.7926,-1.66869 35.59314,-0.70741 0,0 -23.38008,3.43829 -23.38008,3.43829 z" />
    <path
       style="fill:#000000;fill-opacity:1;fill-rule:nonzero;stroke:none"
       id="path3397"
       d="m 395.79965,447.57079 c -12.46945,3.02939 -23.46952,10.21719 -33.57336,17.87922 -1.824,1.70857 -3.80873,3.26032 -5.47199,5.12572 -9.82749,11.02187 -20.29202,28.28879 -22.81883,42.88192 -0.80033,4.62218 -0.32316,9.37635 -0.48474,14.06453 1.051,10.11251 0.43686,12.90753 4.55442,21.91563 1.17628,2.57338 2.55706,5.12885 4.46178,7.22123 1.6365,1.79773 3.67085,3.37227 5.95047,4.21686 2.3585,0.87381 10.01842,0.89085 7.50622,0.76875 -4.695,-0.22819 -9.3731,-0.72484 -14.05964,-1.08727 2.98552,-1.13943 6.12201,-1.94286 8.95657,-3.41828 11.86361,-6.17515 21.05205,-16.1582 28.69894,-26.9154 2.7379,-3.85151 5.33785,-7.82223 7.55786,-11.99377 2.15784,-4.05472 3.69299,-8.4113 5.53948,-12.61695 1.21414,-4.00499 2.71219,-7.93468 3.64243,-12.01497 1.8527,-8.12649 3.20131,-19.93222 -0.70313,-27.78704 -2.93979,-5.91416 -5.39987,-6.37473 -10.73619,-9.61419 -3.03043,-0.0884 -6.06087,-0.17684 -9.09131,-0.26525 0,0 21.85517,-3.26984 21.85517,-3.26984 l 0,0 c 3.18797,0.44565 6.37594,0.8913 9.56392,1.33695 5.50275,4.017 7.88282,4.63505 10.71957,11.23543 3.62681,8.43867 1.94814,20.47578 -0.14866,29.00976 -1.02162,4.15797 -2.58964,8.16232 -3.88445,12.24348 -1.87348,4.31016 -3.42492,8.77511 -5.62043,12.93048 -2.24205,4.24345 -4.9283,8.24486 -7.65457,12.19468 -7.56169,10.95538 -16.26438,21.20288 -27.83891,28.10496 -2.76323,1.64776 -5.84092,2.69925 -8.76138,4.04888 -10.07581,0.33417 -20.14874,1.23362 -30.22744,1.00251 -2.63235,-0.0604 -5.33409,-0.66463 -7.6742,-1.87162 -7.68813,-3.96537 -11.5566,-15.22252 -12.87244,-23.00498 -0.69349,-4.10161 -0.59619,-8.29826 -0.89429,-12.44739 0.18773,-4.86349 -0.18646,-9.78143 0.56318,-14.59046 2.07728,-13.32607 8.18932,-24.12128 15.43328,-35.14977 1.97777,-3.01104 3.8484,-6.10919 6.0994,-8.92183 1.58483,-1.98025 3.57452,-3.59932 5.36177,-5.39897 1.82604,-1.4154 3.59892,-2.90219 5.47812,-4.2462 4.72694,-3.38075 7.50871,-4.87926 12.56357,-7.77113 4.78395,-2.73689 9.47744,-5.44254 14.78806,-7.03368 0,0 23.22175,3.238 23.22175,3.238 z" />
    <path
       style="fill:#000000;fill-opacity:1;fill-rule:nonzero;stroke:none"
       id="path3399"
       d="m 412.62379,236.12457 c -1.3593,0.5487 -3.28582,1.25466 -4.48258,2.06904 -6.5795,4.47731 -9.40094,12.83067 -12.39052,19.79207 -2.18769,5.83299 -3.95719,11.84956 -4.67255,18.056 -0.17341,1.50448 -0.50696,5.61543 0.11118,7.33561 0.25312,0.70436 0.93273,1.17081 1.39909,1.75621 1.47011,-0.33349 5.90169,-0.78074 4.41033,-1.00046 -5.68393,-0.83742 -11.67845,0.65571 -17.21308,-0.88579 -2.02103,-0.5629 3.99671,-1.32684 5.86878,-2.27382 3.86946,-1.95736 7.97044,-5.01412 11.06132,-8.05255 1.51264,-1.48698 2.78373,-3.20119 4.1756,-4.80178 1.00692,-1.57345 2.35539,-2.9748 3.02076,-4.72034 2.29697,-6.02599 -1.38285,-11.99623 -6.29648,-15.22278 -0.90557,-0.59464 -1.93637,-0.97214 -2.90456,-1.45821 0,0 23.11237,-2.4 23.11237,-2.4 l 0,0 c 0.93769,0.64629 1.94901,1.19701 2.81306,1.93888 5.14415,4.41673 8.46186,11.63754 6.01381,18.43231 -0.67177,1.86454 -2.1205,3.34882 -3.18074,5.02323 -1.42284,1.7113 -2.72072,3.53472 -4.2685,5.1339 -2.86337,2.95843 -7.49563,6.66284 -11.03261,8.75575 -11.47569,6.79041 -26.3227,6.49303 -38.90941,2.77835 -0.43506,-0.9395 -1.06989,-1.81024 -1.3052,-2.81849 -0.46705,-2.0012 -4.2e-4,-6.11435 0.27312,-7.92176 0.96235,-6.35886 2.88196,-12.5254 5.11294,-18.54008 2.76923,-6.84112 5.84989,-16.33811 11.5814,-21.35322 1.17533,-1.02841 2.88019,-1.75054 4.28177,-2.42305 0,0 23.4207,2.80098 23.4207,2.80098 z" />
    <path
       style="fill:#000000;fill-opacity:1;fill-rule:nonzero;stroke:none"
       id="path3401"
       d="m 514.34258,256.19462 c 11.38054,-5.30363 22.1836,-2.87124 35.52032,-2.55539 3.92473,0.093 5.2461,0.97887 8.86502,2.38482 1.5484,1.09185 3.2536,1.98982 4.6452,3.27556 2.30476,2.12943 4.20597,4.65942 6.38595,6.91642 2.21414,2.29237 4.47949,4.53638 6.79312,6.7283 6.15095,5.82735 12.67149,11.02188 19.4428,16.09241 4.06664,2.80408 8.02056,5.852 12.90896,7.04035 1.0393,0.25265 2.11035,0.39458 3.17918,0.43425 0.87162,0.0324 3.47936,-0.19679 2.60744,-0.21944 -7.05802,-0.18335 -14.11972,-0.17535 -21.17958,-0.26302 0.41704,-0.18353 0.83407,-0.36706 1.2511,-0.55059 0,0 23.44735,2.26235 23.44735,2.26235 l 0,0 c -0.4745,0.43814 -0.949,0.87627 -1.4235,1.3144 -8.39538,0.29329 -16.7878,0.68937 -25.18615,0.87985 -0.85747,0.0195 -1.71904,-0.0862 -2.56085,-0.25051 -5.95151,-1.16174 -10.7271,-5.04686 -15.44205,-8.5963 -6.57242,-5.23325 -12.94891,-10.59819 -19.03539,-16.40054 -3.88913,-3.70759 -9.59922,-9.80851 -13.8866,-13.10161 -1.44665,-1.11117 -3.16997,-1.80589 -4.75496,-2.70883 -1.46666,-0.42268 -2.90371,-0.96648 -4.39998,-1.26804 -1.43682,-0.28958 -5.83115,-0.40148 -4.3687,-0.4992 41.92432,-2.80127 19.94992,-1.08124 14.87727,0.17846 -1.37922,0.34251 -2.86419,0.98093 -4.19625,1.51763 0,0 -23.4897,-2.61133 -23.4897,-2.61133 z" />
    <path
       style="fill:#000000;fill-opacity:1;fill-rule:nonzero;stroke:none"
       id="path3403"
       d="m 505.40002,303.62455 c 2.42409,-2.28043 4.58,-4.82765 6.97265,-7.13824 2.63991,-2.54938 5.37849,-4.99459 8.06773,-7.49188 2.91838,-2.78329 5.85647,-5.54608 8.75515,-8.34989 9.30716,-9.00255 8.04883,-7.87117 17.20408,-17.40092 7.83492,-8.25566 15.24463,-16.91068 22.34607,-25.80256 2.70654,-3.38893 5.25071,-6.90118 7.95771,-10.28923 0,0 23.35305,1.78085 23.35305,1.78085 l 0,0 c -3.41063,3.03345 -6.24427,6.63649 -9.24835,10.0638 -7.60364,8.67483 -15.31555,17.25323 -22.9751,25.87854 -2.86414,3.04985 -5.6676,6.15783 -8.59242,9.14953 -10.1814,10.41426 -21.37512,19.92999 -30.37571,31.44673 0,0 -23.46486,-1.84673 -23.46486,-1.84673 z" />
    <path
       style="fill:#000000;fill-opacity:1;fill-rule:nonzero;stroke:none"
       id="path3405"
       d="m 519.7454,419.76649 c 0.1602,6.78822 0.15414,13.62028 0.59839,20.39702 0.45678,6.96773 1.42671,13.48799 2.32578,20.42676 0.84285,4.47444 1.59853,8.96618 2.52853,13.42332 2.66031,12.74974 6.10118,27.15191 11.14021,39.21172 0.90657,2.16967 2.03804,4.23836 3.05706,6.35754 2.22426,4.12224 4.76428,8.06911 7.6776,11.73778 0.97084,1.22256 1.93206,2.73723 3.54378,3.03725 -23.20457,-0.38078 -29.60699,-4.50685 -22.84934,-0.21747 0,0 23.68917,0.85413 23.68917,0.85413 l 0,0 c -1.8803,9.61635 0.25084,1.73954 -24.41514,1.78139 -4.3428,-4.70093 -7.13599,-10.66185 -10.14818,-16.22676 -0.95365,-2.19153 -2.01292,-4.34007 -2.86094,-6.5746 -6.48755,-17.09446 -8.69441,-35.43099 -13.12287,-53.07515 -2.13349,-13.64314 -3.77264,-27.35501 -4.74576,-41.13293 0,0 23.58171,0 23.58171,0 z" />
    <path
       style="fill:#000000;fill-opacity:1;fill-rule:nonzero;stroke:none"
       id="path3407"
       d="m 464.89482,519.87242 c 3.32401,-7.46017 7.8965,-14.20795 12.8579,-20.65375 2.04832,-2.43879 4.01182,-4.95142 6.14498,-7.31638 3.23829,-3.59018 6.6741,-6.99757 9.96275,-10.54168 2.9979,-3.23077 5.90483,-6.54507 8.89602,-9.78205 7.58709,-8.21052 15.34581,-16.25089 23.20295,-24.2016 5.10932,-5.19217 10.50641,-10.08465 15.93619,-14.93545 2.38958,-2.13478 4.73997,-4.31078 7.28808,-6.25467 0.2669,-0.18391 0.53379,-0.36782 0.80069,-0.55174 0,0 23.52205,2.78057 23.52205,2.78057 l 0,0 c -0.31361,0.0575 -0.62721,0.11505 -0.94081,0.17257 -3.01083,1.42935 -5.4949,3.66854 -8.05285,5.78936 -5.70517,4.73021 -11.27463,9.62976 -16.65146,14.73055 -14.5263,14.16456 -29.03074,28.57977 -41.91199,44.28295 -1.93206,2.35531 -3.68011,4.85574 -5.52017,7.28361 -4.56386,6.31624 -9.12367,12.78325 -11.96381,20.09502 0,0 -23.57052,-0.89731 -23.57052,-0.89731 z" />
    <path
       style="fill:#000000;fill-opacity:1;fill-rule:nonzero;stroke:none"
       id="path3409"
       d="m 525.60154,617.59274 c -7.36815,-0.7138 -15.95045,-1.48925 18.27574,0.0369 1.16416,0.0519 -2.31362,0.29574 -3.45678,0.52191 -3.72699,0.73738 -7.11065,2.01296 -10.56763,3.54518 -7.21675,3.84545 -13.18491,9.62445 -17.26644,16.74255 -1.27227,2.21882 -2.22034,4.60841 -3.33051,6.91261 -1.41591,5.3522 -4.16155,13.49429 -1.79119,19.06126 1.07757,2.53075 4.41211,4.95032 7.02009,5.53052 1.91274,0.42553 3.91746,0.11015 5.87619,0.16522 -4.29736,-0.77211 -11.03491,1.63515 -12.89207,-2.31635 -1.51469,-3.22283 6.64294,-2.64114 9.71851,-4.43607 7.82447,-4.56646 16.28885,-12.25747 20.3965,-20.49597 1.08434,-2.17482 1.4835,-4.62837 2.22525,-6.94255 0.32233,-6.55782 -0.58207,-11.041 -5.65138,-15.53273 -1.39819,-1.23889 -3.07356,-2.12421 -4.61034,-3.18632 0,0 22.67224,-2.11107 22.67224,-2.11107 l 0,0 c 1.55845,1.25374 3.29288,2.31574 4.67535,3.76122 5.09541,5.32766 5.89244,10.65493 5.33019,17.77406 -0.82928,2.51576 -1.30349,5.17788 -2.48784,7.54729 -4.23084,8.46426 -12.97199,16.63928 -20.84158,21.63135 -3.01922,1.91524 -6.04845,4.20365 -9.5637,4.85692 -10.34453,1.92242 -20.96246,1.84257 -31.44369,2.76385 -2.07746,-0.37773 -4.26924,-0.35562 -6.23237,-1.1332 -1.59054,-0.63001 -3.0127,-1.73074 -4.17269,-2.98819 -6.35543,-6.88937 -2.53366,-17.12705 -0.60141,-24.91373 1.05875,-2.41491 1.96627,-4.90193 3.17624,-7.24473 3.88363,-7.51968 9.49723,-13.75918 16.79804,-18.04136 1.15364,-0.59423 2.27397,-1.25814 3.46092,-1.78269 12.05906,-5.32937 25.79947,-4.33905 38.63544,-3.18613 0,0 -23.35108,3.46024 -23.35108,3.46024 z" />
    <path
       style="fill:#000000;fill-opacity:1;fill-rule:nonzero;stroke:none"
       id="path3411"
       d="m 281.37993,686.81727 c 10.77527,-7.44809 23.25824,-11.73317 35.38868,-16.39259 16.05385,-5.94076 32.43282,-10.93699 48.65545,-16.38868 2.86804,-0.96968 5.73397,-1.94581 8.58913,-2.95285 0,0 23.47131,2.96657 23.47131,2.96657 l 0,0 c -3.13553,0.93768 -6.26549,1.89386 -9.39361,2.85594 -16.57452,5.11657 -33.19411,10.13985 -49.46815,16.16144 -11.58209,4.46975 -23.55949,8.64079 -33.7369,15.93613 0,0 -23.50591,-2.18596 -23.50591,-2.18596 z" />
    <path
       style="fill:#000000;fill-opacity:1;fill-rule:nonzero;stroke:none"
       id="path3413"
       d="m 332.25822,627.58511 c -0.28953,11.27155 4.02383,22.21955 7.66437,32.67969 6.69354,16.91154 13.99488,33.67614 23.98021,48.92841 0.93497,1.21082 1.80199,2.4773 2.80491,3.63247 0.71437,0.8228 1.44486,1.65928 2.33505,2.28768 0.56008,0.39538 2.61194,0.71814 1.92637,0.72056 -7.29948,0.0258 -14.59282,-0.42669 -21.88892,-0.65011 -0.22424,-0.007 0.48341,0.12034 0.67304,4.6e-4 0.25083,-0.15857 0.33053,-0.49294 0.49579,-0.73941 0,0 23.61025,1.01706 23.61025,1.01706 l 0,0 c -0.1223,0.34495 -1.04359,3.18238 -1.44696,3.20311 -5.89779,0.30313 -20.17455,4.75102 -26.54918,-1.83069 -1.76473,-1.82205 -3.31558,-4.33939 -4.70666,-6.37969 -9.17123,-15.7175 -16.08551,-32.55557 -22.87615,-49.40741 -4.35878,-10.69521 -9.31053,-21.71186 -9.62946,-33.46213 0,0 23.60734,0 23.60734,0 z" />
    <path
       style="fill:#000000;fill-opacity:1;fill-rule:nonzero;stroke:none"
       id="path3415"
       d="m 88.89493,663.04071 c 2.972051,-5.53843 6.853407,-10.44498 10.842969,-15.26733 2.915761,-3.35577 5.969611,-6.56274 9.719381,-8.99366 2.67105,-1.7316 4.43167,-2.54297 7.26581,-3.99686 7.42905,-3.77508 15.32783,-6.21915 23.48232,-7.77768 14.03308,-1.87075 28.09148,-3.50555 42.07592,-5.73818 4.19878,-0.88872 8.55316,-1.39857 12.6,-2.90077 0,0 23.56617,2.15639 23.56617,2.15639 l 0,0 c -0.31552,0.34099 -0.55256,0.77681 -0.94655,1.02297 -0.97682,0.6103 -3.44598,1.08883 -4.38111,1.29561 -3.65356,0.80789 -4.34529,0.89945 -8.30307,1.63978 -13.92937,2.1076 -27.90295,3.86846 -41.86814,5.70842 -8.05442,1.38486 -15.90654,3.54743 -23.28555,7.14631 -3.45124,1.67057 -7.0127,3.30117 -10.10248,5.61128 -2.47979,1.85404 -4.4699,4.30299 -6.67361,6.45015 -3.9431,4.59246 -7.82717,9.32399 -10.42263,14.8398 0,0 -23.56943,-1.19623 -23.56943,-1.19623 z" />
    <path
       style="fill:#000000;fill-opacity:1;fill-rule:nonzero;stroke:none"
       id="path3417"
       d="m 168.9269,567.98909 c -2.79951,10.08639 -4.72628,20.39147 -6.65583,30.67117 -1.07664,5.73582 -2.22692,11.45921 -3.17525,17.21764 -0.94957,5.76603 -1.67827,11.56626 -2.5174,17.34939 -1.86528,13.55768 -3.37328,27.16197 -4.61582,40.79001 -0.49856,5.46821 -1.05381,10.95944 -1.1323,16.45317 0.0776,0.31434 0.15517,0.62867 0.23276,0.943 0,0 -23.65092,0.13196 -23.65092,0.13196 l 0,0 c 0.0357,-0.43531 0.0714,-0.87061 0.10716,-1.30591 3.48398,-18.99532 5.53801,-38.23123 8.50389,-57.30729 0.83306,-5.78674 1.74755,-11.56234 2.49917,-17.36022 0.74512,-5.74766 1.2672,-11.5225 1.99059,-17.27294 1.30203,-10.35021 3.2282,-20.59906 5.10995,-30.85479 0,0 23.304,0.54481 23.304,0.54481 z" />
    <path
       style="fill:#000000;fill-opacity:1;fill-rule:nonzero;stroke:none"
       id="path3419"
       d="m 57.52282,450.28377 c 3.075784,-2.99263 6.309466,-6.1693 10.252545,-8.01989 4.05717,-1.90414 6.968227,-2.53229 11.281572,-3.75401 8.998915,-2.46017 18.35074,-2.81683 27.628313,-2.85167 28.49817,-0.10702 20.47039,-0.40724 36.45677,0.42019 2.52719,0.24647 5.05833,0.4553 7.58156,0.73942 10.39139,1.17007 20.73248,2.68544 31.14258,3.71218 5.86563,0.57852 21.44976,1.85809 27.34518,2.35048 26.27507,1.81145 52.39917,5.14846 78.34033,9.64478 19.24438,3.41339 38.28589,7.92148 57.64105,10.71922 7.29265,1.05414 14.61043,1.92647 21.91565,2.8897 47.88575,5.92515 96.05489,8.79341 144.22269,11.18939 28.63643,1.22311 57.28928,2.35028 85.95542,2.47776 4.10839,0.0183 9.30505,2.75709 12.32525,-0.0281 2.98649,-2.75415 -8.12487,-0.0661 -12.1873,-0.0991 8.06066,-0.10302 16.14215,-0.7886 24.06264,-2.32244 1.29268,-0.28994 1.28925,0.58975 1.07212,-0.63869 -0.088,-0.40339 -0.17864,-0.81121 -0.35017,-1.18795 -0.90073,6.50154 8.29418,0.6834 22.77447,1.39563 0,0 -23.42096,-3.68849 -23.42096,-3.68849 l 0,0 c 49.87767,2.2601 23.12005,-6.9509 24.48339,1.57228 0.10549,0.51887 0.2105,1.0381 0.28348,1.5628 0.20738,1.66024 0.26171,3.36493 -1.45388,4.21262 -8.40352,1.75788 -17.0719,2.30392 -25.62794,2.53521 -11.07194,0.011 -29.62712,0.12602 -42.65803,-0.0667 -27.8593,-0.41198 -55.70504,-1.6631 -83.53547,-2.92675 -28.93141,-1.55359 -57.89475,-2.88316 -86.78972,-5.03917 -13.82635,-1.03167 -24.41713,-2.22597 -38.18622,-3.77652 -6.77417,-0.76285 -13.54351,-1.56801 -20.31526,-2.35201 -7.83091,-0.91413 -15.67877,-1.69324 -23.49274,-2.74239 -19.64433,-2.63758 -38.975,-7.28462 -58.49993,-10.62489 -25.68406,-4.60268 -51.56186,-7.8821 -77.61325,-9.55254 -3.58747,-0.30437 -24.15883,-2.04115 -27.57352,-2.36606 -10.69635,-1.01778 -21.33847,-2.49891 -32.03052,-3.54068 -2.56615,-0.25003 -5.13977,-0.41636 -7.70965,-0.62454 -9.16429,-0.38684 -14.91669,-0.51894 8.03194,-0.38122 2.5037,0.015 -5.00708,0.0721 -7.51002,0.13587 -6.67663,0.17021 -13.28051,0.48416 -19.77547,2.21508 -4.027047,1.03063 -6.985787,1.61649 -10.795827,3.22306 -3.757013,1.58421 -6.99811,4.38601 -9.778218,7.29824 0,0 -23.492855,-1.71011 -23.492855,-1.71011 z" />
    <path
       style="fill:#000000;fill-opacity:1;fill-rule:nonzero;stroke:none"
       id="path3421"
       d="m 98.577971,241.29854 c 8.842819,-5.04857 18.962259,-7.5102 28.824799,-9.72457 14.38853,-2.7452 29.05236,-3.93787 43.68061,-4.37923 22.03963,-0.57828 44.08867,0.73225 65.81275,4.52516 3.69954,0.64592 7.37334,1.43152 11.06,2.14728 13.75549,2.68241 27.16464,6.76503 40.71268,10.27886 10.16964,2.63762 12.99679,3.18902 23.33677,5.5253 34.60394,6.95165 69.80917,10.22283 104.84897,14.13877 5.80057,0.64572 11.60093,1.29324 17.4017,1.93715 18.69416,2.07511 37.37965,3.83126 56.15158,5.06451 16.54269,1.0868 24.04311,1.35129 40.42932,2.10139 15.81584,0.64149 31.63947,1.07924 47.46587,1.34861 3.89102,0.0662 7.90765,-0.82377 11.67371,0.15668 3.64244,0.94827 -7.62276,0.78404 -11.2914,-0.0571 -3.06737,-0.70332 6.28914,-0.24587 9.4337,-0.3688 8.30248,-0.86852 19.86771,-1.32933 27.01136,-6.40955 0.66083,-0.46995 1.20234,-1.08839 1.80351,-1.63258 1.20905,-1.54215 1.98661,-3.65888 0.15324,-5.14368 -0.36844,-0.29839 -2.13957,-0.90843 -2.60205,-1.07776 -0.39187,-0.0594 -0.78374,-0.11886 -1.17562,-0.17829 0,0 23.44316,-2.95843 23.44316,-2.95843 l 0,0 c 0.39648,0.19787 0.79296,0.39574 1.18944,0.59361 4.02035,2.83716 4.85684,6.28949 2.2796,10.59587 -0.65803,0.71658 -1.22727,1.52625 -1.97409,2.14974 -2.10111,1.75414 -4.52044,2.80928 -7.09175,3.69454 -6.8406,2.35508 -14.05005,3.17618 -21.22511,3.7269 -33.00199,1.49426 -66.05658,-0.20782 -99.04079,-1.37755 -32.41796,-1.60223 -64.74356,-3.58691 -97.00333,-7.23713 -5.70871,-0.64595 -11.41444,-1.31785 -17.12166,-1.97677 -35.45069,-4.02405 -71.07974,-7.28705 -106.11699,-14.19346 -8.86009,-2.01229 -14.92296,-3.32786 -23.7119,-5.56634 -13.48463,-3.43443 -26.79937,-7.56953 -40.49821,-10.13477 -3.74017,-0.67959 -7.46848,-1.42807 -11.22052,-2.03876 -9.45128,-1.53832 -19.01134,-2.59315 -28.55677,-3.33713 -2.81541,-0.21944 -11.25896,-0.21676 -8.45424,-0.54568 5.05694,-0.59305 10.18179,-0.1693 15.27268,-0.25395 -14.59599,0.20421 -29.23598,1.3185 -43.60553,3.9486 -9.5068,2.01149 -19.26155,4.21144 -27.8229,8.97294 0,0 -23.472589,-2.31433 -23.472589,-2.31433 z" />
    <path
       style="fill:#000000;fill-opacity:1;fill-rule:nonzero;stroke:none"
       id="path3423"
       d="m 71.723601,714.0925 c 3.01854,-6.36365 6.568755,-12.45279 10.426198,-18.339 4.731119,-7.13922 10.141752,-13.77341 15.574805,-20.37976 5.638356,-6.9073 11.298446,-13.79408 17.175666,-20.50014 1.40275,-1.4211 2.74555,-2.90396 4.20824,-4.26328 2.12142,-1.9715 4.37037,-3.80131 6.53721,-5.72279 4.84047,-4.29237 7.73424,-7.06018 12.66893,-11.21633 5.90467,-4.97311 8.0363,-6.485 14.25844,-11.24693 11.80132,-9.04804 23.80232,-17.81526 35.89209,-26.47154 15.09251,-10.65465 29.69491,-21.9713 44.2765,-33.30761 3.16364,-2.34184 6.29313,-4.73053 9.49092,-7.02552 7.05352,-5.06217 17.51223,-12.15106 24.54673,-16.99352 14.55318,-10.0182 29.03989,-20.12992 43.5136,-30.2624 30.03317,-21.8902 60.81675,-42.7146 91.16638,-64.15612 27.23997,-19.25912 53.84287,-39.38673 80.37059,-59.60765 23.81597,-18.6483 47.08154,-38.00591 69.79524,-57.9815 21.85374,-19.6906 40.71975,-42.36849 59.75675,-64.71288 14.30398,-16.61283 29.28606,-32.66843 42.86652,-49.89542 2.23477,-2.83483 4.36067,-5.75382 6.54101,-8.63073 5.36351,-7.06596 10.40607,-14.36725 15.49464,-21.63181 0.0428,-0.0761 0.0861,-0.15188 0.12849,-0.22822 0.12034,-0.21693 -0.35015,0.72089 -0.10261,0.73709 22.37899,1.46455 29.44237,-3.58816 22.49876,1.21067 0,0 -23.63328,-1.79175 -23.63328,-1.79175 l 0,0 c 5.31296,-7.51779 28.00375,-8.2976 24.66453,1.63807 -6.02501,6.95712 -11.43796,14.41173 -17.29769,21.50467 -3.0293,3.80721 -12.0844,15.22658 -14.90149,18.59309 -11.35077,13.56452 -23.51822,26.44208 -34.84989,40.02565 -9.57602,10.86683 -19.30191,21.58994 -28.96618,32.37771 -1.76576,1.97103 -19.83172,22.39436 -22.30085,24.9589 -2.59729,2.69767 -5.44637,5.14107 -8.16955,7.71161 -9.37366,7.9998 -18.80487,15.9083 -28.40505,23.63665 -31.17476,25.09639 7.864,-6.44734 -26.62219,21.036 -5.49992,4.38309 -10.93475,8.84724 -16.40212,13.27087 -10.40777,8.34039 -17.2253,13.92744 -27.61958,21.8277 -17.24031,13.10365 -35.139,25.31723 -52.77482,37.8736 -15.80242,11.20673 -31.7665,22.17537 -47.59459,33.34484 -14.12544,9.96797 -15.231,10.94575 -29.0713,20.7837 -4.7417,3.37049 -9.50959,6.70398 -14.26439,10.05597 -14.3188,10.12593 -28.64827,20.23627 -42.99315,30.32523 -8.74976,6.15383 -15.29985,10.6654 -23.80603,16.98295 -3.09162,2.29615 -6.11965,4.67671 -9.17947,7.01507 -14.45826,11.32454 -28.9062,22.67319 -43.79833,33.42621 -12.00788,8.89287 -24.30814,17.38165 -36.23829,26.38216 -12.88129,9.92667 -25.5239,20.28148 -36.76356,32.06931 -5.79732,6.73995 -11.52909,13.53442 -17.14513,20.42646 -5.29734,6.6052 -10.77198,13.08121 -15.4705,20.1409 -3.67954,5.72186 -7.286698,11.54554 -9.93288,17.83148 0,0 -23.549319,-0.82166 -23.549319,-0.82166 z" />
    <path
       style="fill:#000000;fill-opacity:1;fill-rule:nonzero;stroke:none"
       id="path3425"
       d="m 184.04643,170.22055 c 2.57521,5.23799 6.10974,9.91432 9.15397,14.87971 6.22382,11.79542 12.51066,23.57578 18.22968,35.62688 8.94766,20.07756 18.04359,40.08192 27.50438,59.9238 2.43891,5.02909 4.84506,10.0742 7.31674,15.08727 5.04429,10.23085 10.27248,20.37024 15.33034,30.59439 8.29422,16.76628 16.44756,33.60216 24.74477,50.36732 10.2392,20.33192 20.2816,40.80064 31.45633,60.64461 10.10439,17.94328 22.58257,38.0829 33.91374,55.13995 5.88201,8.8543 12.10967,17.47405 18.16451,26.21108 20.11818,27.61449 41.71306,54.55967 67.43512,77.22129 12.61588,11.11483 17.21944,13.84985 30.7809,23.45914 22.62198,14.46297 46.95696,25.91605 71.71006,36.18711 13.73888,5.45867 27.12709,11.72326 40.63632,17.71401 11.65626,4.96007 23.19211,10.17593 34.38862,16.10548 3.09942,1.6079 6.18967,3.23523 9.31968,4.78332 8.33025,3.75645 -20.06439,7.89655 -24.56586,0.76757 -0.51472,-0.68721 -0.83786,-1.32806 -1.14493,-2.13388 0,0 23.67055,-1.07095 23.67055,-1.07095 l 0,0 c 0.3695,0.55951 0.73501,1.12336 1.15792,1.64494 6.71386,6.69112 -15.74408,7.73361 -22.75356,3.34989 -2.84427,-1.66691 -5.7355,-3.25249 -8.6122,-4.86216 -10.87336,-5.95533 -22.17341,-11.06019 -33.52792,-16.02263 -13.56154,-5.9426 -27.1274,-11.87358 -40.7493,-17.6769 -24.08031,-10.6396 -47.50879,-22.6935 -69.72906,-36.86307 -13.56612,-9.83178 -17.84897,-12.35806 -30.34599,-23.79 -12.11563,-11.08304 -20.17043,-20.08535 -30.85923,-32.73536 -17.91879,-21.20659 -17.89242,-22.05246 -34.64967,-45.00747 -7.9582,-11.82129 -29.46725,-43.61152 -36.71946,-55.06604 -5.49766,-8.68329 -10.62517,-17.5955 -15.91636,-26.40612 -5.02176,-8.36197 -10.20961,-16.62765 -15.02245,-25.11159 -3.77047,-6.64649 -14.77011,-28.4789 -18.36286,-35.5492 -15.82541,-32.11178 -31.80736,-64.14223 -48.09449,-96.02265 -9.98804,-19.82024 -19.51765,-39.84587 -29.04992,-59.88631 -5.66966,-12.05831 -11.75958,-23.95702 -18.75143,-35.30796 -3.3103,-4.96466 -6.8014,-9.82652 -9.61069,-15.10272 0,0 23.55175,-1.09275 23.55175,-1.09275 z" />
    <path
       style="fill:#000000;fill-opacity:1;fill-rule:nonzero;stroke:none"
       id="path3661"
       d="m 318.30204,715.75921 c -0.50988,-2.62945 -1.71154,-8.52888 -1.89697,-10.92551 -0.24044,-3.10757 -0.12281,-6.23271 -0.22805,-9.34779 -0.10986,-3.25169 -0.49385,-4.8261 0.40845,-7.76496 -0.006,-0.92118 -0.0733,-1.8441 -0.0166,-2.76355 1.72455,-27.92826 -0.17258,16.87533 0.0896,-18.99503 0.0315,-4.31167 0.6482,-8.60244 0.7673,-12.91258 0.70657,-25.57171 -0.87634,-1.245 0.48976,-19.83909 0.14567,-1.60105 0.39913,-3.19593 0.43702,-4.80314 0.0201,-0.85069 -0.27104,-1.6882 -0.26391,-2.5391 0.0104,-1.23693 0.21688,-2.46446 0.31615,-3.69745 0.11742,-1.45837 0.22261,-2.9177 0.33391,-4.37655 0.367,-2.82841 0.82592,-5.64641 1.10098,-8.48524 0.39488,-4.07553 0.60539,-8.16681 0.90809,-12.25022 2.84677,-21.69492 3.13208,-21.98111 4.89716,-41.11085 0.20299,-2.20007 0.22193,-4.41587 0.46417,-6.61195 0.71063,-6.44242 0.10076,1.06354 1.52817,-4.19322 0.39691,-1.46168 0.4697,-2.99258 0.70455,-4.48888 3.79095,-10.65424 4.28835,-22.11519 6.57451,-33.0928 1.26383,-6.06864 3.13792,-11.99604 4.52147,-18.03851 3.29793,-14.4032 3.15621,-14.74083 5.00616,-27.1499 0.25547,-1.57003 1.12255,-8.1982 2.07558,-10.42255 0.73616,-1.7182 1.97454,-3.18742 2.74051,-4.89254 2.35003,-5.23134 4.55464,-12.84625 6.1755,-18.10508 1.44427,-4.68586 2.85811,-9.38105 4.28716,-14.07158 2.88024,-7.7066 5.94692,-15.34608 8.64071,-23.11982 12.45859,-35.95307 -3.11607,6.05657 5.55062,-18.23832 6.17826,-17.31923 4.38393,-6.65922 12.89966,-37.70298 2.18662,-7.97123 3.31471,-16.19568 4.97206,-24.29352 1.00535,-5.48541 2.33382,-10.92134 3.01604,-16.45624 0.48798,-3.95896 -0.48859,-8.2366 -0.80656,-12.16411 -0.79407,-9.80817 -0.68266,-19.52224 -0.50433,-29.35049 -0.23441,-18.0904 0.60954,-20.46264 -3.15242,-38.32773 -0.41579,-1.97456 -4.0909,-4.64455 -2.31096,-5.59512 3.23381,-1.72699 7.36025,0.25714 10.95453,0.97907 0.40904,0.0822 -0.18101,1.16583 -0.59331,1.10206 -4.63028,-0.71618 -9.10765,-2.20458 -13.66147,-3.30687 -2.72524,-11.98492 -4.52353,-24.18389 -8.81637,-35.76661 -1.22523,-3.30585 -2.98468,-6.38857 -4.43533,-9.60189 -2.53093,-5.60621 -0.70516,-2.94284 -3.72629,-6.64507 -0.3697,-1.35491 -1.20154,-2.56951 -1.47976,-3.94668 -0.35552,-1.75982 -0.28288,-3.58274 -0.55336,-5.35762 -0.25465,-1.67103 -0.58184,-3.33478 -1.0201,-4.9673 -1.57034,-5.84958 -1.09198,-1.52268 -1.37078,-4.95009 13.72919,0.51471 12.16564,-2.20126 12.25024,5.40169 0,0 -11.80379,0.0348 -11.80379,0.0348 l 0,0 c 0.12871,-0.76489 0.3812,-1.51905 0.38612,-2.29468 0.0354,-5.5745 -7.89002,-0.69858 10.64735,-3.35869 0.31114,1.66866 0.85475,3.29534 1.06464,4.97973 0.20403,1.6373 -0.0114,3.31568 0.26102,4.943 0.54525,3.25759 1.71363,6.02951 3.22124,8.89259 1.99079,3.2785 1.6308,2.37876 3.22004,6.86954 5.02086,14.1876 1.86807,6.09765 6.9314,22.59943 1.4733,4.80162 3.26849,9.50247 4.67567,14.32388 0.80648,2.76322 1.30636,5.60683 1.95954,8.41024 -3.21111,1.0992 -6.26759,2.86025 -9.63332,3.2976 -0.72362,0.094 -0.16744,-2.00929 0.55414,-2.11781 4.06504,-0.61137 8.61742,-1.58303 12.33093,0.17994 1.73817,0.82519 -0.0974,3.86779 0.19954,5.76883 5.03703,32.24552 3.48478,6.17229 4.04239,38.46049 0.10162,3.65569 0.22197,7.31092 0.30487,10.96709 0.0674,2.97245 -0.0239,5.95008 0.14599,8.91844 0.17843,3.11729 0.54165,6.22204 0.89815,9.32401 0.21971,1.91176 0.95881,3.79303 0.82999,5.71306 -0.5347,7.96953 -7.17221,14.9908 -5.8225,23.24418 -1.99793,8.09517 -4.11004,16.163 -5.99377,24.28551 -2.30647,9.94527 -4.26798,19.96846 -6.5758,29.91342 -0.62337,2.68623 -1.23519,5.39319 -2.21559,7.97064 -2.39485,6.29609 -7.04485,11.60226 -8.93512,18.12591 -2.83899,7.57236 -4.91944,15.40782 -7.37916,23.11173 -2.15289,10.08791 -2.99077,15.15851 -5.80198,24.60689 -0.77913,2.61861 -1.65249,5.21202 -2.64012,7.75932 -1.26249,3.25621 -2.77121,5.27784 -3.67483,8.58419 -0.5866,2.14637 -0.91853,4.35434 -1.37779,6.53151 -2.97845,9.70667 -5.27013,16.6246 -7.47899,27.06608 -1.05995,5.0105 -4.78791,29.0024 -5.53659,34.61947 -0.46624,3.49806 -0.64347,7.03069 -1.11268,10.52835 -0.27497,2.04975 -0.74556,4.06846 -1.11834,6.10269 -0.29625,1.34562 -0.75341,4.77206 -1.76732,6.42788 -0.47037,0.76816 -1.3476,1.29359 -1.64496,2.14383 -0.73723,2.10791 -1.01257,4.3523 -1.39641,6.55218 -3.74568,21.46744 -2.57386,15.55923 -3.95301,41.09647 -2.20308,27.86332 -0.41542,-0.78199 -0.64327,20.73326 -0.0526,4.96394 -0.52856,3.6375 -1.4561,8.11701 -0.38997,1.88333 -0.38251,5.7795 -0.42756,7.23334 -2.52938,12.81551 -1.19091,3.27744 -1.38221,19.83789 -0.0496,4.29568 -0.40663,8.585 -0.42347,12.88092 -0.0288,7.34005 0.78619,14.59624 0.84764,21.91838 -0.22019,0.97543 -0.56772,2.3715 -0.62172,3.33291 -0.21813,3.88363 0.20769,10.33703 0.39764,13.48007 0.1234,2.04189 0.0946,4.11007 0.4887,6.11736 0.31969,1.62814 1.09038,3.1342 1.63556,4.7013 0,0 -11.49971,0.25151 -11.49971,0.25151 z" />
    <path
       style="fill:#000000;fill-opacity:1;fill-rule:nonzero;stroke:none"
       id="path3663"
       d="m 515.17034,702.86002 c -1.70163,-4.32164 -2.47033,-5.65962 -3.27929,-10.39323 -0.74159,-4.33946 -1.20661,-16.05085 -1.31907,-18.73664 -0.41905,-10.00734 -0.37135,-13.28068 -0.46381,-23.1793 0.12264,-4.01445 0.24527,-8.0289 0.3679,-12.04336 -0.34047,-5.18165 -1.0466,-10.35219 -1.02143,-15.54496 0.0276,-5.6917 0.86171,-11.35162 1.17935,-17.03452 0.21693,-3.88107 0.17339,-7.77464 0.42416,-11.65368 0.45511,-7.04022 0.82786,-8.54455 1.85248,-14.72279 2.28009,-14.51225 4.23487,-29.07773 6.62879,-43.57215 0.77442,-4.68884 1.76878,-9.33976 2.5329,-14.0303 3.99965,-24.55178 -0.69562,-0.96793 4.96942,-27.48151 0.81204,-3.63865 1.62408,-7.27731 2.43611,-10.91597 0.32569,-3.31305 0.2775,-6.68447 0.97705,-9.93916 0.79553,-3.70121 2.65713,-7.11542 3.48275,-10.81003 0.86422,-3.86737 0.97026,-7.86695 1.56635,-11.78462 1.75603,-11.54105 3.82868,-23.03171 5.73774,-34.54844 4.10197,-18.75065 5.91272,-25.7681 8.95636,-44.59303 0.72226,-4.46716 0.94129,-9.00848 1.72072,-13.46602 0.68105,-3.8949 1.90009,-7.67977 2.65541,-11.56096 0.87377,-4.48983 1.26194,-9.0693 2.2295,-13.53986 1.88181,-8.69475 4.20875,-17.28716 6.31312,-25.93075 2.44301,-5.85088 0.39114,-12.31277 1.6035,-18.32258 0.16645,-0.82511 0.8315,-1.47044 1.13671,-2.25489 0.9811,-2.52159 2.113,-5.01155 2.71672,-7.64906 1.09915,-4.80189 1.58198,-9.72433 2.37297,-14.58649 1.64403,-6.86069 3.28806,-13.72138 4.93209,-20.58207 3.62692,-12.57691 3.96425,-25.70277 6.35524,-38.48216 3.04041,-16.25034 2.28587,-2.96217 4.68865,-19.10996 0.11703,-0.78645 -0.2152,-1.57558 -0.32281,-2.36338 0.39223,-1.30194 0.78446,-2.60389 1.17669,-3.90584 3.49569,-10.6712 6.65896,-21.46898 9.30581,-32.38424 0.54013,-2.22739 1.25554,-4.44188 1.41778,-6.72807 0.0571,-0.80518 -1.58137,-2.21949 -0.77756,-2.29337 3.68834,-0.33897 7.35281,0.90079 11.02921,1.35119 -0.28067,0.55214 -0.56134,1.10429 -0.842,1.65644 0.11443,0.41907 0.47309,0.84263 0.3433,1.2572 -0.11731,0.37468 -0.65858,0.43234 -0.95342,0.6916 -0.15733,0.13835 -0.26127,0.3276 -0.3919,0.4914 0,0 -11.73555,-1.5804 -11.73555,-1.5804 l 0,0 c 1.60037,0.37736 1.05139,0.27686 1.36829,-1.28576 0.13125,-0.64721 0.33108,-1.2786 0.49661,-1.9179 4.0764,-0.20695 8.1966,-1.25177 12.2292,-0.62086 0.82456,0.129 -0.15931,1.66826 -0.36577,2.47691 -0.57987,2.27121 -1.46254,4.46088 -1.98873,6.74512 -10.39217,45.11321 7.86744,-28.67264 -5.50465,24.56911 -0.65455,2.63374 -1.28686,5.27296 -1.93028,7.90943 -0.44426,1.29467 -0.87185,2.59518 -1.33278,3.884 -0.27374,0.76543 -0.65443,1.49436 -0.87095,2.2779 -3.25156,11.76675 -1.68475,7.16023 -4.22391,19.07853 -8.88895,41.72299 1.18293,-8.46825 -8.05697,38.46081 -1.18091,6.87336 -2.37013,13.7453 -3.54273,20.62009 -0.83102,4.87209 -1.62167,9.75108 -2.46812,14.62052 -0.45577,2.62193 -0.65606,5.30946 -1.43846,7.8531 -0.25364,0.8246 -1.30612,1.22226 -1.60229,2.03255 -2.15299,5.89022 -0.29147,12.92706 -4.57069,18.25045 -9.45425,55.0466 -0.46072,4.50573 -7.28072,39.52081 -0.74798,3.84027 -1.21292,7.73588 -2.06909,11.55349 -4.94574,22.05272 -3.4056,6.61445 -7.95628,35.3896 -1.18653,7.50272 -1.75313,15.09043 -2.62969,22.63565 -1.23326,6.22331 -2.6279,12.41681 -3.6998,18.66994 -3.91393,22.83278 -0.68471,8.33995 -3.76345,27.69219 -2.82095,17.73186 -1.04774,3.94629 -4.57149,20.7708 -0.75566,3.60798 -1.23723,7.26797 -1.85585,10.90196 -1.07563,4.85494 -2.15126,9.70988 -3.22689,14.56481 -0.77639,4.29123 -1.40623,8.61156 -2.32917,12.87367 -1.01816,4.70184 -2.72769,9.254 -3.49101,14.00388 -2.3241,14.46189 -1.30094,29.36344 -4.92915,43.63281 -1.18892,8.74605 -2.96657,17.36261 -3.42606,26.20659 -0.29395,5.65784 -0.36413,11.32812 -0.31908,16.99342 0.0732,9.20521 1.03678,18.39255 0.69629,27.60774 0.84764,15.20651 0.66936,7.50151 0.4963,23.11584 0.22597,4.09651 1.09117,8.13521 1.45944,12.22139 0.18676,2.07223 -0.1999,4.19755 0.20429,6.23854 0.7068,3.56907 3.15732,6.63143 3.88548,10.20018 0,0 -11.39378,0.52865 -11.39378,0.52865 z" />
    <path
       style="fill:#000000;fill-opacity:1;fill-rule:nonzero;stroke:none"
       id="path3667"
       d="m 152.0871,692.2394 c 0.75437,-4.04897 -0.0629,-8.16877 0.32797,-12.22718 0.31437,-3.26388 1.15884,-6.45968 1.52182,-9.71851 0.15319,-1.37523 -0.0538,-2.76955 0.0231,-4.15115 0.0539,-0.96821 0.27174,-1.92082 0.36851,-2.88569 0.2242,-2.23544 0.39617,-4.47582 0.59426,-6.71372 1.83404,-14.70089 2.04479,-13.4325 2.47928,-27.3933 0.11565,-3.71598 -0.16124,-7.44459 0.10455,-11.15286 0.43848,-6.11773 1.50901,-12.17735 2.00579,-18.29063 4.28123,-52.68379 -3.30947,23.89632 2.34026,-30.95105 0.56474,-6.02946 1.91909,-19.07963 2.18523,-26.07304 0.0952,-2.50225 -0.13902,-5.01051 -0.0284,-7.51213 0.11856,-2.68101 1.24601,-9.36269 1.56267,-11.67695 0.30672,-2.24169 0.5597,-4.49041 0.83955,-6.73562 0.22964,-2.87705 0.26769,-5.77585 0.68893,-8.63115 0.39915,-2.70552 1.23958,-5.32844 1.76645,-8.01202 0.78524,-3.99951 1.44611,-8.02245 2.16917,-12.03367 1.39984,-6.36002 2.86566,-12.70588 4.19952,-19.08007 10.893,-52.05482 -4.29125,16.13449 12.99992,-59.72753 1.11587,-7.17879 2.54041,-14.31635 3.34762,-21.53636 0.3005,-2.68775 -0.0273,-5.40894 -0.0327,-8.11343 -3.4e-4,-0.1726 -0.0112,0.68767 0.0177,0.5175 0.30106,-1.77587 0.53372,-3.56266 0.80058,-5.34398 1.13159,-5.26272 2.41784,-10.49456 3.39478,-15.78817 1.35506,-7.34249 2.39938,-14.73894 3.59907,-22.10841 1.03461,-11.14902 3.35738,-22.1789 3.98509,-33.37274 0.17918,-3.19533 -0.0348,-6.40735 0.20216,-9.59891 0.40706,-5.48377 1.00733,-10.95148 1.51099,-16.42722 0.20479,-6.93794 0.40958,-13.87588 0.61437,-20.81382 0.019,-4.9926 -0.0725,-9.98684 0.0571,-14.9778 0.41837,-16.11782 1.62116,-18.0637 0.0712,-34.08398 -0.11679,-1.20716 -2.43112,-3.12271 -1.25417,-3.41541 3.6646,-0.91137 7.52754,0.61282 11.29131,0.91924 -4.3126,-1.83645 -9.82052,-2.00884 -12.93781,-5.50936 -2.28616,-2.5672 -0.64603,-6.84645 -1.0998,-10.25396 -0.5512,-4.13914 -1.32655,-8.24581 -1.9143,-12.37992 -0.5869,-4.12819 -0.81358,-8.31209 -1.60938,-12.40515 -1.11804,-5.75045 -2.29029,-8.48294 -4.12008,-13.30236 -5.09467,-2.78912 13.36775,-2.78551 10.9227,-0.0876 -5.43244,5.99425 -11.33805,3.69318 -13.59645,-0.49094 -0.81325,-1.5067 -0.72736,-1.04609 -0.30556,-2.35872 12.35425,0.0762 8.99832,-2.74278 13.06273,1.49901 0,0 -11.78641,0.75268 -11.78641,0.75268 l 0,0 c -3.02782,-4.45372 -1.43616,-1.27518 10.37649,-2.46114 -0.76519,1.01593 -0.6275,0.40607 0.6125,1.52299 0.15641,0.14089 0.64558,0.43387 0.4363,0.4566 -3.69942,0.40169 -14.76226,1.563 -11.14118,0.70576 11.39061,-2.69653 9.93556,-4.06238 12.95233,0.17646 0.52421,4.3336 1.08489,9.34647 1.94778,13.41899 0.88503,4.17702 2.42067,8.20795 3.16203,12.41284 0.72043,4.08615 0.6861,8.27263 1.21068,12.3885 0.43577,3.41906 3.31899,7.17854 1.66888,10.20459 -1.76076,3.22895 -6.59674,3.25399 -9.8951,4.88099 3.87757,-0.0888 7.89573,-1.30497 11.63271,-0.26647 1.15389,0.32067 0.26369,2.38358 0.29379,3.58082 0.14137,5.62219 0.12929,11.24723 0.22045,16.87045 0.0932,5.74958 0.45736,11.49882 0.33261,17.2478 -0.25932,11.95056 -2.57658,23.81144 -1.8213,35.81385 0.14822,5.47218 0.25973,10.94548 0.44466,16.41655 0.0527,1.55963 0.35155,3.11558 0.26823,4.67388 -0.0892,1.66892 -0.53999,3.29885 -0.78294,4.9524 -0.26389,1.79601 -0.40189,3.6117 -0.73749,5.3957 -5.96293,31.69732 1.89616,-15.48648 -5.08357,28.06319 -1.06959,7.37547 -2.21583,14.74024 -3.20876,22.12642 -0.7062,5.25321 -1.31445,10.51957 -1.88825,15.78889 -0.14845,1.36323 0.005,2.76278 -0.27802,4.10445 -0.0731,0.34611 -0.637,0.41686 -0.74814,0.7527 -3.20448,9.68341 -3.84165,20.13693 -7.85241,29.5749 -17.16014,108.98614 2.38639,-11.37421 -10.44354,59.76975 -1.14297,6.33798 -1.92848,12.73527 -2.91024,19.10022 -0.61765,4.00431 -1.37477,7.98845 -1.88797,12.00748 -0.33956,2.65919 -0.22739,5.37028 -0.6687,8.01448 -0.48494,2.90567 -1.40101,5.72273 -2.10151,8.58409 -0.15507,10.18038 0.12196,3.2768 -0.70546,13.28206 -0.14118,1.70715 -0.0889,3.43513 -0.36242,5.12613 -0.40854,2.52591 -1.27035,4.96448 -1.6782,7.4905 -0.70697,4.37864 -2.52725,23.96575 -2.73237,26.06393 -1.02245,43.73454 0.59684,-11.25903 -1.67974,30.92907 -0.32894,6.09571 -0.11625,12.21415 -0.49271,18.30711 -0.23088,3.73691 -0.98303,7.42522 -1.32752,11.15338 -1.00973,10.92772 -0.97442,16.14027 -1.31212,27.41115 -0.10746,2.24731 -0.0212,4.5123 -0.32239,6.74193 -0.32266,2.3888 -2.33491,4.39148 -1.81467,7.0001 -0.63451,7.29366 -0.30131,14.66987 -0.75897,21.97514 0,0 -11.29298,-0.11255 -11.29298,-0.11255 z" />
  </g>
</svg>
