<?xml version="1.0" encoding="UTF-8" standalone="no"?>
<svg
   xmlns:dc="http://purl.org/dc/elements/1.1/"
   xmlns:cc="http://creativecommons.org/ns#"
   xmlns:rdf="http://www.w3.org/1999/02/22-rdf-syntax-ns#"
   xmlns:svg="http://www.w3.org/2000/svg"
   xmlns="http://www.w3.org/2000/svg"
   xmlns:sodipodi="http://sodipodi.sourceforge.net/DTD/sodipodi-0.dtd"
   xmlns:inkscape="http://www.inkscape.org/namespaces/inkscape"
   id="svg4335"
   viewBox="0 0 420.86 314.89"
   version="1.1"
   inkscape:version="0.47 r22583"
   width="100%"
   height="100%"
   sodipodi:docname="cali.svg">
  <sodipodi:namedview
     pagecolor="#ffffff"
     bordercolor="#666666"
     borderopacity="1"
     objecttolerance="10"
     gridtolerance="10"
     guidetolerance="10"
     inkscape:pageopacity="0"
     inkscape:pageshadow="2"
     inkscape:window-width="1610"
     inkscape:window-height="1408"
     id="namedview5062"
     showgrid="false"
     inkscape:zoom="1.75"
     inkscape:cx="139.28701"
     inkscape:cy="157.78398"
     inkscape:window-x="316"
     inkscape:window-y="30"
     inkscape:window-maximized="0"
     inkscape:current-layer="layer1" />
  <defs
     id="defs4337">
    <inkscape:perspective
       sodipodi:type="inkscape:persp3d"
       inkscape:vp_x="0 : 157.445 : 1"
       inkscape:vp_y="0 : 1000 : 0"
       inkscape:vp_z="420.86 : 157.445 : 1"
       inkscape:persp3d-origin="210.43 : 104.96333 : 1"
       id="perspective5064" />
  </defs>
  <metadata
     id="metadata4340">
    <rdf:RDF>
      <cc:Work
         rdf:about="">
        <dc:format>image/svg+xml</dc:format>
        <dc:type
           rdf:resource="http://purl.org/dc/dcmitype/StillImage" />
        <dc:title></dc:title>
      </cc:Work>
    </rdf:RDF>
  </metadata>
  <g
     id="layer1"
     transform="translate(-190.92857,-85.576468)"
     stroke-linejoin="miter"
     stroke-linecap="butt"
     stroke="#000">
    <path
       id="path4397"
       d="m192,146.65,1.1429-60.571,85.714,0l1.15,57.711-88,2.86z"
       class="ttt-cell 00"
       stroke-width="1px"
       fill="#FFF" />
    <path
       id="path4399"
       d="m285.41,88.688c0.22673,17.967-0.53424,36.248,1.75,54,47.13-2.369,94.426-1.5712,141.62-2.0123,4.6873-1.4913,15.59,3.2328,15.5-3.019v-44.5c-52.958-1.6771-105.92-3.3542-158.88-5.0312v0.5625z"
       class="ttt-cell 01"
       stroke-width="1px"
       fill="#FFF" />
    <path
       id="path4401"
       d="m454.69,93.781c0.88542,15.625,1.7708,31.25,2.6562,46.875,46.292-0.375,92.583-0.75,138.88-1.125-0.53125-15.438-1.0625-30.875-1.5938-46.312-46.646,0.1875-93.292,0.375-139.94,0.5625z"
       cell="ttt-move 02"
       class="ttt-cell 02"
       stroke-width="1px"
       fill="#FFF" />
    <path
       id="path4403"
       d="m456.31,154.91c0.73958,42.49,1.4792,84.979,2.2188,127.47h148.53c-2.2292-43.229-4.4583-86.458-6.6875-129.69-48.021,0.73958-96.042,1.4792-144.06,2.2188z"
       class="ttt-cell 12"
       stroke-width="1px"
       fill="#FFF" />
    <path
       id="path4405"
       d="m288.25,153.22c0.9383,42.361,3.9216,84.755,2.3125,127.12-0.5443,4.324,8.0426,0.62123,11.094,1.8468,48.48,0.11739,96.959,0.37365,145.44,0.74691-1.2917-43.427-2.5833-86.854-3.875-130.28-51.656,0.1875-103.31,0.375-154.97,0.5625z"
       class="ttt-cell 11"
       stroke-width="1px"
       fill="#FFF" />
    <path
       id="path4407"
       d="m275.38,154.34c-27.006,1.5361-54.089,0.70028-81.125,0.625,4.8021,41.906,9.6042,83.812,14.406,125.72,23.302,0.54167,46.604,1.0833,69.906,1.625-0.65096-42.653-0.42443-85.522-2.5-128.03l-0.6875,0.0625z"
       class="ttt-cell 10"
       stroke-width="1px"
       fill="#FFF" />
    <path
       id="path4409"
       d="m207.19,294.91c0.35417,32.396,0.70833,64.792,1.0625,97.188,23.99,0.36458,47.979,0.72917,71.969,1.0938-1.1042-33.312-2.2083-66.625-3.3125-99.938-23.24,0.55208-46.479,1.1042-69.719,1.6562z"
       class="ttt-cell 20"
       stroke-width="1px"
       fill="#FFF" />
    <path
       id="path4411"
       d="m290.03,396c52.365-1.2917,104.73-2.5833,157.09-3.875-0.75-32.396-1.5-64.792-2.25-97.188-51.063-0.36296-102.13-0.74738-153.19-1.1562-0.55208,34.073-1.1042,68.146-1.6562,102.22z"
       class="ttt-cell 21"
       stroke-width="1px"
       fill="#FFF" />
    <path
       id="path4413"
       d="m459.16,293.38c3.372,33.681,4.8835,68.128,6.5625,101.75,48.3,0.14676,96.555,2.9783,144.81,4.8438-0.73958-34.833-1.4792-69.667-2.2188-104.5-49.677-0.65576-99.688-1.6494-149.16-2.0938z"
       class="ttt-cell 22"
       stroke-width="1px"
       fill="#FFF" />
    <path
       id="path4355"
       style="enable-background:accumulate;color:#000000;stroke-dasharray:none;fill:none"
       d="m450,97.523,3.2258,287.1m-170.97-298.39,3.2258,312.9-82.258-111.29,408.06,0-419.35-138.7,408.06-3.23"
       stroke-miterlimit="4"
       class="ttt-board"
       stroke-dashoffset="0"
       stroke-width="1"
       fill-rule="nonzero"
       fill="#000" />
    <path
       id="path4359"
       d="m 194.27286,139.61571 84.113,-51.550996 m -84.394,-1.1561 85.614,55.678996"
       class="ttt-move x"
       style="fill:none;stroke-width:1.30150247px" />
    <path
       id="path4395"
       d="m 191.43,142.64714 14.97035,-27.91653 -12.68465,-28.083467 38.92651,14.915277 43.93049,-16.058177 -18.25045,32.654777 19.39335,25.63122 -43.93643,-19.40126 -42.34957,18.25836 4e-4,-2e-4 z"
       class="ttt-move o"
       style="fill:none;stroke-width:1px"
       sodipodi:nodetypes="cccccccccc" />
  </g>
</svg>
